<?xml version="1.0" encoding="UTF-8" standalone="no"?>
<svg
   xmlns:dc="http://purl.org/dc/elements/1.1/"
   xmlns:cc="http://creativecommons.org/ns#"
   xmlns:rdf="http://www.w3.org/1999/02/22-rdf-syntax-ns#"
   xmlns:svg="http://www.w3.org/2000/svg"
   xmlns="http://www.w3.org/2000/svg"
   xmlns:sodipodi="http://sodipodi.sourceforge.net/DTD/sodipodi-0.dtd"
   xmlns:inkscape="http://www.inkscape.org/namespaces/inkscape"
   class="lexicon-icon lexicon-icon-times-circle"
   viewBox="0 0 512 512"
   id="svg2"
   version="1.1"
   inkscape:version="0.48.4 r9939"
   width="100%"
   height="100%"
   sodipodi:docname="times.svg">
  <metadata
     id="metadata14">
    <rdf:RDF>
      <cc:Work
         rdf:about="">
        <dc:format>image/svg+xml</dc:format>
        <dc:type
           rdf:resource="http://purl.org/dc/dcmitype/StillImage" />
      </cc:Work>
    </rdf:RDF>
  </metadata>
  <defs
     id="defs12" />
  <sodipodi:namedview
     pagecolor="#ffffff"
     bordercolor="#666666"
     borderopacity="1"
     objecttolerance="10"
     gridtolerance="10"
     guidetolerance="10"
     inkscape:pageopacity="0"
     inkscape:pageshadow="2"
     inkscape:window-width="1366"
     inkscape:window-height="705"
     id="namedview10"
     showgrid="false"
     inkscape:zoom="0.91467285"
     inkscape:cx="75.06099"
     inkscape:cy="256"
     inkscape:window-x="-8"
     inkscape:window-y="-8"
     inkscape:window-maximized="1"
     inkscape:current-layer="svg2" />
  <path
     class="lexicon-icon-body"
     fill="none"
     d="M256,0C114.8,0,0,114.8,0,256s114.8,256,256,256s256-114.8,256-256S397.2,0,256,0z"
     id="path4" />
  <path
     class="lexicon-icon-outline"
     d="M301.5,255.5l67.9-67.9c12.5-12.5,12.5-32.8,0-45.3l0,0c-12.5-12.5-32.8-12.5-45.3,0l-67.9,67.9l-67.9-67.9  c-12.5-12.5-32.8-12.5-45.3,0l0,0c-12.5,12.5-12.5,32.8,0,45.3l67.9,67.9l-67.9,67.9c-12.5,12.5-12.5,32.8,0,45.3l0,0  c12.5,12.5,32.8,12.5,45.3,0l67.9-67.9l68.9,68.9c12.5,12.5,32.8,12.5,45.3,0l0,0c12.5-12.5,12.5-32.8,0-45.3L301.5,255.5  L301.5,255.5z"
     id="path8"
     style="fill:#ffffff;fill-opacity:1" />
</svg>
