<?xml version="1.0" encoding="UTF-8" standalone="no"?>
<!-- Generator: Adobe Illustrator 21.0.2, SVG Export Plug-In . SVG Version: 6.00 Build 0)  -->

<svg
   xmlns:dc="http://purl.org/dc/elements/1.1/"
   xmlns:cc="http://creativecommons.org/ns#"
   xmlns:rdf="http://www.w3.org/1999/02/22-rdf-syntax-ns#"
   xmlns:svg="http://www.w3.org/2000/svg"
   xmlns="http://www.w3.org/2000/svg"
   xmlns:xlink="http://www.w3.org/1999/xlink"
   xmlns:sodipodi="http://sodipodi.sourceforge.net/DTD/sodipodi-0.dtd"
   xmlns:inkscape="http://www.inkscape.org/namespaces/inkscape"
   version="1.0"
   id="Capa_1"
   x="0px"
   y="0px"
   width="2930px"
   height="2910px"
   viewBox="0 0 2930 2910"
   enable-background="new 0 0 2930 2910"
   xml:space="preserve"
   inkscape:version="0.48.4 r9939"
   sodipodi:docname="def.svg"><metadata
   id="metadata1389"><rdf:RDF><cc:Work
       rdf:about=""><dc:format>image/svg+xml</dc:format><dc:type
         rdf:resource="http://purl.org/dc/dcmitype/StillImage" /></cc:Work></rdf:RDF></metadata><defs
   id="defs1387" /><sodipodi:namedview
   pagecolor="#ffffff"
   bordercolor="#666666"
   borderopacity="1"
   objecttolerance="10"
   gridtolerance="10"
   guidetolerance="10"
   inkscape:pageopacity="0"
   inkscape:pageshadow="2"
   inkscape:window-width="1366"
   inkscape:window-height="705"
   id="namedview1385"
   showgrid="false"
   inkscape:zoom="0.16093213"
   inkscape:cx="1465"
   inkscape:cy="1455"
   inkscape:window-x="-8"
   inkscape:window-y="-8"
   inkscape:window-maximized="1"
   inkscape:current-layer="Capa_1" />


<g
   id="g369"
   transform="matrix(2.2646718,0,0,2.2646718,-13.123238,491.36069)">
	<path
   d="m 1168.6,255.5 c 0,-0.1 0,-0.1 0,0 0.4,0.6 0.7,1 0.8,1.1 -0.3,-0.4 -0.5,-0.8 -0.8,-1.1 z"
   id="path371"
   inkscape:connector-curvature="0"
   style="fill:#263238" />
	<path
   d="m 131.8,264.2 c 0,0.1 0,0.1 0,0 0,0.1 0,0.1 0,0 -0.1,0.6 -0.1,1.1 -0.2,1.6 0,0.6 0,0.6 0.2,-1.6 z"
   id="path373"
   inkscape:connector-curvature="0"
   style="fill:#263238" />
	<path
   d="m 1147.9,238.2 c -0.2,0 -0.3,-0.1 -0.5,-0.1 0.2,0 0.3,0.1 0.5,0.1 0,0 0,0 0,0 z"
   id="path375"
   inkscape:connector-curvature="0"
   style="fill:#263238" />
	<path
   d="m 1230.3,290.8 c -1.2,-5.6 -2.7,-11.2 -4.5,-16.7 -12.5,-37.1 -44,-69.6 -82.8,-74.3 -20.2,-2.5 -40.4,2.4 -60.3,6.8 -129.8,28.2 -263.5,31.7 -395.8,25.6 -58.7,-2.7 -117.3,-9 -175.6,-12.9 -47.1,-3.1 -95.2,-4.2 -140.6,-18.4 C 323.9,186.3 277.3,171.5 230,158 c -31.2,-8.9 -67.8,-17 -93.5,2.8 -11.5,8.8 -18.7,21.9 -24.6,35.1 -42.9,95.4 -27.8,211.3 27,300.5 54.7,89.2 145.1,153 243.3,189 98.2,36 204.4,46 309,44.6 128.5,-1.8 262,-22.6 367.5,-96 82.6,-57.5 143.2,-146.1 166.8,-243.9 7.7,-32.6 11.6,-67 4.8,-99.3 z"
   id="path377"
   inkscape:connector-curvature="0"
   style="fill:#263238" />
	<path
   d="m 1131.7,344.7 c 0.6,-19 1.1,-37.9 1.7,-56.9 0.5,-17.1 1,-34.2 1.5,-51.2 4.7,0.4 9.4,1.4 13.9,3.3 11.5,4.9 20,14.9 26.5,25.7 9.1,15.1 14.7,31.9 17.3,49.3 -1.2,0.8 -2.3,1.9 -3.2,3.2 l -16,22.7 c -4.4,6.2 -8.6,12.6 -13.9,18 -6,6 -19.8,13.6 -25.7,4.3 -0.7,-1.1 -1.5,-2 -2.4,-2.7 0,-5.2 0.1,-10.4 0.3,-15.7 z"
   id="path379"
   inkscape:connector-curvature="0"
   style="fill:#ede6cc" />
	<path
   d="m 1049.5,381.2 c 2.9,-20.2 3.9,-40.6 4.1,-60.9 0.1,-22.1 -0.8,-44.2 -1.8,-66.3 13.7,-3 27.4,-6.4 41,-10.3 7.2,-2.1 14.7,-4.2 22.2,-5.7 -1.1,37.5 -2.3,75.1 -3.4,112.6 -0.2,5.3 -0.3,10.6 -0.5,16 -0.1,3 0.8,8.1 -0.8,10.9 -1.7,3 -7.2,5.4 -10,7.4 -4.1,2.9 -8.2,5.8 -12.3,8.7 -6.1,4.3 -13.1,10.3 -21.1,9.4 -7.3,-0.9 -13.9,-6 -19.5,-10.6 0.9,-3.7 1.6,-7.4 2.1,-11.2 z"
   id="path381"
   inkscape:connector-curvature="0"
   style="fill:#ede6cc" />
	<path
   d="m 945.3,344.6 c 1.5,-25.1 2.5,-50.1 2.9,-75.2 28.1,-2.5 56.1,-6.1 83.8,-11.3 1.5,33.9 2.8,67.8 0,101.6 -1.2,13.8 -1.5,31.3 -10.4,42.8 -4.4,5.7 -10.8,9.8 -16.9,13.4 -6.8,4.1 -13.8,7.5 -21.6,9.2 -14.3,3.2 -29.9,-1.3 -40.7,-11.1 -0.8,-0.8 -1.7,-1.3 -2.6,-1.8 2.4,-22.4 4.1,-45 5.5,-67.6 z"
   id="path383"
   inkscape:connector-curvature="0"
   style="fill:#ede6cc" />
	<path
   d="m 814.6,420.5 c 1,-23.2 2,-46.5 3,-69.7 1.1,-25.6 2.2,-51.2 3.3,-76.8 35.8,0.1 71.6,-0.6 107.2,-3 -0.7,39.7 -2.7,79.3 -6.2,118.8 -0.4,4.9 -0.9,9.8 -1.4,14.7 -0.3,3.5 0.2,9.7 -1.8,12.7 -1.8,2.8 -6.5,4.9 -9.1,6.8 -4.1,3 -8.2,6 -12.3,9 -13.1,9.5 -27.5,22.3 -44.6,22.2 -15.4,-0.1 -29.3,-9.4 -35.9,-23.2 -0.6,-1.3 -1.6,-2.4 -2.8,-3.1 0.4,-2.8 0.5,-5.6 0.6,-8.4 z"
   id="path385"
   inkscape:connector-curvature="0"
   style="fill:#ede6cc" />
	<path
   d="m 667.8,431.5 c 1.4,-27.2 2.5,-54.5 3.3,-81.7 0.7,-26.4 1.1,-52.9 1.3,-79.3 12.7,0.4 25.4,0.8 38.1,1.2 30.1,0.9 60.3,1.8 90.5,2.1 -1.8,42.6 -3.7,85.2 -5.5,127.8 -0.2,5.3 -0.5,10.6 -0.7,15.9 -0.2,4.4 0.2,9.5 -0.8,13.8 -1.5,6.5 -11.9,8 -17.2,9.9 -25.8,9.4 -58.2,24.3 -86.2,10.9 -7.6,-3.6 -15,-7.2 -23.1,-8.8 0.2,-4 0.1,-8.1 0.3,-11.8 z"
   id="path387"
   inkscape:connector-curvature="0"
   style="fill:#ede6cc" />
	<path
   d="m 659,465 c 0.2,0 0.4,0 0.6,0 2.3,0 4.2,-0.7 5.7,-1.7 6.9,1.6 13.2,5.4 19.6,8.3 6,2.7 12.1,4.7 18.5,5.8 -0.6,5.5 0.4,11 1,16.6 1.3,12.2 -6.2,21.3 -18,24.3 -10.1,2.6 -26.6,1.3 -33.9,-7.4 -4.1,-4.8 -2.9,-12 -3.4,-17.8 -0.6,-7 -2.2,-13.5 -5.7,-19.6 -0.9,-1.5 -1.8,-2.9 -2.8,-4.3 5.7,0 11.6,-0.1 16.6,-3 0.7,-0.4 1.2,-0.8 1.8,-1.2 z"
   id="path389"
   inkscape:connector-curvature="0"
   style="fill:#7c1e1c" />
	<path
   d="m 526.9,397.6 c 5.2,-21.9 8.1,-44.4 9.7,-66.9 1.7,-22.3 2.1,-44.6 2.3,-66.9 37.7,2.9 75.6,4.6 113.4,6 -0.2,44.3 -1.2,88.6 -3.2,132.8 -0.5,12 -1.1,23.9 -1.8,35.9 -0.2,2.9 -0.2,5.8 -0.5,8.7 -0.1,0.7 0,1.2 -0.2,1.8 -3.5,1.3 -9.3,0.1 -12.9,0.1 -22.6,-0.1 -45.7,1.1 -68.2,-0.9 -17.6,-1.6 -40.9,-11.3 -38.2,-32.8 0.5,-2.7 -1.1,-14.5 -0.4,-17.8 z"
   id="path391"
   inkscape:connector-curvature="0"
   style="fill:#ede6cc" />
	<path
   d="m 405.4,374 c 4.3,-19.7 5,-40.2 6.5,-60.3 l 4.9,-64.1 c 33.8,5.6 67.9,9.7 102.2,12.7 -0.4,37.6 -1.1,75.5 -7.8,112.6 -1.8,9.9 -4,19.7 -6.7,29.3 -1.7,6.1 -3.4,14.3 -8.3,18.8 -5.1,4.7 -15.3,0 -21.5,-0.9 -9.6,-1.4 -19.4,-1.8 -28.7,-4.9 -17.5,-5.8 -30.9,-20.2 -43.3,-33.2 1.1,-3.3 2,-6.7 2.7,-10 z"
   id="path393"
   inkscape:connector-curvature="0"
   style="fill:#ede6cc" />
	<path
   d="m 321,228.5 c 25.1,7 50.5,12.7 76.1,17.5 -2.6,34.2 -4.7,68.4 -8,102.5 -0.8,7.9 -1.9,15.8 -3.8,23.6 -1,4 -2.2,7.9 -3.7,11.7 -0.8,2.1 -2,6.5 -3.8,7.8 0.4,-0.3 -0.9,0.2 -1.9,0.1 -1.7,-0.1 -3.5,-0.7 -5.2,-1 -4.4,-1 -8.8,-2.2 -13.1,-3.6 -7.8,-2.5 -15.4,-5.5 -22.9,-8.9 -12.6,-5.7 -33.9,-12.4 -34,-29.2 0,-2 -0.5,-3.6 -1.3,-5 0.8,-5.8 1,-12 1.7,-17.6 2.2,-16.8 5.1,-33.6 8.4,-50.2 3.4,-16 7.2,-31.9 11.5,-47.7 z"
   id="path395"
   inkscape:connector-curvature="0"
   style="fill:#ede6cc" />
	<path
   d="m 233.1,199.3 c 13.3,4.4 26.4,9.4 39.5,14 9.7,3.4 19.4,6.6 29.2,9.6 -9.8,35.9 -16.8,72.4 -21.3,109.3 -0.5,4.2 -0.6,8.7 -1.5,12.8 -0.4,1.9 -4.2,2.6 -7.2,2.9 -7.2,0.8 -14.7,-1.7 -21,-4.8 -16.1,-7.8 -30.8,-19 -45.6,-29.3 2.9,-4.2 5.1,-9.1 6.5,-14.3 4.3,-15.3 6.9,-31.3 10.2,-46.9 3.6,-17.8 7.4,-35.5 11.2,-53.3 z"
   id="path397"
   inkscape:connector-curvature="0"
   style="fill:#ede6cc" />
	<path
   d="m 134.6,260.3 c 3.3,-23.2 1.7,-60.6 28.8,-70.6 6.9,-2.5 14.5,-2.3 21.8,-1.6 9.7,1 19.2,2.9 28.6,5.4 -3.7,17.3 -7.3,34.5 -11,51.8 -1.9,9.1 -3.9,18.2 -5.8,27.3 -1.7,8.1 -3,16.5 -5.6,24.3 -1.7,5 -4.5,9.8 -10.1,10.7 -6.9,1.1 -13.3,-2.4 -18.7,-6.2 -6.1,-4.3 -11.8,-9.6 -17.2,-14.8 -4.9,-4.7 -9.2,-9.5 -12.4,-15.4 0.6,-3.5 1.1,-7.2 1.6,-10.9 z"
   id="path399"
   inkscape:connector-curvature="0"
   style="fill:#ede6cc" />
	<path
   d="m 200.6,515.5 c -37.7,-46.8 -63.1,-104.3 -70.2,-164.2 -2.1,-17.8 -1.9,-34.8 -0.5,-51.8 4.1,4 8.4,7.7 12.6,11.4 11.3,9.7 24.5,18.5 40.1,16.7 2.1,-0.2 4,-0.7 5.9,-1.2 0.6,0.6 1.2,1.2 2,1.7 14.2,9.7 28.1,20.2 43,28.7 13.8,7.9 29.8,13.8 45.8,10 1.7,-0.4 3.4,-1 5.1,-1.6 5.5,11.4 16.7,19.1 28.8,25 17.7,8.7 36.3,17 55.7,20.6 9.8,1.8 18.8,0.4 24.8,-7.3 1.3,1.3 2.6,2.6 3.9,4 -17.9,20.7 -28.6,46.2 -31.5,73.3 -1.4,13.4 -0.5,27.1 2.4,40.3 2.3,10.6 6.1,22.4 15,28.6 -23.1,19.5 -39.5,46.7 -40.8,76.7 -54.5,-26.9 -104,-63.6 -142.1,-110.9 z"
   id="path401"
   inkscape:connector-curvature="0"
   style="fill:#7c1e1c" />
	<path
   d="m 725,686.5 c -95.4,4.1 -192.1,1.2 -284.3,-23.6 -26.5,-7.1 -52.7,-16.2 -77.9,-27.3 -3.6,-38.1 26.9,-72.2 59.8,-87.3 45.6,-21 100.5,-10.5 147.2,0.4 26.9,6.3 53.7,13.4 81.1,17.5 27.3,4 54.2,4.7 81.4,0.1 40.7,-6.9 85.1,-23.3 127.6,-16 46.1,8 82.3,53.6 84.2,99.7 -69,25.1 -145.1,33.3 -219.1,36.5 z"
   id="path403"
   inkscape:connector-curvature="0"
   style="fill:#ea5e61" />
	<path
   d="m 1192.4,366.4 c -0.2,1.7 -0.5,3.3 -0.8,5 -6.4,35.9 -22.3,69.4 -41,100.7 -31.1,52.1 -70.8,99.9 -120.7,134.4 -20.9,14.4 -43.1,26.3 -66.2,36 -2.1,-20.5 -9.5,-40.2 -20.9,-57.3 6.1,-10.3 9.7,-21.8 12.1,-33.8 3.3,-16.5 6.1,-33.5 6.4,-50.4 0.3,-22 -5,-44.9 -18.1,-62.4 9.7,5 20.6,7.8 31.7,7.6 18.3,-0.3 35.5,-8.9 49.9,-19.6 5.8,-4.3 11,-9.2 14.9,-15.2 11,8 23.5,14.1 37.6,10.6 8.1,-2 14.9,-6.9 21.5,-11.6 7.3,-5.2 14.7,-10.1 21.8,-15.5 4.1,-3.1 6.7,-6.7 8.2,-10.7 11.5,5.3 26.1,3.4 36.7,-4.3 8.3,-5.9 14.4,-13.8 20.2,-22 2.9,-4 5.7,-8 8.5,-12 -0.2,6.7 -0.8,13.7 -1.8,20.5 z"
   id="path405"
   inkscape:connector-curvature="0"
   style="fill:#7c1e1c" />
	<path
   d="m 131.9,353.9 c 0,0 0,0.1 0,0.1 0.1,0.4 0.1,0.9 0.2,1.3 0.1,0.7 0.1,0.9 -0.2,-1.4 z"
   id="path407"
   inkscape:connector-curvature="0"
   style="fill:#263238" />
	<g
   id="g409">
		<defs
   id="defs411">
			<path
   id="SVGID_49_"
   d="m 725,686.5 c -95.4,4.1 -192.1,1.2 -284.3,-23.6 -26.5,-7.1 -52.7,-16.2 -77.9,-27.3 -3.6,-38.1 26.9,-72.2 59.8,-87.3 45.6,-21 100.5,-10.5 147.2,0.4 26.9,6.3 53.7,13.4 81.1,17.5 27.3,4 54.2,4.7 81.4,0.1 40.7,-6.9 85.1,-23.3 127.6,-16 46.1,8 82.3,53.6 84.2,99.7 -69,25.1 -145.1,33.3 -219.1,36.5 z"
   inkscape:connector-curvature="0" />
		</defs>
		<clipPath
   id="SVGID_50_">
			<use
   xlink:href="#SVGID_49_"
   overflow="visible"
   id="use415"
   style="overflow:visible"
   x="0"
   y="0"
   width="2930"
   height="2910" />
		</clipPath>
		<g
   clip-path="url(#SVGID_50_)"
   id="g417">
			<path
   d="m 856.8,572.4 c 1.3,1.1 1.4,1.2 1.1,0.9 -0.3,-0.3 -0.7,-0.5 -1,-0.8 0,0 0,-0.1 -0.1,-0.1 z"
   id="path419"
   inkscape:connector-curvature="0"
   style="fill:#f19298" />
			<path
   d="m 957.5,649.3 c -14.3,-36.2 -35.2,-70.6 -63.6,-97.5 -14.2,-13.5 -31,-25 -50.2,-30.2 -21.4,-5.8 -43.8,-3 -65.3,0.6 -19.7,3.3 -39,8.1 -58.4,12.8 -9.5,2.3 -19.1,4.6 -28.6,6.6 -4.8,1 -9.5,2 -14.3,2.8 -2.1,0.4 -4.2,0.7 -6.3,1.1 -1.2,0.2 -2.4,0.4 -3.6,0.6 -0.3,0 -3.4,0.5 -3.5,0.5 -8.9,1.1 -17.9,1.8 -26.9,1.9 -4.5,0 -8.9,-0.1 -13.4,-0.3 -2.4,-0.1 -4.8,-0.3 -7.1,-0.6 -0.2,0 -0.8,-0.1 -1.4,-0.1 -0.8,-0.1 -2.8,-0.4 -3.1,-0.4 -9.5,-1.6 -18.8,-4 -27.8,-7.1 -4.5,-1.5 -9,-3.2 -13.5,-5 -2.2,-0.9 -4.5,-1.8 -6.7,-2.7 -0.1,0 -0.4,-0.2 -0.8,-0.3 -0.8,-0.4 -2.5,-1.1 -2.8,-1.2 -43.1,-18.6 -88.3,-40.1 -136.3,-27.3 -10.1,2.7 -17.3,14.4 -14,24.6 3.4,10.4 13.8,16.8 24.6,14 2.3,-0.6 4.6,-1.2 7,-1.6 0.8,-0.2 1.7,-0.3 2.5,-0.4 0,0 0.1,0 0.1,0 4.8,-0.2 9.4,-0.6 14.2,-0.4 2.4,0.1 4.8,0.3 7.1,0.5 0.9,0.1 1.8,0.2 2.7,0.3 -0.4,0 -0.8,-0.1 -1.1,-0.1 0.4,0 0.9,0.1 1.1,0.1 4.8,0.8 9.5,1.8 14.2,3 9.4,2.4 18.6,5.5 27.6,9.1 2,0.8 3.9,1.6 5.8,2.4 0.3,0.1 1.4,0.6 2,0.9 0.3,0.1 0.6,0.3 0.7,0.3 4.4,1.9 8.8,3.8 13.2,5.8 18.3,8 36.7,16.3 56.1,21.2 19.1,4.8 39.1,6.5 58.7,5.4 39,-2.2 76.6,-13.3 114.5,-21.8 9.2,-2.1 18.5,-4 27.9,-5.5 2.4,-0.4 4.8,-0.8 7.2,-1.1 0.1,0 0.4,-0.1 0.6,-0.1 -0.2,0 -0.3,0 -0.5,0.1 0.9,-0.1 1.8,-0.2 2.8,-0.3 5.2,-0.6 10.5,-1 15.7,-1.1 3.8,0 7.6,0.1 11.4,0.5 0.5,0.1 1.3,0.2 1.7,0.3 1.2,0.3 2.4,0.5 3.6,0.8 2.1,0.5 4.1,1.1 6.1,1.8 0.5,0.2 1.4,0.4 2.1,0.7 0.2,0.1 0.3,0.2 0.5,0.3 1.9,0.9 3.8,1.9 5.7,2.9 3.7,2.1 7.3,4.4 10.8,6.9 0,0 0.1,0.1 0.1,0.1 -0.1,-0.1 -0.2,-0.2 -0.3,-0.3 0.2,0.1 0.3,0.2 0.5,0.4 0.3,0.3 0.8,0.6 1,0.8 0.3,0.3 0.7,0.6 1,0.8 1.9,1.6 3.7,3.2 5.5,4.8 3.4,3.1 6.6,6.4 9.7,9.8 3.5,3.8 6.8,7.6 10,11.6 0.7,0.9 1.4,1.8 2.2,2.7 0.1,0.2 0.3,0.3 0.4,0.4 0.1,0.1 0.1,0.2 0.2,0.3 1.3,1.9 2.7,3.7 4.1,5.6 5.8,8.2 11.2,16.8 16.1,25.6 2.5,4.5 4.8,9.2 7.1,13.9 1,2.1 1.9,4.2 2.9,6.3 0.1,0.2 0.2,0.3 0.2,0.5 0.6,1.4 1.2,2.9 1.7,4.3 3.8,9.7 13.6,17.5 24.6,14 9.4,-3.7 18.1,-14.9 14,-25.3 z"
   id="path421"
   inkscape:connector-curvature="0"
   style="fill:#f19298" />
			<path
   d="m 796.9,559.5 c 2.4,-0.3 1,-0.1 0,0 l 0,0 z"
   id="path423"
   inkscape:connector-curvature="0"
   style="fill:#f19298" />
			<path
   d="m 467.3,540.1 c -0.8,-0.1 -1.4,-0.2 0,0 l 0,0 z"
   id="path425"
   inkscape:connector-curvature="0"
   style="fill:#f19298" />
		</g>
	</g>
	<g
   id="g427">
		<defs
   id="defs429">
			<path
   id="SVGID_51_"
   d="m 1131.7,344.7 c 0.6,-19 1.1,-37.9 1.7,-56.9 0.5,-17.1 1,-34.2 1.5,-51.2 4.7,0.4 9.4,1.4 13.9,3.3 11.5,4.9 20,14.9 26.5,25.7 9.1,15.1 14.7,31.9 17.3,49.3 -1.2,0.8 -2.3,1.9 -3.2,3.2 l -16,22.7 c -4.4,6.2 -8.6,12.6 -13.9,18 -6,6 -19.8,13.6 -25.7,4.3 -0.7,-1.1 -1.5,-2 -2.4,-2.7 0,-5.2 0.1,-10.4 0.3,-15.7 z"
   inkscape:connector-curvature="0" />
		</defs>
		<clipPath
   id="SVGID_52_">
			<use
   xlink:href="#SVGID_51_"
   overflow="visible"
   id="use433"
   style="overflow:visible"
   x="0"
   y="0"
   width="2930"
   height="2910" />
		</clipPath>
		<path
   clip-path="url(#SVGID_52_)"
   d="m 1197.1,304 c -6.8,-1.9 -13.2,2.3 -15.4,8.7 -4.3,12.6 -10.1,24.5 -17.4,35.7 -5.6,8.6 -13.6,21.3 -23.1,24.4 -6.4,2.1 -10.6,8.6 -8.7,15.4 1.7,6.3 8.9,10.8 15.4,8.7 16.2,-5.3 26.9,-19.4 36.1,-33 9.3,-13.7 16.5,-28.8 21.8,-44.5 2.2,-6.4 -2.5,-13.7 -8.7,-15.4 z"
   id="path435"
   inkscape:connector-curvature="0"
   style="fill:#ffffff" />
		<path
   clip-path="url(#SVGID_52_)"
   d="m 1213.2,332.5 c -4.6,-20.7 -12.3,-40.8 -22.6,-59.4 -5,-9 -10.6,-17.5 -16.8,-25.7 -6.6,-8.7 -13.7,-17.7 -23.9,-22.2 -6.2,-2.7 -13.4,-1.8 -17.1,4.5 -3.1,5.3 -1.7,14.4 4.5,17.1 7.4,3.3 12.3,9.6 17,16 5.7,7.8 10.9,15.9 15.6,24.4 8.9,16.4 15.2,33.8 19.2,51.9 1.5,6.6 9.1,10.5 15.4,8.7 6.8,-1.7 10.2,-8.6 8.7,-15.3 z"
   id="path437"
   inkscape:connector-curvature="0"
   style="fill:#cdc8b5" />
	</g>
	<g
   id="g439">
		<defs
   id="defs441">
			<path
   id="SVGID_53_"
   d="m 1049.5,381.2 c 2.9,-20.2 3.9,-40.6 4.1,-60.9 0.1,-22.1 -0.8,-44.2 -1.8,-66.3 13.7,-3 27.4,-6.4 41,-10.3 7.2,-2.1 14.7,-4.2 22.2,-5.7 -1.1,37.5 -2.3,75.1 -3.4,112.6 -0.2,5.3 -0.3,10.6 -0.5,16 -0.1,3 0.8,8.1 -0.8,10.9 -1.7,3 -7.2,5.4 -10,7.4 -4.1,2.9 -8.2,5.8 -12.3,8.7 -6.1,4.3 -13.1,10.3 -21.1,9.4 -7.3,-0.9 -13.9,-6 -19.5,-10.6 0.9,-3.7 1.6,-7.4 2.1,-11.2 z"
   inkscape:connector-curvature="0" />
		</defs>
		<clipPath
   id="SVGID_54_">
			<use
   xlink:href="#SVGID_53_"
   overflow="visible"
   id="use445"
   style="overflow:visible"
   x="0"
   y="0"
   width="2930"
   height="2910" />
		</clipPath>
		<path
   clip-path="url(#SVGID_54_)"
   d="m 1112.2,229.7 c -7,0 -12.3,5.7 -12.5,12.5 -1.2,34.3 -2.4,68.6 -3.7,102.9 -0.5,14 -0.8,29.5 -7.4,42.3 -2.9,5.5 -5.7,9.4 -10.5,13.3 -0.6,0.5 -3.7,2.5 -5.6,3.4 0.6,-0.3 -2.1,0.8 -2.4,0.9 -0.9,0.3 -1.8,0.5 -2.7,0.7 -0.5,0.1 -0.8,0.2 -1,0.2 -6.7,0.7 -12.4,5.3 -12.4,12.5 0,6.2 5.7,13.2 12.5,12.5 16.9,-1.7 30.3,-10.9 40,-24.7 10.2,-14.5 13,-32.9 14.1,-50.2 2.4,-37.9 2.8,-75.9 4.2,-113.9 0.1,-6.6 -6,-12.4 -12.6,-12.4 z"
   id="path447"
   inkscape:connector-curvature="0"
   style="fill:#ffffff" />
		<path
   clip-path="url(#SVGID_54_)"
   d="m 1128.8,235.2 c -1.9,-6.7 -8.8,-10.3 -15.4,-8.7 -18.8,4.4 -38.2,7.9 -56.8,13.1 -5,1.4 -9.4,3.9 -12.1,8.5 -2.8,4.8 -2.3,10.1 -1.7,15.4 1,9.4 1.9,18.8 2.6,28.2 1.4,18.8 2.1,37.6 1.2,56.4 -0.9,18.4 -4,36 -8.1,53.9 -1.8,7.7 0.7,12.7 6.6,17.6 4.4,3.5 8.8,6.2 13.9,8.3 9.3,3.8 19,4.3 28.9,2.7 6.7,-1.1 10.4,-9.4 8.7,-15.4 -1.9,-7.1 -8.7,-9.8 -15.4,-8.7 -5.6,0.9 -11.9,-0.6 -17.2,-3.9 5.5,-23 7.8,-46.7 7.9,-70.3 0,-12.9 -0.5,-25.8 -1.5,-38.6 -0.5,-6.3 -1,-12.5 -1.6,-18.8 -0.3,-3.4 -0.7,-6.9 -1,-10.3 -0.1,-0.6 -0.1,-1.2 -0.2,-1.7 2.3,-0.5 4.6,-1.1 6.9,-1.6 5,-1.2 10.1,-2.3 15.1,-3.5 10.1,-2.3 20.2,-4.7 30.3,-7 6.8,-1.7 10.7,-9.2 8.9,-15.6 z"
   id="path449"
   inkscape:connector-curvature="0"
   style="fill:#cdc8b5" />
	</g>
	<g
   id="g451">
		<defs
   id="defs453">
			<path
   id="SVGID_55_"
   d="m 945.3,344.6 c 1.5,-25.1 2.5,-50.1 2.9,-75.2 28.1,-2.5 56.1,-6.1 83.8,-11.3 1.5,33.9 2.8,67.8 0,101.6 -1.2,13.8 -1.5,31.3 -10.4,42.8 -4.4,5.7 -10.8,9.8 -16.9,13.4 -6.8,4.1 -13.8,7.5 -21.6,9.2 -14.3,3.2 -29.9,-1.3 -40.7,-11.1 -0.8,-0.8 -1.7,-1.3 -2.6,-1.8 2.4,-22.4 4.1,-45 5.5,-67.6 z"
   inkscape:connector-curvature="0" />
		</defs>
		<clipPath
   id="SVGID_56_">
			<use
   xlink:href="#SVGID_55_"
   overflow="visible"
   id="use457"
   style="overflow:visible"
   x="0"
   y="0"
   width="2930"
   height="2910" />
		</clipPath>
		<path
   clip-path="url(#SVGID_56_)"
   d="m 1011.1,259.8 c -1,36.8 -1.2,73.8 -3.1,110.6 -0.8,14.8 -3.2,29.5 -12.1,41.7 -7.3,10 -18.8,17.1 -31.1,20.1 -15.6,3.8 -9,27.9 6.6,24.1 15.9,-3.8 30.8,-12.9 41.3,-25.5 12.4,-14.9 17.6,-32.4 19.5,-51.5 1.9,-19.4 1.6,-39.2 2.1,-58.7 0.6,-20.3 1.1,-40.5 1.7,-60.8 0.6,-16.1 -24.4,-16.1 -24.9,0 z"
   id="path459"
   inkscape:connector-curvature="0"
   style="fill:#ffffff" />
		<path
   clip-path="url(#SVGID_56_)"
   d="m 1021.6,249.1 -56.2,6.4 c -5,0.6 -10.2,0.7 -14.6,3.5 -4.9,3.1 -7.3,8.3 -8,13.8 -1.3,9.5 -1.8,19.2 -2.6,28.7 -1.7,19.1 -3.3,38.2 -5,57.4 -0.8,9.6 -1.7,19.1 -2.5,28.7 -0.8,9.2 -2.2,18.5 -2.2,27.7 0,20.8 16.2,34.5 35.8,37.5 6.7,1 13.4,-1.7 15.4,-8.7 1.6,-5.9 -2,-14.4 -8.7,-15.4 -2.9,-0.4 -7.8,-1.6 -9.3,-2.3 -1.6,-0.7 -3.2,-1.6 -4.6,-2.6 0.6,0.4 -1.8,-2.1 -1.8,-1.8 -3.5,-5.3 -1,-16.2 -0.4,-23.4 1.8,-20.8 3.6,-41.5 5.4,-62.3 0.9,-10.2 1.8,-20.4 2.7,-30.7 0.5,-5.3 0.9,-10.6 1.4,-15.8 0.2,-2.6 0.5,-5.3 0.7,-7.9 0,-0.5 0.1,-1 0.1,-1.4 0.1,0 0.2,0 0.3,0 2.6,-0.3 5.2,-0.6 7.8,-0.9 5.2,-0.6 10.3,-1.2 15.5,-1.8 10.3,-1.2 27.7,-2.3 38,-3.5 6.7,-0.8 5.5,-5.2 5.5,-12.5 -0.2,-6.3 -6,-13.4 -12.7,-12.7 z"
   id="path461"
   inkscape:connector-curvature="0"
   style="fill:#cdc8b5" />
	</g>
	<g
   id="g463">
		<defs
   id="defs465">
			<path
   id="SVGID_57_"
   d="m 814.6,420.5 c 1,-23.2 2,-46.5 3,-69.7 1.1,-25.6 2.2,-51.2 3.3,-76.8 35.8,0.1 71.6,-0.6 107.2,-3 -0.7,39.7 -2.7,79.3 -6.2,118.8 -0.4,4.9 -0.9,9.8 -1.4,14.7 -0.3,3.5 0.2,9.7 -1.8,12.7 -1.8,2.8 -6.5,4.9 -9.1,6.8 -4.1,3 -8.2,6 -12.3,9 -13.1,9.5 -27.5,22.3 -44.6,22.2 -15.4,-0.1 -29.3,-9.4 -35.9,-23.2 -0.6,-1.3 -1.6,-2.4 -2.8,-3.1 0.4,-2.8 0.5,-5.6 0.6,-8.4 z"
   inkscape:connector-curvature="0" />
		</defs>
		<clipPath
   id="SVGID_58_">
			<use
   xlink:href="#SVGID_57_"
   overflow="visible"
   id="use469"
   style="overflow:visible"
   x="0"
   y="0"
   width="2930"
   height="2910" />
		</clipPath>
		<path
   clip-path="url(#SVGID_58_)"
   d="m 920.1,254.6 c -7.1,0 -12.1,5.7 -12.5,12.5 -1.8,34.6 -3.6,69.2 -5.4,103.8 -0.4,8.3 -0.9,16.6 -1.3,24.9 -0.4,6.7 0.6,15.3 -2.2,21.6 -2.4,5.4 -7.6,10.2 -11.5,14.7 -4.6,5.3 -9.4,10.5 -15,14.8 -5.7,4.4 -11.8,7.5 -18.8,8.7 -6,1.1 -11.7,0.2 -17.1,-3.2 -5.7,-3.6 -13.8,-1.2 -17.1,4.5 -3.5,6 -1.2,13.5 4.5,17.1 15.2,9.6 34,8.3 49.9,1.1 15.3,-6.9 26.8,-19.9 37.3,-32.5 5.8,-6.9 11.3,-13.9 13.1,-23 1.8,-9.5 1.7,-19.4 2.2,-29 1,-19.3 2,-38.6 3,-57.9 1.2,-22 2.3,-43.9 3.5,-65.9 0.3,-6.5 -6.1,-12.2 -12.6,-12.2 z"
   id="path471"
   inkscape:connector-curvature="0"
   style="fill:#ffffff" />
		<path
   clip-path="url(#SVGID_58_)"
   d="m 919.6,257.8 -94.4,3.2 c -5.3,0.2 -10.8,3.7 -12.1,9.2 -7.5,33.1 -7.7,67 -7.3,100.8 0.2,16.9 0.2,33.8 0.5,50.7 0.3,16 2.3,32.3 12.8,45.1 10.8,13.2 28.2,18.1 44.6,15.3 6.7,-1.1 10.4,-9.3 8.7,-15.4 -1.9,-7 -8.7,-9.9 -15.4,-8.7 1,-0.1 0.7,0 -0.9,0.1 -0.9,0.1 -1.9,0.1 -2.8,0 -1.6,0 -1.4,0 -3.7,-0.5 -3.5,-0.9 -4.5,-1.3 -7.4,-3.3 -4.6,-3 -7.5,-8.1 -9.1,-14.6 -1.7,-6.9 -1.7,-14 -1.7,-21.2 -0.1,-9.9 -0.2,-19.8 -0.3,-29.6 -0.3,-34.3 -1.7,-69.1 4.5,-103 28,-1 56.1,-1.9 84.1,-2.9 6.7,-0.2 12.5,-5.6 12.5,-12.5 -0.1,-6.8 -5.8,-13 -12.6,-12.7 z"
   id="path473"
   inkscape:connector-curvature="0"
   style="fill:#cdc8b5" />
	</g>
	<g
   id="g475">
		<defs
   id="defs477">
			<path
   id="SVGID_59_"
   d="m 667.8,431.5 c 1.4,-27.2 2.5,-54.5 3.3,-81.7 0.7,-26.4 1.1,-52.9 1.3,-79.3 12.7,0.4 25.4,0.8 38.1,1.2 30.1,0.9 60.3,1.8 90.5,2.1 -1.8,42.6 -3.7,85.2 -5.5,127.8 -0.2,5.3 -0.5,10.6 -0.7,15.9 -0.2,4.4 0.2,9.5 -0.8,13.8 -1.5,6.5 -11.9,8 -17.2,9.9 -25.8,9.4 -58.2,24.3 -86.2,10.9 -7.6,-3.6 -15,-7.2 -23.1,-8.8 0.2,-4 0.1,-8.1 0.3,-11.8 z"
   inkscape:connector-curvature="0" />
		</defs>
		<clipPath
   id="SVGID_60_">
			<use
   xlink:href="#SVGID_59_"
   overflow="visible"
   id="use481"
   style="overflow:visible"
   x="0"
   y="0"
   width="2930"
   height="2910" />
		</clipPath>
		<path
   clip-path="url(#SVGID_60_)"
   d="m 796.1,256 c -7.5,0 -11.6,5.8 -12.5,12.5 -4.8,36 -9.7,72.2 -10.2,108.6 -0.2,14.9 1.7,30.3 -0.3,45.1 -0.6,4.5 -2.2,10.4 -5,14.9 -0.8,1.3 -2.3,3.2 -4.5,4.8 -2.5,1.9 -5.5,3.3 -8.4,4.6 -15.5,6.6 -34.3,14.4 -51.2,9.5 -15.5,-4.5 -22.1,19.6 -6.6,24.1 19,5.5 38.4,0.5 56.4,-6.3 8.7,-3.3 17.7,-6.4 25.1,-12.2 7.1,-5.5 12,-12.6 15.2,-20.9 5.5,-14.1 4.9,-30 4.5,-44.9 -0.6,-20 0.3,-40 2.1,-59.9 2,-22.5 5,-45 8,-67.4 0.8,-6.7 -6.5,-12.5 -12.6,-12.5 z"
   id="path483"
   inkscape:connector-curvature="0"
   style="fill:#ffffff" />
		<path
   clip-path="url(#SVGID_60_)"
   d="m 794.6,265.2 c -40,2.3 -80,1.7 -119.9,-1.9 -7.1,-0.6 -12,6.3 -12.5,12.5 -3.4,39.2 -3.3,78.6 -2.1,118 0.3,9.6 0.6,19.2 1,28.8 0.4,9.6 -0.1,19.8 1.7,29.2 3.6,18.3 26,27.7 42.4,31 6.6,1.3 13.5,-1.9 15.4,-8.7 1.7,-6.2 -2.1,-14 -8.7,-15.4 -7.8,-1.6 -14.4,-4.3 -21.2,-8.5 -4.6,-2.9 1.5,1 -2.3,-1.7 -1.2,-0.9 -0.9,-0.3 -1.1,-1.9 -0.3,-2.2 -0.4,-5.1 -0.5,-8.2 -0.7,-18.2 -1.4,-36.4 -1.9,-54.6 -0.8,-31.5 -0.7,-63.1 1.4,-94.6 36.1,2.7 72.3,3.1 108.4,0.9 6.7,-0.4 12.5,-5.5 12.5,-12.5 -0.1,-6.4 -5.8,-12.8 -12.6,-12.4 z"
   id="path485"
   inkscape:connector-curvature="0"
   style="fill:#cdc8b5" />
	</g>
	<g
   id="g487">
		<defs
   id="defs489">
			<path
   id="SVGID_61_"
   d="m 526.9,397.6 c 5.2,-21.9 8.1,-44.4 9.7,-66.9 1.7,-22.3 2.1,-44.6 2.3,-66.9 37.7,2.9 75.6,4.6 113.4,6 -0.2,44.3 -1.2,88.6 -3.2,132.8 -0.5,12 -1.1,23.9 -1.8,35.9 -0.2,2.9 -0.2,5.8 -0.5,8.7 -0.1,0.7 0,1.2 -0.2,1.8 -3.5,1.3 -9.3,0.1 -12.9,0.1 -22.6,-0.1 -45.7,1.1 -68.2,-0.9 -17.6,-1.6 -40.9,-11.3 -38.2,-32.8 0.5,-2.7 -1.1,-14.5 -0.4,-17.8 z"
   inkscape:connector-curvature="0" />
		</defs>
		<clipPath
   id="SVGID_62_">
			<use
   xlink:href="#SVGID_61_"
   overflow="visible"
   id="use493"
   style="overflow:visible"
   x="0"
   y="0"
   width="2930"
   height="2910" />
		</clipPath>
		<path
   clip-path="url(#SVGID_62_)"
   d="m 657.3,327.2 c -0.3,-20.7 -1.2,-41.4 -2.1,-62.1 -0.3,-6.7 -5.5,-12.5 -12.5,-12.5 -6.5,0 -12.8,5.7 -12.5,12.5 1.4,33 2.8,65.9 2,98.9 -0.4,16.4 -1.4,32.9 -3.2,49.2 -0.8,7.5 -1.9,15 -3.1,22.5 -0.6,3.7 -1.5,7.3 -2.1,11 -0.7,0.2 -1.5,0.4 -2.2,0.6 -16.4,3.9 -33.9,5 -50.7,2.7 -6.7,-0.9 -13.4,1.6 -15.4,8.7 -1.6,5.8 2,14.5 8.7,15.4 18.4,2.5 36.5,2.4 54.9,-0.8 8.7,-1.5 19.2,-2.9 24.8,-10.5 5.1,-6.8 5.5,-17.1 6.8,-25.3 5.8,-36.4 7.2,-73.4 6.6,-110.3 z"
   id="path495"
   inkscape:connector-curvature="0"
   style="fill:#ffffff" />
		<path
   clip-path="url(#SVGID_62_)"
   d="m 641.7,256.3 c -34,4 -68.3,3.8 -102.3,-0.5 -6.4,-0.8 -12.9,6.4 -12.5,12.5 2.1,33 1.2,66.3 -3.4,99 -4.4,31.4 -10.2,64.8 12,91.1 9.9,11.8 25.5,19.9 41.2,18 6.7,-0.8 12.5,-5.2 12.5,-12.5 0,-6.1 -5.8,-13.3 -12.5,-12.5 -1.9,0.2 -3.7,0.4 -5.6,0.3 -0.4,0 -0.8,-0.1 -1,-0.1 -0.8,-0.2 -1.6,-0.3 -2.4,-0.6 -2.6,-0.7 -4,-1.4 -7,-3.3 -4.5,-2.9 -8.7,-8 -11.6,-13.5 -7.2,-13.5 -5.4,-32.6 -3.2,-48.2 4.9,-34.6 7.8,-68.9 6.8,-103.8 29.7,2.8 59.5,2.5 89.1,-0.9 6.7,-0.8 12.5,-5.2 12.5,-12.5 -0.1,-6.1 -5.8,-13.3 -12.6,-12.5 z"
   id="path497"
   inkscape:connector-curvature="0"
   style="fill:#cdc8b5" />
	</g>
	<g
   id="g499">
		<defs
   id="defs501">
			<path
   id="SVGID_63_"
   d="m 405.4,374 c 4.3,-19.7 5,-40.2 6.5,-60.3 l 4.9,-64.1 c 33.8,5.6 67.9,9.7 102.2,12.7 -0.4,37.6 -1.1,75.5 -7.8,112.6 -1.8,9.9 -4,19.7 -6.7,29.3 -1.7,6.1 -3.4,14.3 -8.3,18.8 -5.1,4.7 -15.3,0 -21.5,-0.9 -9.6,-1.4 -19.4,-1.8 -28.7,-4.9 -17.5,-5.8 -30.9,-20.2 -43.3,-33.2 1.1,-3.3 2,-6.7 2.7,-10 z"
   inkscape:connector-curvature="0" />
		</defs>
		<clipPath
   id="SVGID_64_">
			<use
   xlink:href="#SVGID_63_"
   overflow="visible"
   id="use505"
   style="overflow:visible"
   x="0"
   y="0"
   width="2930"
   height="2910" />
		</clipPath>
		<path
   clip-path="url(#SVGID_64_)"
   d="m 520.6,260.2 c -0.9,-6.7 -5.1,-12.5 -12.5,-12.5 -6.1,0 -13.4,5.8 -12.5,12.5 4.8,36.9 4.5,74.7 -1.6,111.5 -1.6,9.2 -3.4,18.4 -5.7,27.5 -1.1,4.6 -2.3,9.1 -3.6,13.6 -0.9,3.1 -2.3,6.5 -3.3,9.7 -1.9,-0.1 -3.8,-0.2 -5.7,-0.3 -4.8,-0.3 -9.6,-0.6 -14.4,-1.1 -9.5,-0.9 -18.9,-2.1 -28.3,-3.6 -6.7,-1.1 -13.5,1.7 -15.4,8.7 -1.6,6 2,14.3 8.7,15.4 17.3,2.8 34.8,4.8 52.3,5.7 9.1,0.5 18.6,0.6 23.7,-8.6 4,-7.1 5.6,-16.1 7.7,-23.9 8.7,-32.1 13.3,-65.4 13.8,-98.7 0.3,-18.6 -0.8,-37.3 -3.2,-55.9 z"
   id="path507"
   inkscape:connector-curvature="0"
   style="fill:#ffffff" />
		<path
   clip-path="url(#SVGID_64_)"
   d="m 503.6,249.8 c -26.7,-3.3 -53.3,-6.5 -80,-9.8 -6.9,-0.8 -12.3,6.4 -12.5,12.5 -1.5,39.6 -5.7,78.9 -13,117.9 -1.8,9.8 -3.8,19.7 -1.7,29.6 2.1,10.1 9,17.7 16,25 12.1,12.5 27,24.4 45.3,23.5 6.7,-0.3 12.5,-5.5 12.5,-12.5 0,-6.5 -5.7,-12.8 -12.5,-12.5 -6.2,0.3 -10.4,-1.6 -16.1,-5.6 -5.4,-3.8 -10.3,-9.1 -14.9,-14.1 -5.1,-5.5 -6.9,-10.1 -6,-17.6 0.9,-8.2 2.9,-16.3 4.3,-24.4 5.3,-31.5 8.8,-63.4 10.5,-95.3 22.7,2.8 45.4,5.5 68.2,8.3 6.7,0.8 12.5,-6.3 12.5,-12.5 -0.1,-7.5 -5.9,-11.7 -12.6,-12.5 z"
   id="path509"
   inkscape:connector-curvature="0"
   style="fill:#cdc8b5" />
	</g>
	<g
   id="g511">
		<defs
   id="defs513">
			<path
   id="SVGID_65_"
   d="m 321,228.5 c 25.1,7 50.5,12.7 76.1,17.5 -2.6,34.2 -4.7,68.4 -8,102.5 -0.8,7.9 -1.9,15.8 -3.8,23.6 -1,4 -2.2,7.9 -3.7,11.7 -0.8,2.1 -2,6.5 -3.8,7.8 0.4,-0.3 -0.9,0.2 -1.9,0.1 -1.7,-0.1 -3.5,-0.7 -5.2,-1 -4.4,-1 -8.8,-2.2 -13.1,-3.6 -7.8,-2.5 -15.4,-5.5 -22.9,-8.9 -12.6,-5.7 -33.9,-12.4 -34,-29.2 0,-2 -0.5,-3.6 -1.3,-5 0.8,-5.8 1,-12 1.7,-17.6 2.2,-16.8 5.1,-33.6 8.4,-50.2 3.4,-16 7.2,-31.9 11.5,-47.7 z"
   inkscape:connector-curvature="0" />
		</defs>
		<clipPath
   id="SVGID_66_">
			<use
   xlink:href="#SVGID_65_"
   overflow="visible"
   id="use517"
   style="overflow:visible"
   x="0"
   y="0"
   width="2930"
   height="2910" />
		</clipPath>
		<path
   clip-path="url(#SVGID_66_)"
   d="m 387.2,236.4 c -7.3,0 -11.9,5.7 -12.5,12.5 -2.8,32 -2.9,64.2 -7.2,96.1 -1,7.5 -2.3,15 -3.9,22.4 -0.9,4 -1.8,7.9 -2.9,11.9 -0.1,0.5 -0.6,1.7 -1,2.8 -2.5,0 -5.5,0.8 -8,0.9 -4.1,0.1 -8.3,0 -12.4,-0.5 -7.1,-0.9 -14,-3.1 -20.5,-5.8 -6.2,-2.6 -13.7,2.8 -15.4,8.7 -2,7.2 2.5,12.8 8.7,15.4 16.7,6.8 35.7,9 53.4,5.8 11,-2 16.2,-9.6 19,-19.7 2.4,-8.7 4.2,-17.6 5.7,-26.6 6.1,-36.8 6.2,-74.2 9.4,-111.3 0.6,-6.9 -6.1,-12.6 -12.4,-12.6 z"
   id="path519"
   inkscape:connector-curvature="0"
   style="fill:#ffffff" />
		<path
   clip-path="url(#SVGID_66_)"
   d="m 390.9,236.2 c -22.3,-4.4 -44.2,-10.3 -65.6,-17.7 -6,-2.1 -14.2,2.4 -15.4,8.7 -5.8,31.9 -11.6,63.8 -17.4,95.7 -2.8,15.5 -6.5,31.9 -2.3,47.5 3.8,13.9 13.6,25.6 27.5,29.9 15.4,4.8 22,-19.3 6.6,-24.1 -2.9,-0.9 -5.3,-2.9 -7.4,-6.3 -2.3,-3.7 -3.4,-7.3 -3.6,-12.2 -0.7,-13.3 3,-26.9 5.4,-39.9 4.3,-23.7 8.6,-47.3 12.9,-71 17.3,5.4 34.8,9.9 52.6,13.5 6.6,1.3 13.5,-1.9 15.4,-8.7 1.7,-6.2 -2,-14.1 -8.7,-15.4 z"
   id="path521"
   inkscape:connector-curvature="0"
   style="fill:#cdc8b5" />
	</g>
	<g
   id="g523">
		<defs
   id="defs525">
			<path
   id="SVGID_67_"
   d="m 233.1,199.3 c 13.3,4.4 26.4,9.4 39.5,14 9.7,3.4 19.4,6.6 29.2,9.6 -9.8,35.9 -16.8,72.4 -21.3,109.3 -0.5,4.2 -0.6,8.7 -1.5,12.8 -0.4,1.9 -4.2,2.6 -7.2,2.9 -7.2,0.8 -14.7,-1.7 -21,-4.8 -16.1,-7.8 -30.8,-19 -45.6,-29.3 2.9,-4.2 5.1,-9.1 6.5,-14.3 4.3,-15.3 6.9,-31.3 10.2,-46.9 3.6,-17.8 7.4,-35.5 11.2,-53.3 z"
   inkscape:connector-curvature="0" />
		</defs>
		<clipPath
   id="SVGID_68_">
			<use
   xlink:href="#SVGID_67_"
   overflow="visible"
   id="use529"
   style="overflow:visible"
   x="0"
   y="0"
   width="2930"
   height="2910" />
		</clipPath>
		<path
   clip-path="url(#SVGID_68_)"
   d="m 299.9,204.5 c -6.2,-1.7 -14,2.1 -15.4,8.7 -6.4,30.3 -12.6,60.7 -19.1,91 -1.6,7.3 -3.2,14.6 -4.8,21.8 -0.9,3.8 -1.8,7.6 -2.7,11.4 -0.3,1.1 -0.7,2.3 -1,3.5 -2,0.1 -4.1,0.3 -5.8,0.3 -3.1,-0.2 -6.2,-0.4 -9.3,-1 -7.2,-1.3 -14.1,-3.3 -20.9,-5.9 -6.3,-2.4 -13.7,2.7 -15.4,8.7 -1.9,7.1 2.4,12.9 8.7,15.4 15,5.8 32.5,9.4 48.6,7.6 10.6,-1.2 15.8,-8.4 18.2,-18.2 2.1,-8.5 4.1,-17 6,-25.6 7.6,-34 14.5,-68.2 21.6,-102.4 1.4,-6.5 -1.9,-13.4 -8.7,-15.3 z"
   id="path531"
   inkscape:connector-curvature="0"
   style="fill:#ffffff" />
		<path
   clip-path="url(#SVGID_68_)"
   d="m 293,210.9 c -18.5,-6.3 -37,-12.6 -55.5,-18.9 -8,-2.7 -15.6,4.4 -15.8,12.1 -0.8,27.1 -9.8,52.9 -17.9,78.5 -4.3,13.5 -9.6,27.8 -6.3,42.2 2.9,12.5 12.2,21.7 21.7,29.6 5.2,4.3 12.6,5.1 17.7,0 4.4,-4.4 5.2,-13.3 0,-17.7 -7.2,-6 -15.4,-12 -15.4,-21.4 0,-5.5 1.8,-10.9 3.4,-16.2 1.9,-6.3 3.9,-12.5 5.9,-18.8 6.2,-19.4 12,-39 14.6,-59.2 13.7,4.7 27.4,9.3 41.1,14 6.4,2.2 13.7,-2.5 15.4,-8.7 1.7,-7 -2.5,-13.3 -8.9,-15.5 z"
   id="path533"
   inkscape:connector-curvature="0"
   style="fill:#cdc8b5" />
	</g>
	<g
   id="g535">
		<defs
   id="defs537">
			<path
   id="SVGID_69_"
   d="m 134.6,260.3 c 3.3,-23.2 1.7,-60.6 28.8,-70.6 6.9,-2.5 14.5,-2.3 21.8,-1.6 9.7,1 19.2,2.9 28.6,5.4 -3.7,17.3 -7.3,34.5 -11,51.8 -1.9,9.1 -3.9,18.2 -5.8,27.3 -1.7,8.1 -3,16.5 -5.6,24.3 -1.7,5 -4.5,9.8 -10.1,10.7 -6.9,1.1 -13.3,-2.4 -18.7,-6.2 -6.1,-4.3 -11.8,-9.6 -17.2,-14.8 -4.9,-4.7 -9.2,-9.5 -12.4,-15.4 0.6,-3.5 1.1,-7.2 1.6,-10.9 z"
   inkscape:connector-curvature="0" />
		</defs>
		<clipPath
   id="SVGID_70_">
			<use
   xlink:href="#SVGID_69_"
   overflow="visible"
   id="use541"
   style="overflow:visible"
   x="0"
   y="0"
   width="2930"
   height="2910" />
		</clipPath>
		<path
   clip-path="url(#SVGID_70_)"
   d="m 212.4,175.9 c -6.1,-1.7 -14.1,2.1 -15.4,8.7 -5.6,28.8 -11.2,57.6 -16.9,86.5 -1.2,6.1 -2.2,12.6 -4.6,18.4 -1.8,4.2 -4.4,8.1 -7.6,10.1 -3.2,2 -5.6,2.2 -9.6,0.6 -4.6,-1.9 -9,-5.8 -12.8,-9.2 -5,-4.5 -12.7,-5 -17.7,0 -4.6,4.6 -5,13.2 0,17.7 11.7,10.5 25.8,20.3 42.4,16.8 16.3,-3.5 26.4,-18.5 30.8,-33.6 4.6,-15.9 6.8,-32.8 10,-49 3.3,-17.2 6.7,-34.3 10,-51.5 1.4,-6.7 -1.7,-13.6 -8.6,-15.5 z"
   id="path543"
   inkscape:connector-curvature="0"
   style="fill:#ffffff" />
		<path
   clip-path="url(#SVGID_70_)"
   d="m 216.6,181 c -29.6,-14.4 -66.9,-3.3 -80.7,27.6 -6.8,15.2 -7.6,32.9 -10,49.1 -2.7,17.8 -5.2,34.9 2.7,51.8 2.8,6.1 11.7,7.7 17.1,4.5 6.3,-3.7 7.3,-11 4.5,-17.1 -4.7,-10.1 -1.6,-23 0,-33.5 2,-13.4 2.9,-27.8 7,-40.8 2.7,-8.5 9,-15.6 17.3,-19.9 8.3,-4.3 20.2,-4.6 29.6,-0.1 6.1,3 13.5,1.7 17.1,-4.5 3.1,-5.5 1.5,-14.2 -4.6,-17.1 z"
   id="path545"
   inkscape:connector-curvature="0"
   style="fill:#cdc8b5" />
	</g>
	<path
   d="m 477.6,735 c 0,0 24.1,55.4 130,55.7 C 744.3,791 766.9,742.6 766.9,742.6 621.2,775.9 477.6,735 477.6,735 z"
   id="path547"
   inkscape:connector-curvature="0"
   style="fill:#263238" />
	<path
   d="m 87,187.6 c 0,0 16.8,-86.5 126.9,-58.6 0,0 -47.9,-40.1 -95.9,-20.1 -48,20 -31,78.7 -31,78.7 z"
   id="path549"
   inkscape:connector-curvature="0"
   style="fill:#263238" />
	<path
   d="m 1227.9,239.2 c 0,0 -16.8,-86.5 -126.9,-58.6 0,0 47.9,-40.1 95.9,-20.1 48,20 31,78.7 31,78.7 z"
   id="path551"
   inkscape:connector-curvature="0"
   style="fill:#263238" />
</g>



</svg>