<?xml version="1.0" encoding="utf-8"?>
<!-- Generator: Adobe Illustrator 16.0.0, SVG Export Plug-In . SVG Version: 6.00 Build 0)  -->
<!DOCTYPE svg PUBLIC "-//W3C//DTD SVG 1.1//EN" "http://www.w3.org/Graphics/SVG/1.1/DTD/svg11.dtd">
<svg version="1.1" id="Layer_1" xmlns="http://www.w3.org/2000/svg" xmlns:xlink="http://www.w3.org/1999/xlink" x="0px" y="0px"
	 width="283.465px" height="283.464px" viewBox="0 0 283.465 283.464" enable-background="new 0 0 283.465 283.464"
	 xml:space="preserve">
<g id="Layer_3_copy_3" display="none">
	<circle display="inline" fill="#8FBFAB" cx="142.369" cy="141.716" r="110.967"/>
</g>
<g id="Layer_8" display="none">
	<g id="Layer_1_2_" display="inline">
		<g>
			<g>
				<path fill="#D7D7D7" d="M142.058,252.819c27.351,0,52.408-9.776,71.762-26.171c0.484-7.521-0.868-15.502-3.836-23.915
					c-15.52-44.008-21.375-71.552-63.303-71.552c-41.937,0-58.122,27.264-71.073,72.406c-2.568,8.945-2.937,17.697-1.463,25.951
					C92.918,244.056,116.489,252.819,142.058,252.819z"/>
			</g>
			<g>
				<path fill="#F2EEEF" d="M80.789,234.316c17.598,11.709,38.763,18.503,61.488,18.503c25.017,0,48.099-8.276,66.666-22.231
					c-1.907-5.158-4.74-10.256-5.613-15.004c-1.453-7.892-6.255-22.017-9.143-39.182c-4.215-25.033-30.244-45.192-47.447-45.192
					c-18.725,0-45.704,12.04-52.654,42.002c-3.309,14.26-18.371,39.289-15.159,49.502C80.09,226.416,80.503,230.451,80.789,234.316z
					"/>
			</g>
			<path fill="#785C4B" d="M168.543,192.05c-1.688-11.264-17.74-16.607-31.358-17.637c-0.092-0.686-0.222-1.435-0.4-2.262
				c-2.887-13.57-25.059-9.736-29.49-3.486c-5.192,7.324-2.64,16.17-7.541,22.227c-4.898,6.059-8.329,13.542,1.343,13.521
				c6.857-0.015,10.106,1.194,15.905,4.317c3.11,1.677,5.493,4.438,7.213,6.481c6.224,8.936,10.804,14.176,15.421,21.33
				c5.561,8.617,14.049,8.967,18.112-6.221C161.811,215.137,171.518,211.855,168.543,192.05z"/>
			<path fill="#785C4B" d="M178.041,207.08c-0.702,7.529-5.471,11.022-8.55,14.832c-3.082,3.813-6.128,25.662-0.07,25.102
				c6.062-0.566,7.828-15.088,13.515-12.368c5.683,2.717,18.797,0.631,13.621-8.433c-7.818-13.688,1.655-9.532-0.16-18.073
				C194.577,199.596,178.747,199.548,178.041,207.08z"/>
			<g>
				<path fill="#785C4B" d="M117.517,90.886c-10.414,0-18.855-8.443-18.855-18.854c0-2.086,0.026-2.201,0.026-2.201
					c0.517-2.072-0.356-2.597-1.949-1.171c0,0-7.677,6.902-7.677,14.343c0,10.413,8.442,18.855,18.858,18.855
					c8.327,0,15.57-9.768,15.57-9.768c1.272-1.717,0.667-2.527-1.344-1.803C122.145,90.288,120.489,90.886,117.517,90.886z"/>
				<path fill="#785C4B" d="M162.895,90.886c10.416,0,18.857-8.443,18.857-18.854c0-2.086-0.025-2.201-0.025-2.201
					c-0.516-2.072,0.357-2.597,1.948-1.171c0,0,7.679,6.902,7.679,14.343c0,10.413-8.441,18.855-18.856,18.855
					c-8.329,0-15.567-9.768-15.567-9.768c-1.273-1.717-0.675-2.527,1.34-1.803C158.266,90.288,159.923,90.886,162.895,90.886z"/>
				<path fill="#E5E1E4" d="M212.244,97.417c-6.698-6.173-20.771-6.796-31.2-4.043c-3.119-9.441-10.869-15.733-22.58-18.602
					c0.951-0.374,2.081-0.79,3.476-1.276c-3.478-0.981-5.076-0.875-7.613,0.43c-0.325-0.055-0.65-0.106-0.979-0.156
					c0.817-0.743,1.764-1.574,2.889-2.538c-3.203,0.314-5.043,0.842-6.69,2.081c-0.196-0.018-0.397-0.03-0.597-0.047
					c1.539-1.62,3.755-3.679,7.213-6.638c-6.485,0.641-8.684,1.92-12.316,6.376c-0.369-0.007-0.74-0.009-1.107-0.012
					c0.703-1.265,1.863-2.938,4.047-5.714c-3.986,1.213-5.092,2.295-6.86,5.732c-0.152,0.003-0.299,0.009-0.452,0.015
					c0.323-1.26,0.739-2.746,1.289-4.57c-2.23,1.762-3.474,3.087-4.233,4.703c-0.207,0.012-0.413,0.024-0.62,0.041
					c0.444-2.084,1.164-4.793,2.303-8.574c-4.102,3.242-5.658,5.337-6.451,8.991c-15.733,2.049-25.478,9.131-28.634,21.086
					c-10.008-4.636-32.08-2.187-39.359,7.573c-8.953,11.998,23.619,24.848,33.302,21.084c2.713-1.054,5.041-2.668,6.906-4.659
					c0.284,1.143,0.584,2.3,0.926,3.484l12.528,52.604c-10.815,34.379,62.956,27.822,50.12,0.862l11.505-52.759
					c1.356,0.618,2.809,1.087,4.342,1.375C193.598,126.185,223.254,107.563,212.244,97.417z"/>
				<path fill="#C6C6C6" d="M116.429,116.866c2.31-0.442,4.552-0.341,6.496,0.19c-1.854-2.162-4.78-3.306-7.776-2.735
					c-3.547,0.678-6.115,3.541-6.592,6.924C110.278,119.158,113.072,117.508,116.429,116.866z"/>
				<path fill="#785C4B" d="M137.283,80.651c0,0-7.821,9.388-14.863,12.515c-7.038,3.129-13.295,8.213-3.127,9.779
					c10.169,1.564,7.041,1.564,14.862,6.65c7.822,5.083,4.694,16.426,14.476-0.783c9.773-17.208,16.424-10.171,17.984-20.339
					C168.182,78.307,139.631,75.566,137.283,80.651z"/>
				<path fill="#F8E0DB" d="M157.211,192.984c0,2.118-6.677,4.283-14.908,4.283c-8.231,0-14.907-2.166-14.907-4.283
					s6.675-3.833,14.909-3.833C150.534,189.151,157.211,190.867,157.211,192.984z"/>
				<path fill="#F4B7C4" d="M149.255,159.492h-14.15c-10.696,0-19.363,8.67-19.363,19.362c0,13.976,3.072,16.28,7.812,15.86
					c3.936,4.979,10.518,8.254,17.987,8.254c7.547,0,14.188-3.336,18.109-8.398c5.388,0.857,8.963-0.641,8.963-15.716
					C168.611,168.162,159.945,159.492,149.255,159.492z M141.71,197.271c-9.381-0.009-11-3.134-13.271-5.229
					c0,0,7.269,2.095,13.168,2.095c6.232,0,13.677-2.091,13.677-2.091C152.014,194.238,150.572,197.277,141.71,197.271z"/>
				<path fill="#785C4B" d="M157.928,175.216c-2.986-2.646-8.207,2.287-7.75,5.818c0.456,3.532,5.196,4.197,7.182-0.4
					C159.331,176.029,158.984,176.155,157.928,175.216z"/>
				<path fill="#785C4B" d="M127.078,174.77c3.241-2.326,7.929,3.11,7.117,6.578c-0.816,3.468-5.604,3.647-7.098-1.13
					C125.597,175.435,125.925,175.596,127.078,174.77z"/>
				<path fill="#C6C6C6" d="M166.906,117.286c-2.327-0.354-4.562-0.173-6.486,0.429c1.773-2.229,4.65-3.48,7.67-3.019
					c3.569,0.542,6.24,3.308,6.842,6.673C173.139,119.348,170.283,117.803,166.906,117.286z"/>
				<path fill="#785C4B" d="M168.18,124.387c-1.479,0.336-2.869,1.082-4.373,2.965c-2.863,3.584-2.781,5.791-2.06,8.127
					c1.651,1.431,3.94,2.002,6.116,1.299c3.363-1.091,5.18-4.79,4.053-8.27C171.29,126.571,169.883,125.114,168.18,124.387z"/>
				<path fill="#0A0505" d="M166.982,126.45c-1.203,0.273-2.336,0.879-3.561,2.414c-2.33,2.917-2.268,4.714-1.677,6.616
					c1.346,1.165,3.205,1.63,4.979,1.058c2.734-0.886,4.215-3.9,3.301-6.732C169.518,128.227,168.372,127.04,166.982,126.45z"/>
				<path fill="#FFFFFF" d="M166.732,129.432c-0.196,0.355,0.064,0.876,0.584,1.167c0.522,0.288,1.104,0.23,1.3-0.126
					c0.196-0.355-0.063-0.877-0.587-1.166C167.512,129.021,166.934,129.075,166.732,129.432z"/>
				<path fill="#785C4B" d="M116.809,124.387c1.482,0.336,2.871,1.082,4.373,2.965c2.861,3.584,2.781,5.791,2.061,8.127
					c-1.651,1.431-3.938,2.002-6.117,1.299c-3.362-1.091-5.178-4.79-4.052-8.27C113.699,126.571,115.107,125.114,116.809,124.387z"
					/>
				<path fill="#0A0505" d="M118.004,126.45c1.206,0.273,2.336,0.879,3.562,2.414c2.33,2.917,2.262,4.714,1.676,6.616
					c-1.345,1.165-3.208,1.63-4.98,1.058c-2.737-0.886-4.217-3.9-3.298-6.732C115.472,128.227,116.619,127.04,118.004,126.45z"/>
				
					<ellipse transform="matrix(0.484 0.8751 -0.8751 0.484 174.2477 -35.6092)" fill="#FFFFFF" cx="117.319" cy="129.948" rx="0.738" ry="1.075"/>
			</g>
		</g>
	</g>
</g>
<g id="Layer_3_1_" display="none">
	<circle display="inline" fill="#FDCE77" cx="142.369" cy="141.716" r="110.967"/>
</g>
<g id="Layer_4_1_" display="none">
	<g id="Layer_1_4_" display="inline">
		<g>
			<path fill="#5D3C37" d="M91.049,90.974c15.673,9.159,22.675,27.979,14.477,44.175c-1.141,2.256-2.516,4.314-4.065,6.182
				c4.827-3.065,8.919-7.42,11.691-12.891c8.202-16.203,1.017-34.721-14.476-44.177c-17.67-10.787-41.666,6.602-40.111,8.294
				C60.125,94.25,77.432,83.017,91.049,90.974z"/>
			<path fill="#C25826" d="M220.298,169.61c-0.476-2.188-1.165-4.167-1.952-5.76c0.16-0.036,0.316-0.087,0.455-0.168
				c1.902-1.115,1.006-6.185-2-11.32c-0.812-1.39-1.695-2.634-2.588-3.7c0.107-2.728-2.148-7.316-5.98-11.667
				c-3.934-4.46-8.318-7.309-11.026-7.409c-12.248-10.817-29.021-17.497-47.528-17.497c-19.154,0-36.443,7.153-48.786,18.64
				c-2.679,0.812-6.29,3.415-9.576,7.151c-3.831,4.344-6.089,8.936-5.978,11.663c-0.896,1.065-1.779,2.312-2.591,3.701
				c-3.009,5.139-3.907,10.205-2.003,11.319c0.142,0.081,0.297,0.133,0.46,0.168c-0.789,1.595-1.478,3.569-1.954,5.763
				c-1.267,5.813-0.547,10.912,1.605,11.383h0.001c-0.114,1.031-0.173,2.133-0.165,3.273c0.041,5.954,1.865,10.768,4.067,10.754
				c0.512-0.004,0.998-0.277,1.443-0.755c-0.006,0.259-0.011,0.521-0.009,0.784c0.041,5.951,1.861,10.766,4.062,10.751
				c0.645-0.004,1.247-0.433,1.78-1.167c11.99,17.312,33.317,28.842,57.644,28.842c24.389,0,45.768-11.587,57.734-28.977
				c0.559,0.824,1.197,1.298,1.884,1.302c2.203,0.015,4.021-4.8,4.063-10.751c0-0.268-0.004-0.523-0.01-0.784
				c0.444,0.478,0.933,0.751,1.443,0.755c2.203,0.016,4.023-4.8,4.068-10.754c0.011-1.47-0.092-2.873-0.278-4.15
				c0.035-0.004,0.073,0,0.11-0.008C220.848,180.519,221.564,175.423,220.298,169.61z"/>
			<path fill="#BE4A2B" d="M147.418,66.655c-1.645,6.652-4.934,11.557-7.351,10.957c-2.417-0.595-3.042-6.465-1.401-13.116
				c1.644-6.649,4.932-11.556,7.35-10.958C148.436,54.134,149.061,60.006,147.418,66.655z"/>
			
				<ellipse transform="matrix(0.102 0.9948 -0.9948 0.102 187.7239 -78.8186)" fill="#CC6335" cx="137.519" cy="64.569" rx="17.186" ry="6.249"/>
			<path fill="#BE4A2B" d="M134.926,62.939c5.641,7.825,7.91,15.829,5.064,17.879c-2.847,2.052-9.728-2.627-15.364-10.455
				c-5.647-7.823-7.916-15.829-5.069-17.881C122.404,50.431,129.285,55.111,134.926,62.939z"/>
			<path fill="#5D3C37" d="M82.588,119.336c17.577,4.54,29.445,20.737,25.971,38.554c-0.483,2.48-1.244,4.837-2.226,7.057
				c3.809-4.263,6.561-9.57,7.733-15.591c3.476-17.821-8.485-33.678-25.971-38.555c-19.941-5.562-38.291,17.712-36.326,18.915
				C53.728,130.918,67.316,115.39,82.588,119.336z"/>
			<path fill="#5D3C37" d="M91.049,107.626c15.673,9.159,22.675,27.979,14.477,44.176c-1.141,2.26-2.516,4.316-4.065,6.182
				c4.827-3.064,8.919-7.419,11.691-12.893c8.202-16.202,1.017-34.718-14.476-44.176c-17.67-10.788-41.666,6.604-40.111,8.294
				C60.125,110.902,77.432,99.667,91.049,107.626z"/>
			<path fill="#CC6335" d="M194.666,147.113c0,23.512-22.296,42.57-44.992,42.57l0,0c-22.699,0-44.997-19.061-44.997-42.57
				l3.903-35.566c0-23.511,18.396-42.57,41.094-42.57l0,0c22.696,0,41.094,19.059,41.094,42.57L194.666,147.113z"/>
			<path fill="#C25826" d="M108.58,111.548l-3.903,35.567c0,22.875,21.106,41.532,43.152,42.527V69.023
				C125.99,70.023,108.58,88.678,108.58,111.548z"/>
			<path fill="#BE4A2B" d="M162.581,89.699c-8.146,0-14.747,6.607-14.747,14.748h-0.009c0-8.14-6.603-14.748-14.748-14.748
				c-8.144,0-14.745,6.607-14.745,14.748c0,8.145,6.601,14.75,14.745,14.75c1.552,0,3.041-0.244,4.445-0.686
				c-0.57,0.755-1.081,1.604-1.492,2.545c-2.006,4.6-0.975,9.49,2.305,10.921c3.084,1.345,7.058-0.849,9.187-4.941
				c2.097,4.075,6.022,6.286,9.107,4.979c3.291-1.396,4.373-6.273,2.419-10.896c-0.466-1.092-1.057-2.068-1.735-2.909
				c1.643,0.627,3.414,0.985,5.271,0.985c8.146,0,14.75-6.605,14.75-14.75C177.331,96.306,170.727,89.699,162.581,89.699z"/>
			<path fill="#4B3331" d="M105.218,140.245c-7.84,9.922-12.531,22.52-12.531,36.237c0,31.366,24.524,56.891,55.142,57.88v-72.485
				C130.602,161.32,115.306,153.013,105.218,140.245z"/>
			<path fill="#5D3C37" d="M194.127,140.245c-10.441,13.221-26.477,21.685-44.453,21.685c-0.617,0-1.23-0.035-1.845-0.056v72.485
				c0.612,0.021,1.228,0.048,1.845,0.048c31.473,0,56.985-25.934,56.985-57.928C206.659,162.765,201.966,150.167,194.127,140.245z"
				/>
			<path fill="#F9B233" d="M147.829,110.472v21.93c0,0,7.509-10.146,7.509-14.29C155.338,113.964,147.829,110.472,147.829,110.472z"
				/>
			<path fill="#F39200" d="M140.317,118.112c0,4.144,7.512,14.29,7.512,14.29v-21.93
				C147.829,110.472,140.317,113.964,140.317,118.112z"/>
			<path fill="#C25826" d="M151.441,70.51c-1.143,6.33-3.934,11.124-6.231,10.711c-2.302-0.417-3.243-5.883-2.101-12.214
				c1.141-6.329,3.932-11.122,6.23-10.711C151.643,58.714,152.582,64.179,151.441,70.51z"/>
			
				<ellipse transform="matrix(-0.637 0.7709 -0.7709 -0.637 293.0584 178.7514)" fill="#5D3C37" cx="104.441" cy="158.378" rx="11.148" ry="3.356"/>
			
				<ellipse transform="matrix(0.8758 0.4826 -0.4826 0.8758 91.8151 -33.6124)" fill="#5D3C37" cx="111.234" cy="161.639" rx="3.621" ry="12.022"/>
			<path fill="#5D3C37" d="M145.592,164.494c-0.943-0.078-1.902,1.16-2.68,3.207c-0.162-2.279-0.744-3.812-1.697-4.006
				c-1.099-0.225-2.437,1.377-3.593,4.014c0.155-2.901-0.321-4.961-1.415-5.254c-0.674-0.185-1.486,0.334-2.322,1.366
				c0.014-1.228-0.259-2.081-0.859-2.37c-1.236-0.601-3.499,1.363-5.681,4.682c1.251-3.576,1.43-6.407,0.247-7.026
				c-1.258-0.653-3.685,1.384-6.029,4.826c1.669-3.978,2.08-7.261,0.81-7.963c-1.622-0.897-5.354,2.739-8.339,8.122
				c-2.988,5.382-4.093,10.48-2.473,11.382c1.334,0.735,4.091-1.595,6.69-5.431c-1.864,4.4-2.331,8.119-0.95,8.838
				c1.323,0.688,3.926-1.588,6.372-5.338c-1.442,4.055-1.668,7.345-0.361,7.978c1.272,0.616,3.633-1.481,5.874-4.979
				c-0.565,4.021-0.151,7.069,1.196,7.438c1.326,0.357,3.183-1.988,4.713-5.646c-0.286,3.984,0.323,6.941,1.676,7.217
				c1.396,0.283,3.169-2.36,4.474-6.328c0.13,4.268,1.108,7.386,2.545,7.501c1.854,0.153,3.751-4.702,4.244-10.841
				C148.537,169.735,147.443,164.64,145.592,164.494z"/>
			
				<ellipse transform="matrix(0.637 0.7709 -0.7709 0.637 191.7346 -90.3637)" fill="#4B3331" cx="191.812" cy="158.394" rx="11.147" ry="3.358"/>
			<path fill="#4B3331" d="M179.24,151.117c-1.754,0.965-0.573,6.461,2.631,12.278s7.218,9.752,8.967,8.786
				c1.755-0.967,0.572-6.465-2.631-12.279C185.005,154.085,180.988,150.15,179.24,151.117z"/>
			<path fill="#4B3331" d="M173.904,155.964c-1.268,0.703-0.86,3.979,0.805,7.953c-2.344-3.438-4.768-5.472-6.023-4.815
				c-1.183,0.616-1.004,3.446,0.246,7.021c-2.181-3.312-4.439-5.273-5.679-4.674c-0.599,0.291-0.872,1.145-0.858,2.37
				c-0.838-1.032-1.646-1.552-2.324-1.368c-1.094,0.295-1.566,2.354-1.41,5.258c-1.159-2.637-2.495-4.238-3.598-4.016
				c-0.957,0.193-1.535,1.725-1.696,4.003c-0.778-2.044-1.735-3.284-2.681-3.204c-1.852,0.147-2.94,5.241-2.444,11.383
				c0.497,6.139,2.396,10.99,4.247,10.84c1.438-0.116,2.414-3.233,2.546-7.504c1.307,3.972,3.077,6.615,4.473,6.328
				c1.354-0.271,1.964-3.229,1.679-7.215c1.525,3.66,3.383,6.008,4.711,5.648c1.351-0.366,1.763-3.418,1.195-7.441
				c2.241,3.497,4.604,5.6,5.875,4.982c1.309-0.633,1.081-3.916-0.355-7.965c2.443,3.744,5.047,6.017,6.369,5.328
				c1.377-0.719,0.912-4.434-0.947-8.832c2.598,3.834,5.354,6.16,6.684,5.422c1.623-0.901,0.516-6-2.47-11.381
				C179.258,158.707,175.527,155.068,173.904,155.964z"/>
			<path fill="#C25826" d="M107.11,147.033c3.92-4.75,5.94-9.552,4.511-10.736c-1.43-1.18-5.765,1.713-9.686,6.458
				c-3.92,4.748-5.941,9.553-4.512,10.73C98.856,154.667,103.191,151.781,107.11,147.033z"/>
			<path fill="#C25826" d="M117.114,137.62c-1.751-0.967-5.764,2.967-8.97,8.784c-3.203,5.814-4.38,11.312-2.63,12.276
				c1.751,0.967,5.767-2.966,8.97-8.783C117.688,144.078,118.868,138.584,117.114,137.62z"/>
			<path fill="#C25826" d="M145.672,150.99c-0.947-0.072-1.904,1.163-2.682,3.207c-0.162-2.277-0.742-3.809-1.697-4.005
				c-1.101-0.224-2.438,1.382-3.595,4.019c0.157-2.902-0.32-4.961-1.413-5.258c-0.674-0.182-1.487,0.338-2.324,1.369
				c0.015-1.224-0.258-2.078-0.856-2.369c-1.24-0.601-3.5,1.361-5.682,4.678c1.251-3.572,1.428-6.406,0.246-7.025
				c-1.259-0.65-3.684,1.391-6.026,4.831c1.669-3.979,2.078-7.259,0.807-7.964c-1.621-0.899-5.353,2.738-8.339,8.119
				c-2.987,5.385-4.092,10.479-2.47,11.382c1.331,0.735,4.095-1.597,6.693-5.438c-1.865,4.408-2.335,8.133-0.954,8.85
				c1.321,0.689,3.923-1.59,6.369-5.336c-1.441,4.051-1.667,7.34-0.359,7.974c1.272,0.617,3.634-1.483,5.875-4.981
				c-0.566,4.023-0.155,7.074,1.195,7.438c1.326,0.356,3.186-1.985,4.714-5.644c-0.286,3.98,0.321,6.938,1.677,7.213
				c1.393,0.285,3.169-2.357,4.473-6.324c0.13,4.265,1.107,7.382,2.546,7.498c1.849,0.148,3.749-4.704,4.243-10.842
				C148.611,156.24,147.52,151.144,145.672,150.99z"/>
			<path fill="#CC6335" d="M197.691,138.791c-2.668-5.551-6.186-9.396-7.854-8.596c-1.354,0.652-1.079,4.158,0.493,8.418
				c-2.105-3.128-4.256-4.96-5.455-4.383c-1.387,0.667-1.064,4.314,0.6,8.7c-2.197-2.825-4.338-4.399-5.465-3.776
				c-1.623,0.895-0.533,5.992,2.436,11.383c2.973,5.396,6.693,9.041,8.32,8.145c1.168-0.643,0.924-3.453-0.396-6.982
				c1.652,2.023,3.212,3.088,4.165,2.629c1.354-0.65,1.077-4.156-0.493-8.414c2.104,3.127,4.256,4.959,5.457,4.381
				C201.167,149.488,200.357,144.337,197.691,138.791z"/>
			<path fill="#CC6335" d="M173.829,142.468c-1.271,0.707-0.861,3.988,0.81,7.965c-2.346-3.441-4.771-5.482-6.025-4.832
				c-1.188,0.619-1.01,3.453,0.244,7.029c-2.18-3.316-4.441-5.278-5.683-4.682c-0.599,0.295-0.874,1.145-0.858,2.369
				c-0.838-1.031-1.648-1.55-2.32-1.367c-1.096,0.295-1.566,2.354-1.414,5.258c-1.156-2.637-2.493-4.24-3.596-4.019
				c-0.952,0.194-1.534,1.728-1.696,4.002c-0.776-2.041-1.731-3.278-2.679-3.204c-1.852,0.152-2.942,5.249-2.443,11.387
				c0.495,6.138,2.396,10.988,4.242,10.842c1.438-0.115,2.415-3.233,2.546-7.498c1.308,3.968,3.079,6.609,4.476,6.324
				c1.354-0.276,1.961-3.229,1.68-7.211c1.527,3.653,3.386,6,4.711,5.641c1.348-0.365,1.762-3.413,1.195-7.438
				c2.24,3.495,4.603,5.598,5.875,4.979c1.307-0.635,1.078-3.924-0.359-7.979c2.443,3.752,5.05,6.027,6.371,5.342
				c1.377-0.719,0.91-4.437-0.946-8.838c2.595,3.836,5.353,6.16,6.685,5.426c1.621-0.899,0.519-5.998-2.472-11.383
				C179.18,145.207,175.449,141.57,173.829,142.468z"/>
			<path fill="#C25826" d="M131.17,102.474c0,0,4.119-5.603,8.499-3.785c4.377,1.824,3.347,6.229-0.002,6.184
				c-3.345-0.046-2.114-3.2-4.324-2.359C133.132,103.36,134.318,107.366,131.17,102.474z"/>
			<g>
				<path fill="#0A0505" d="M142.418,106.347c-0.875,2.703-3.701,4.207-6.314,3.363c-2.61-0.846-4.022-3.721-3.146-6.423
					c0.872-2.706,3.7-4.212,6.311-3.364C141.883,100.768,143.291,103.643,142.418,106.347z"/>
				
					<ellipse transform="matrix(0.4854 0.8743 -0.8743 0.4854 159.9733 -64.9742)" fill="#FFFFFF" cx="135.184" cy="103.415" rx="0.705" ry="1.028"/>
			</g>
			<path fill="#CC6335" d="M165.594,102.474c0,0-4.121-5.603-8.496-3.785c-4.377,1.824-3.346,6.229,0,6.184
				c3.348-0.046,2.116-3.2,4.322-2.359C163.631,103.36,162.447,107.366,165.594,102.474z"/>
			<g>
				<path fill="#0A0505" d="M154.346,106.347c0.877,2.703,3.701,4.207,6.313,3.363c2.608-0.846,4.024-3.721,3.147-6.423
					c-0.871-2.706-3.705-4.212-6.313-3.364C154.88,100.768,153.471,103.643,154.346,106.347z"/>
				
					<ellipse transform="matrix(0.4862 -0.8739 0.8739 0.4862 -7.3559 194.3229)" fill="#FFFFFF" cx="161.564" cy="103.417" rx="0.704" ry="1.026"/>
			</g>
			<path fill="#5D3C37" d="M161.844,237.824c-0.009,0.43-0.017,0.864-0.017,1.305c0,4.885,0.474,8.965,1.317,11.713
				c1.5-0.215,3.176-0.674,4.65-0.948c0.725-2.756,1.066-6.297,1.066-10.765c0-0.655-0.014-1.303-0.032-1.937
				c1.884-2.101,3.127-5.696,3.127-9.793c0-6.476-3.108-11.726-6.942-11.726c-3.832,0-6.943,5.25-6.943,11.726
				C158.072,231.945,159.607,235.876,161.844,237.824z"/>
			<path fill="#4B3331" d="M126.973,237.833c0,6.203,0.89,11.653,2.143,13.953c0.852,0.118,1.674,0.187,2.531,0.285
				c1.364-2.072,2.366-7.699,2.366-14.236c0-0.112-0.003-0.223-0.004-0.334c2.05-2.037,3.432-5.793,3.432-10.103
				c0-6.476-3.112-11.729-6.947-11.729c-3.834,0-6.946,5.254-6.946,11.729c0,4.31,1.381,8.063,3.432,10.104
				C126.977,237.613,126.973,237.721,126.973,237.833z"/>
		</g>
	</g>
</g>
<g id="Layer_3_copy_2" display="none">
	<circle display="inline" fill="#33B7B9" cx="142.369" cy="141.716" r="110.967"/>
</g>
<g id="Layer_2_1_" display="none">
	<g id="Layer_1_5_" display="inline">
		<g>
			<g>
				<g>
					<g>
						<path fill="#30AAAC" d="M111.455,124.934c0.062-0.094,0.062-0.309,0-0.647c-0.126-1.11-0.14-1.882-0.047-2.315
							c-0.123-1.665-0.164-2.636-0.115-2.915c0.049-0.279,0.131-0.428,0.254-0.463c-0.123-0.184-0.238-0.862-0.346-2.033
							c-0.109-1.174-0.133-1.961-0.071-2.361c-0.062-0.248-0.075-0.546-0.046-0.904c0.033-0.353,0.077-0.59,0.14-0.715
							c-0.062-0.06-0.106-0.294-0.14-0.693v-2.083l0.094-1.204v-1.017l0.277-1.434c-0.092-0.154-0.015-0.433,0.232-0.832
							c-0.31-0.648,0.014-1.45,0.973-2.408c0.029-0.063,0.384-0.263,1.061-0.602c0.555-0.03,0.934-0.03,1.135,0
							c0.2,0.03,0.51,0.06,0.926,0.092c0.416,0.033,0.731,0.078,0.949,0.137c0.554,0.189,0.832,0.683,0.832,1.484v0.784
							c0.062,1.111,0.092,1.946,0.092,2.5v1.017c0,0.403-0.029,0.633-0.092,0.696c0.029,0.124,0.029,0.414,0,0.877v0.789
							c-0.092,0.956-0.125,1.513-0.092,1.664l-0.324,2.455c0.246,0.09,1.125,0.139,2.637,0.139h2.312
							c1.356,0,2.216-0.008,2.569-0.026c0.355-0.016,0.588-0.113,0.694-0.297c0.106-0.188,0.191-0.433,0.254-0.742
							c0.062-0.308,0.106-0.662,0.14-1.064c0.029-0.4,0.062-0.648,0.092-0.738c0.184-0.154,0.232-0.817,0.141-1.991
							c0-0.091,0.061-0.325,0.184-0.693c0-0.433,0.06-0.927,0.183-1.48c0-0.587,0.099-1.103,0.301-1.551
							c0.203-0.448,0.349-0.825,0.442-1.134c0.15-0.523,0.525-0.97,1.111-1.34c0.768-0.558,1.51-0.912,2.217-1.065h0.835
							c0.833,0.154,1.111,0.942,0.833,2.361c0,0.463-0.123,1.062-0.371,1.804c-0.278,1.45-0.415,2.391-0.415,2.823
							c0,0.429-0.126,1.216-0.37,2.357c0.059,0.586,0.066,0.972,0.022,1.156c-0.048,0.188-0.071,0.418-0.071,0.697
							c-0.061,0.678-0.092,1.141-0.092,1.386c-0.062,0.925-0.093,1.667-0.093,2.221c0,0.557-0.048,1.156-0.138,1.803
							c0,0.652-0.11,1.314-0.324,1.992l-0.139,2.96c0,0.218,0.105,1.808,0.322,4.766c0.185,0.186,0.248,0.547,0.185,1.089
							c-0.062,0.538-0.169,0.919-0.323,1.133c-0.154,0.213-0.316,0.338-0.486,0.369c-0.168,0.029-0.424,0.045-0.763,0.045
							c-0.71,0.404-1.28,0.558-1.71,0.463c-0.371,0-0.758-0.121-1.158-0.37c-0.647-0.338-1.064-0.757-1.248-1.25
							c0-0.215-0.039-0.479-0.117-0.786c-0.076-0.309-0.086-0.641-0.022-0.995c0.063-0.354,0.087-0.73,0.069-1.134
							c-0.017-0.399-0.023-0.861-0.023-1.39l0.049-0.553c-0.062-0.125-0.031-0.325,0.092-0.604c0.121-0.278,0.137-0.493,0.047-0.647
							v-1.25l0.23-2.357c-0.309-0.218-0.323-0.726-0.045-1.528l0.092-0.37c-0.37,0.091-0.71,0.14-1.018,0.14
							c-0.863,0.214-1.82,0.324-2.868,0.324l-4.165-0.139v0.508c-0.062,0.494-0.077,1.235-0.046,2.222v0.877
							c0.031,0.802,0.046,1.942,0.046,3.427c0.121,1.604,0.184,2.759,0.184,3.468l-0.044,0.323c0,0.249-0.031,0.463-0.095,0.647
							c0,0.588-0.145,0.99-0.44,1.204c-0.294,0.214-0.763,0.354-1.41,0.414c-0.648,0.064-1.233-0.104-1.757-0.508
							c-0.743-0.37-1.127-0.677-1.158-0.925c-0.031-0.247-0.123-0.569-0.277-0.971c-0.154-0.246-0.265-0.539-0.323-0.878
							c0-0.987-0.017-1.543-0.048-1.664c-0.092-0.125-0.139-0.339-0.139-0.647C111.732,126.429,111.639,125.797,111.455,124.934z"/>
						<path fill="#30AAAC" d="M145.277,124.702l-1.715,0.138c-0.955,0-1.709-0.09-2.268-0.279l0.139,0.882
							c0.094,2.56,0.8,4.239,2.126,5.042c0.371,0.153,0.681,0.232,0.928,0.232c0.246,0,0.568-0.124,0.971-0.373
							c0.121-0.121,0.23-0.29,0.324-0.508c0.027-0.276,0.183-0.4,0.462-0.37c1.267-1.604,2.219-2.236,2.866-1.899
							c0.648,0.433,0.974,0.772,0.974,1.021c0,0.122-0.078,0.26-0.229,0.415v0.279c0,0.309-0.191,0.861-0.58,1.665
							c-0.387,0.802-0.797,1.479-1.227,2.037c-0.217,0.463-0.492,0.788-0.833,0.971c-0.989,0.618-2.038,0.862-3.147,0.742
							c-0.248-0.034-0.416-0.094-0.51-0.188c-0.246-0.061-0.429-0.077-0.555-0.046l-0.369-0.044c-0.277,0-0.51-0.064-0.695-0.186
							c-0.309-0.187-0.524-0.279-0.646-0.279c-0.804-0.309-1.289-0.542-1.458-0.692c-0.17-0.155-0.316-0.264-0.441-0.324
							c-0.121-0.064-0.416-0.388-0.879-0.972c-0.402-0.342-0.634-0.557-0.693-0.65c-0.184-0.275-0.348-0.475-0.484-0.6
							c-0.139-0.124-0.226-0.403-0.255-0.833c-0.124-0.154-0.187-0.356-0.187-0.602l-0.186-0.37c0-0.217-0.092-0.387-0.275-0.511
							c-0.188-0.184-0.279-0.414-0.279-0.693v-0.369c-0.123-0.063-0.154-0.25-0.092-0.558v-1.201l-0.047-0.417v-0.324
							c-0.031-0.121,0-0.384,0.092-0.787l-0.045-0.414c0.031-0.029,0.076-0.278,0.139-0.741c0.122-0.648,0.261-1.046,0.414-1.201
							v-0.417c0.031-0.095,0.047-0.216,0.047-0.37c0-0.154,0.039-0.324,0.116-0.507c0.077-0.188,0.316-0.882,0.718-2.083l0.74-1.624
							c0.215-0.46,0.556-0.971,1.018-1.525c0.031-0.155,0.152-0.433,0.37-0.833l0.603-0.557c0.185-0.275,0.464-0.478,0.834-0.599
							c0.43-0.219,0.754-0.324,0.969-0.324l1.297-0.188c0.152,0.034,0.26,0.049,0.322,0.049h0.604c0.68,0.06,1.233,0.2,1.668,0.414
							c0.924,0.279,1.6,0.632,2.035,1.065c0.954,1.081,1.434,2.112,1.434,3.1c0,0.99-0.152,1.836-0.465,2.544
							c-0.771,1.759-1.326,2.87-1.664,3.333C146.709,124.192,146.047,124.702,145.277,124.702z M145.412,118.041
							c0.125-0.463,0.105-1.051-0.045-1.759c-0.215-0.184-0.512-0.279-0.879-0.279c-0.465,0-0.881,0.433-1.252,1.295
							c-0.49,0.742-0.863,1.558-1.109,2.452h-0.046c-0.341,1.298-0.51,1.991-0.51,2.082c0.493,0.125,0.894,0.181,1.203,0.161
							c0.311-0.015,0.666-0.177,1.066-0.485C144.549,120.832,145.074,119.674,145.412,118.041z"/>
						<path fill="#30AAAC" d="M155.176,108.094l0.324-2.729l0.049-1.435c0-0.398,0.072-0.707,0.227-0.925l0.463-0.647
							c0.838-0.648,1.373-1.017,1.621-1.112c0.248-0.089,0.609-0.083,1.086,0.023c0.48,0.109,0.766,0.21,0.857,0.301l0.508,0.417
							c0.277,0.155,0.416,0.4,0.416,0.743c0.154,0.183,0.201,0.324,0.142,0.414c-0.187,0.217-0.493,2.036-0.929,5.46l-0.366,6.292
							l-0.231,1.25c0,0.402,0.018,0.631,0.047,0.691v0.837c-0.062,0.616-0.123,1-0.187,1.156c0,0.153-0.031,0.324-0.093,0.507
							c0.062,0.06,0.093,0.301,0.093,0.715c0,0.418-0.05,0.675-0.14,0.765c-0.062,0.493-0.094,0.963-0.094,1.412
							c0,0.448,0.039,0.912,0.115,1.389c0.076,0.479,0.102,0.945,0.068,1.41l0.188,1.756v0.698c0.059,0.554,0.092,1.001,0.092,1.341
							l0.232,2.405l0.184,1.25c0.092,0.523,0.055,1.033-0.115,1.525c-0.17,0.493-0.426,0.802-0.764,0.926
							c-0.957,0.399-2.006,0.14-3.146-0.787h-0.37c-0.216-0.249-0.388-0.587-0.509-1.017c-0.25-0.125-0.354-0.339-0.323-0.648
							s-0.028-0.587-0.187-0.833c-0.15-0.248-0.229-0.463-0.229-0.65c0-0.4-0.033-0.754-0.096-1.062l0.049-0.37
							c-0.096-0.094-0.139-0.232-0.139-0.417l-0.096-0.832v-0.373c0-0.245-0.01-0.414-0.021-0.508
							c-0.016-0.09,0.021-0.245,0.117-0.462c-0.096-0.121-0.107-0.569-0.049-1.341c0.188-2.375,0.277-4.011,0.277-4.902l0.049-1.112
							v-1.345c0.027-0.738,0.053-1.678,0.068-2.82c0.016-1.141,0.068-1.757,0.162-1.853l-0.049-0.414
							c0-0.742,0.117-1.75,0.348-3.032C155.059,108.872,155.176,108.183,155.176,108.094z"/>
						<path fill="#30AAAC" d="M165.079,115.312c-0.187-0.987-0.28-1.668-0.28-2.037v-0.37c0-0.398,0.264-0.771,0.785-1.11
							l0.604-0.279c0.029-0.03,0.465-0.089,1.295-0.184c0.434,0,0.697,0.007,0.787,0.021c0.094,0.017,0.299,0.102,0.623,0.256
							c0.328,0.154,0.549,0.293,0.674,0.414c0.246,0.496,0.369,0.971,0.369,1.434v1.25l0.324-0.28l0.463-0.508
							c0.062-0.12,0.262-0.294,0.604-0.508c0.338-0.215,0.848-0.369,1.525-0.463c0.924-0.154,1.941-0.09,3.057,0.185
							c0.521,0.063,0.844,0.17,0.969,0.324c0-0.06,0.264-0.016,0.787,0.139c-0.031,0.063,0.037,0.124,0.208,0.185
							c0.169,0.064,0.407,0.154,0.717,0.28l0.325,0.368l0.184,0.558c0.188,0.06,0.355,0.294,0.512,0.693l0.463,1.714
							c0,0.183,0.076,0.478,0.229,0.876v1.112c0.031,0.338,0.049,0.704,0.049,1.087c0,0.384-0.031,0.855-0.095,1.412v0.554
							l-0.046,0.324v0.095c-0.062,0.124-0.062,0.259,0,0.413c-0.123,0.957-0.325,1.712-0.604,2.266l-0.879,2.177
							c-0.154,0.155-0.287,0.37-0.395,0.648c-0.109,0.278-0.531,0.757-1.275,1.434c-1.51,1.42-3.189,2.128-5.041,2.128
							c-0.061,0.03-0.168,0.124-0.322,0.278c0,0.125,0.045,0.215,0.14,0.279l0.187,3.143c0,0.772,0.027,1.175,0.094,1.205
							c0.029,0.153,0.074,0.663,0.138,1.525c0.062,0.866,0.153,1.404,0.278,1.619l0.091,1.295v0.417
							c-0.06,0.493-0.185,0.877-0.369,1.156c-0.187,0.277-0.472,0.463-0.854,0.558c-0.387,0.09-0.864,0.099-1.436,0.021
							c-0.57-0.078-0.919-0.207-1.041-0.395c-0.432-0.584-0.725-1.141-0.879-1.664c-0.279-1.141-0.416-2.221-0.416-3.238
							c-0.096-0.557-0.139-1.081-0.139-1.574c-0.062-0.553-0.154-0.986-0.277-1.295s-0.184-0.538-0.184-0.692
							c-0.219-1.329-0.324-2.053-0.324-2.177c0-0.339-0.077-0.693-0.232-1.065c-0.156-1.387-0.232-2.233-0.232-2.541l-0.416-4.998
							v-0.925c-0.092-0.125-0.184-0.987-0.271-2.591C165.324,119.86,165.168,118.21,165.079,115.312z M175.624,118.967l-0.093-1.065
							c0-0.493-0.137-0.912-0.415-1.25c-0.123-0.061-0.246-0.216-0.372-0.464h-0.045c0-0.029-0.076-0.067-0.23-0.112
							c-0.154-0.049-0.279-0.042-0.371,0.023c-0.154,0.06-0.617,0.478-1.389,1.249l-0.6,1.341c-0.342,0.463-0.773,1.371-1.297,2.729
							c-0.031,0.029-0.031,0.2,0,0.508c0.06,0.404,0.152,1.404,0.275,3.008c0.246,2.282,0.389,3.623,0.417,4.025l0.509-0.095
							c0.096-0.089,0.31-0.184,0.646-0.275c0.436-0.492,0.758-0.85,0.977-1.065l0.922-1.478c0-0.155,0.1-0.457,0.301-0.905
							c0.199-0.447,0.346-0.855,0.438-1.228c0-0.059,0.029-0.304,0.096-0.737c0.094-0.647,0.137-1.28,0.137-1.897
							c0.093,0,0.133-0.075,0.117-0.23c-0.018-0.154-0.024-0.339-0.024-0.557v-1.523h0.002V118.967z"/>
					</g>
					<g>
						<path fill="#30AAAC" d="M112.246,157.453l0.277-2.037c0-0.398,0.062-0.803,0.184-1.205c0-0.521,0.261-1.31,0.785-2.355
							c0-0.062,0.141-0.463,0.419-1.204c0-0.062,0.293-0.972,0.878-2.729l0.555-1.342c0-0.125,0.078-0.359,0.232-0.719
							c0.154-0.354,0.27-0.708,0.345-1.062c0.079-0.354,0.177-0.699,0.302-1.043c0.432-0.83,0.815-1.54,1.157-2.126
							c0.648-1.231,1.851-1.788,3.61-1.665l1.478,0.14c0.925,0.244,1.635,0.508,2.13,0.783c0.707,0.279,1.188,0.579,1.432,0.903
							c0.248,0.325,0.355,0.854,0.324,1.597c0.031,0.368,0.125,1.974,0.279,4.812c0.154,2.84,0.232,4.274,0.232,4.305l0.23,1.988
							c0,0.184,0.339,2.405,1.018,6.664l1.019,3.236c0.616,1.729,0.948,2.628,0.993,2.707c0.048,0.074,0.178,0.404,0.394,0.995
							c0.34,1.017,0.048,1.692-0.881,2.036c-0.829,0.119-1.449,0.045-1.849-0.232c-0.154,0-0.509-0.141-1.064-0.417
							c-0.062-0.155-0.238-0.298-0.531-0.438c-0.296-0.139-0.485-0.256-0.579-0.348c-0.339-0.095-0.647-0.57-0.923-1.433
							c-0.094-0.063-0.264-0.31-0.512-0.741c-0.216-0.436-0.277-0.789-0.185-1.066c-0.216-0.272-0.321-0.847-0.321-1.709
							c-0.281-0.463-0.418-1.189-0.418-2.177s-0.154-1.758-0.463-2.313c-1.574,0.709-3.252,1.099-5.043,1.158
							c-0.337,0-0.506,0.063-0.506,0.185c0,0.278-0.094,0.771-0.281,1.479l-0.785,5.09c0.309,2.281,0.031,3.486-0.834,3.61
							c-0.246,0-0.654,0.06-1.225,0.185c-0.571,0.121-1.04,0.018-1.412-0.322c-0.711-0.403-1.209-0.811-1.503-1.229
							c-0.293-0.416-0.425-0.885-0.394-1.41c0.029-0.432,0.105-1.354,0.232-2.776c0.059-0.06,0.084-0.409,0.068-1.041
							c-0.017-0.629,0.021-1.115,0.114-1.457l0.739-2.865c0.094-0.063,0.217-0.528,0.372-1.391c-0.031-0.06-0.049-0.216-0.049-0.464
							L112.246,157.453z M118.488,156.109c0.062-0.061,0.426-0.132,1.089-0.207c0.662-0.076,1.442-0.347,2.337-0.811
							c0.029,0,0.014-0.368-0.047-1.11c-0.092-1.296-0.172-2.222-0.23-2.774c-0.062-0.742-0.123-1.266-0.186-1.574
							c0-0.588-0.233-1.803-0.693-3.654l-2.037,6.895c-0.433,1.912-0.602,3.084-0.508,3.519L118.488,156.109z"/>
						<path fill="#30AAAC" d="M138.386,163.141c0.278-0.647,0.569-1.403,0.879-2.269l1.019-2.59l0.416-0.785
							c-6.262,7.399-6.199,7.324,0.183-0.233l1.202-2.496c0.094-0.095,0.172-0.294,0.231-0.603l1.203-1.806l0.926-0.833
							c0.187-0.094,0.387-0.249,0.603-0.463c0.062,0.062,0.31,0,0.741-0.186c0.277,0,0.833,0.045,1.664,0.141l0.927,0.324
							l2.08,1.244c0.435,0.435,0.617,0.896,0.556,1.392c-0.029,0.368-0.199,1.39-0.509,3.056c-0.245,1.323-0.601,2.854-1.063,4.582
							c-0.246,1.385-0.322,2.387-0.229,3.004c0.094,0.615,0.139,0.971,0.139,1.063c0.062,0.187,0.146,0.448,0.256,0.787
							c0.104,0.338,0.129,0.522,0.065,0.554c0.218,0.031,0.323,0.188,0.323,0.463c0.249,0.648,0.335,1.09,0.256,1.317
							c-0.077,0.231-0.279,0.485-0.604,0.765c-0.322,0.279-0.9,0.417-1.73,0.417c-0.497-0.063-0.887-0.094-1.184-0.094
							c-0.293,0-0.654-0.108-1.086-0.323c-0.896-0.646-1.403-1.312-1.526-1.988c-0.156-0.434-0.248-0.756-0.279-0.972
							c-0.028-0.218-0.044-0.37-0.044-0.464c-0.156-0.926-0.141-1.883,0.044-2.869c0.031-0.367,0.171-1.125,0.417-2.266
							c0.248-1.172,0.492-2.1,0.741-2.778c0-0.679-0.019-1.032-0.047-1.062l-1.806,3.518c-0.186,0.492-0.355,0.861-0.508,1.111
							c-0.156,0.154-0.23,0.338-0.23,0.554c-0.249,0.248-0.479,0.741-0.693,1.479c0,0.217-0.02,0.371-0.048,0.461
							c-0.029,0.097-0.146,0.315-0.346,0.672c-0.202,0.357-0.342,0.688-0.415,0.996c-0.081,0.311-0.271,0.647-0.582,1.018
							c0,0.126-0.199,0.758-0.6,1.898c-0.032,0.121-0.355,0.229-0.973,0.324l-0.879-0.097c-0.215-0.06-0.725-0.215-1.525-0.463
							c-0.802-0.245-1.243-0.368-1.32-0.368c-0.078,0-0.147-0.029-0.208-0.096c-0.524-0.12-0.848-0.555-0.971-1.295v-0.738
							c0.152-0.186,0.169-0.537,0.046-1.064c0.062-0.31,0.106-0.662,0.14-1.064c-0.092-0.061-0.108-0.166-0.048-0.324
							c0.062-0.986,0.094-1.679,0.094-2.078v-1.109c0.061-1.021,0.139-2.112,0.23-3.289c0.094-1.17,0.139-1.926,0.139-2.268v-0.925
							c-0.062-0.153-0.076-0.508-0.045-1.062c-0.061-0.588-0.139-0.948-0.23-1.088c-0.095-0.142-0.126-0.348-0.095-0.625
							l0.325-0.787c0.491-0.4,1.324-0.479,2.498-0.23c0.524,0.092,1.248,0.398,2.174,0.924c0.061,0.094,0.215,0.295,0.463,0.604
							c0.186,0,0.293,0.264,0.324,0.784c-0.031,0.279-0.046,0.511-0.046,0.693c-0.033,0.033-0.203,0.741-0.509,2.131
							c-0.68,4.287-1.02,6.615-1.02,6.985C138.293,162.723,138.323,162.987,138.386,163.141z"/>
						<path fill="#30AAAC" d="M157.539,138.667c0.031-0.029,0.324-0.078,0.88-0.138c0.894-0.154,1.519-0.101,1.874,0.163
							c0.354,0.263,0.609,0.545,0.764,0.854c0.062,0.987-0.076,2.268-0.416,3.841c-0.341,1.016-0.633,1.772-0.879,2.266l-0.464,0.69
							c-0.092,0.25-0.294,0.516-0.603,0.789c-0.307,0.277-0.53,0.41-0.67,0.395c-0.142-0.015-0.371-0.124-0.693-0.322
							c-0.324-0.201-0.518-0.346-0.579-0.44c-0.03-0.095-0.062-0.199-0.092-0.324l-0.231-0.925l-0.926-1.157
							c-0.186-0.368-0.277-0.741-0.277-1.108c-0.094-0.863,0.017-1.524,0.324-1.99c0-0.064,0.045-0.214,0.137-0.463
							C155.842,140.117,156.459,139.406,157.539,138.667z M156.15,159.441c0-0.277,0.054-0.654,0.162-1.133
							c0.105-0.479,0.139-0.811,0.092-0.995s-0.051-0.712-0.021-1.573c0.092-0.369,0.107-0.789,0.047-1.25
							c-0.218-0.679-0.277-1.172-0.188-1.479c0.092-0.309,0.293-0.655,0.604-1.045c0.309-0.383,0.646-0.647,1.018-0.809
							c0.373-0.148,0.928-0.137,1.668,0.049c0.184,0.09,0.492,0.399,0.924,0.924c0.094,0.096,0.207,0.447,0.346,1.064
							c0.141,0.616,0.232,1.287,0.279,2.016c0.045,0.725,0.084,1.772,0.115,3.146c0.029,1.374,0.092,3.207,0.186,5.505
							c0.092,2.301,0.113,3.729,0.066,4.281c-0.047,0.559-0.246,0.979-0.602,1.271c-0.354,0.293-0.662,0.354-0.926,0.186
							c-0.263-0.169-0.531-0.287-0.811-0.348c-0.492,0-0.926-0.196-1.297-0.604c-0.123-0.029-0.414-0.176-0.877-0.438
							c-0.465-0.265-0.76-0.748-0.879-1.461c-0.154-0.306-0.205-1.312-0.142-3.004v-1.668l0.231-1.57v-1.066H156.15z"/>
						<path fill="#30AAAC" d="M167.764,149.494h0.092c0.4-0.125,1.049-0.078,1.941,0.139c0.311,0.091,0.495,0.973,0.557,2.636
							c0.123,1.267,0.188,2.142,0.188,2.616c0,0.48,0.018,0.762,0.045,0.855v3.098l0.23,0.051c0-0.033,0.029-0.219,0.095-0.559
							c0.153-0.863,0.321-1.523,0.507-1.988c0.125-0.125,0.191-0.277,0.211-0.463c0.018-0.185,0.1-0.389,0.254-0.604
							c0.188-0.861,0.646-1.988,1.391-3.378c0.246-0.582,0.483-1.024,0.717-1.317c0.232-0.291,0.585-0.395,1.064-0.301
							c0.477,0.096,0.868,0.264,1.18,0.51c0.246,0.028,0.539,0.078,0.879,0.141l1.343,0.275c0.124,0.029,0.293,0.133,0.509,0.301
							c0.217,0.172,0.309,0.377,0.277,0.621c-0.029,0.25-0.061,0.979-0.094,2.179v0.741l-0.186,1.805
							c0,0.49,0.029,0.786,0.096,0.878l0.184,0.14l0.371-2.127c0-0.217,0.092-0.418,0.277-0.604l0.557-1.339
							c0-0.096,0.093-0.295,0.277-0.604c0.062-0.214,0.209-0.521,0.438-0.926c0.229-0.398,0.531-0.787,0.9-1.154
							c0-0.246,0.277-0.414,0.834-0.51c0.432-0.464,1.141-0.479,2.129-0.046c0.186,0,0.354,0.028,0.509,0.091
							c0,0.062,0.114,0.107,0.348,0.141c0.229,0.028,0.517,0.231,0.854,0.603v0.509c0,0.309,0.017,0.538,0.048,0.691
							c-0.031,0.219-0.017,0.492,0.045,0.837v0.554c0.032,0.249,0.108,1.016,0.231,2.312v0.513c0.094,0.185,0.131,0.376,0.114,0.575
							c-0.014,0.201-0.021,0.41-0.021,0.625c0.095,0.095,0.172,0.348,0.229,0.764c0.062,0.413,0.031,0.825-0.093,1.225l0.093,0.418
							v1.295c0.154,0.125,0.229,0.312,0.229,0.56l0.142,0.78c0,0.56,0.075,1.111,0.229,1.669v0.509l0.23,1.201v0.277l-0.045,0.463
							c0,0.338-0.188,0.588-0.559,0.742c-0.062,0.029-0.146,0.074-0.254,0.139c-0.105,0.061-0.287,0.091-0.531,0.091l-0.973-0.323
							l-0.461-0.322c-0.248,0.062-0.572-0.047-0.973-0.324c0-0.277-0.109-0.523-0.326-0.741c-0.369-0.12-0.506-0.37-0.414-0.738
							c0.03-0.028-0.047-0.198-0.229-0.508c0.062-0.063,0.016-0.403-0.141-1.021c0-0.273-0.021-0.547-0.067-0.811
							c-0.048-0.262-0.077-0.529-0.095-0.812c-0.016-0.271-0.068-0.521-0.162-0.734c0.029,0,0.048-0.109,0.048-0.324
							c0-0.218-0.031-0.418-0.095-0.604v-1.063l-0.229-1.851l-0.69,2.127c-0.463,1.201-0.695,1.854-0.695,1.945l-1.479,4.625
							c-0.096,0.187-0.271,0.394-0.535,0.627c-0.262,0.229-0.484,0.346-0.668,0.346c-0.062-0.096-0.227-0.139-0.486-0.139
							c-0.262,0-0.576,0.078-0.95,0.231c-1.048,0.12-1.647-0.204-1.802-0.976l-0.096-1.062l0.047-1.063
							c-0.062-0.09-0.092-0.31-0.092-0.648l-0.049-0.646v-1.987l-0.094-2.36v-2.268c-0.896,2.439-1.449,4.025-1.664,4.769
							l-1.714,5.507c-0.341,0.895-0.954,1.373-1.853,1.434l-0.509,0.092c-0.679,0.152-1.126,0.049-1.341-0.325l-0.463-0.782
							c-0.123-0.683-0.246-1.065-0.369-1.16c-0.062-0.428-0.217-0.877-0.464-1.34l-0.231-1.111c0-0.096-0.029-0.229-0.092-0.418
							v-0.832c-0.094-0.243-0.17-0.743-0.23-1.502c-0.062-0.758-0.077-1.366-0.045-1.825c-0.127-0.373-0.155-0.837-0.098-1.392V157
							c-0.152-0.713-0.229-1.789-0.229-3.237v-0.647c0.15-0.926,0.229-1.551,0.229-1.875c0-0.322,0.079-0.572,0.232-0.74
							C166.436,150.317,166.932,149.986,167.764,149.494z"/>
						<path fill="#30AAAC" d="M192.007,166.24c-0.092-1.324-0.077-2.341,0.048-3.053c0.709-2.591,1.264-4.564,1.666-5.923
							c0-0.03,0.105-0.414,0.324-1.156c0.337-1.077,0.646-1.79,0.924-2.128c0-0.096,0.123-0.339,0.37-0.742
							c0-0.273,0.337-0.753,1.019-1.434l0.512-0.553c0.555-0.494,1.34-0.742,2.357-0.742c0.369-0.062,0.803-0.045,1.297,0.049
							c0.895,0.398,1.91,1,3.053,1.804l0.464,0.278c0.247,0.061,0.479,0.139,0.69,0.229c0.123,0,0.389,0.064,0.787,0.186
							l0.604,0.465c0.276,0.186,0.444,0.445,0.508,0.785c-0.185,0.186-0.278,0.785-0.278,1.805
							c-0.123,1.329-0.028,2.885,0.278,4.672c0.121,1.668,0.415,3.428,0.879,5.275c0,0.154,0.114,0.57,0.349,1.249
							c0.231,0.68,0.33,1.11,0.301,1.296c0,0.771-0.727,1.156-2.178,1.156c-1.418-0.092-2.404-0.707-2.961-1.85
							c-0.03-0.125-0.14-0.373-0.324-0.74c-0.37-0.371-0.568-0.68-0.602-0.926L202,165.593c-0.123-0.092-0.197-0.215-0.23-0.371
							c-0.369,0.523-0.832,1.066-1.389,1.621l-0.972,1.527l-0.371,0.367c-0.029,0.127-0.354,0.27-0.972,0.441
							c-0.616,0.17-1.063,0.191-1.34,0.066c-0.156,0-0.373-0.029-0.647-0.095l-2.037-0.834c-0.464-0.118-0.804-0.337-1.019-0.647
							c-0.403-0.244-0.604-0.381-0.604-0.412C192.115,166.734,191.977,166.396,192.007,166.24z M201.768,155.046l-0.229-0.418
							c-0.369,0-1.062,0.758-2.081,2.268c-1.202,1.633-2.053,3.257-2.545,4.855c-0.339,0.957-0.54,1.744-0.603,2.36
							c0,0.896,0.186,1.479,0.557,1.759c0.152,0,0.332-0.107,0.529-0.324c0.201-0.215,0.316-0.369,0.35-0.463
							c0.215-0.123,0.49-0.479,0.833-1.064c0.397-0.584,0.614-0.893,0.646-0.922l0.416-0.883l0.787-1.342
							c-0.062,0,0.03-0.354,0.277-1.063c0.371-0.647,0.568-1.142,0.602-1.479L201.768,155.046z"/>
						<path fill="#30AAAC" d="M213.014,144.451c0.092-0.277,0.121-0.541,0.092-0.787c-0.029-0.248-0.02-0.859,0.045-1.851
							c0.156-0.276,0.17-0.817,0.048-1.621c0-0.463,0.185-0.949,0.557-1.457c0.372-0.509,0.771-0.884,1.202-1.133v0.044
							c0.123-0.12,0.4-0.215,0.832-0.274c1.049-0.154,1.805,0.169,2.27,0.971c-0.123,0.214-0.187,0.907-0.187,2.082v4.719
							c0.03,0.771,0.048,1.818,0.048,3.146v1.758l0.186,3.004c0,0.805,0.045,1.605,0.14,2.408c0,1.479,0.028,2.375,0.093,2.687
							c0.062,0.308,0.092,0.521,0.092,0.647v0.74c0,0.678,0.031,1.172,0.092,1.479c0,0.311,0.076,0.633,0.231,0.97
							c-0.155,0.464-0.155,0.987,0,1.575c0.153,0.369,0.202,0.847,0.14,1.434c0.186,0.37,0.246,0.861,0.186,1.479l0.139,0.274
							l0.096,0.418c0.123,0.401,0.067,0.873-0.162,1.412c-0.232,0.537-0.695,0.905-1.391,1.109
							c-0.691,0.197-1.473-0.133-2.335-0.995c-0.032-0.094-0.2-0.231-0.509-0.417c-0.371-0.215-0.682-0.941-0.928-2.177
							c-0.152-0.304-0.229-0.63-0.229-0.97c-0.343-0.275-0.508-0.693-0.508-1.246v-1.022c-0.032-0.462-0.097-0.769-0.188-0.922
							c-0.095-0.125-0.17-0.448-0.23-0.976l0.098-3.1c0-1.018-0.033-1.804-0.098-2.359v-3.146c-0.094-1.019-0.139-1.796-0.139-2.338
							c0-0.538,0.107-1.628,0.324-3.263c0-0.125-0.05-0.295-0.14-0.508C212.963,145.792,213.014,145.189,213.014,144.451z"/>
						<path fill="#30AAAC" d="M223.746,152.916l-0.049-0.369c0-0.153,0.093-0.385,0.277-0.691c0.152-0.249,0.385-0.537,0.691-0.881
							c0.309-0.34,0.493-0.539,0.557-0.602c0.4-0.276,0.76-0.447,1.065-0.512c0.214-0.154,0.678-0.305,1.388-0.463h0.51
							c0.184,0,0.32,0.018,0.416,0.049c0.092,0.029,0.416,0.09,0.971,0.186c0.863-0.062,1.729,0.047,2.593,0.322
							c0.214,0.154,0.384,0.279,0.509,0.369c0.122,0.096,0.301,0.227,0.531,0.396c0.232,0.17,0.51,0.369,0.834,0.599
							c0.322,0.233,0.761,0.597,1.316,1.089c1.108,1.021,1.465,2.053,1.062,3.1L236,156.389c-0.459,0.463-0.955,0.614-1.479,0.463
							l-0.416-0.045c-0.342-0.188-0.615-0.56-0.836-1.11c-0.273-0.248-0.461-0.419-0.553-0.514
							c-0.865-0.863-1.791-1.416-2.775-1.663c-0.525,0.028-1.035,0.31-1.527,0.831c-0.491,0.527-0.479,1.205,0.049,2.038
							c0,0.276,0.029,0.444,0.094,0.507c0.061,0.062,0.197,0.295,0.414,0.691c0.402,0.498,0.711,0.91,0.926,1.25
							c0.152,0.435,0.4,0.74,0.74,0.928l0.275,0.604c0.094,0.029,0.525,0.293,1.295,0.787c0.188,0.154,0.373,0.383,0.559,0.69
							l1.805,1.987c0.186,0.186,0.371,0.479,0.557,0.881c0.37,0.369,0.561,0.707,0.576,1.018c0.015,0.311-0.055,0.646-0.208,1.018
							c0,0.344-0.147,0.619-0.438,0.838c-0.293,0.215-0.51,0.392-0.646,0.527c-0.139,0.141-0.656,0.487-1.551,1.041
							c-0.062,0.152-0.771,0.512-2.129,1.064l-1.389,0.369c-0.031,0-0.172,0.025-0.417,0.07c-0.248,0.045-0.649,0.067-1.202,0.067
							h-0.369c-0.153,0.063-0.51,0.095-1.062,0.095c-0.989-0.031-1.854-0.263-2.594-0.693c-0.153-0.062-0.245-0.139-0.276-0.231
							c-0.617-0.985-0.926-1.403-0.926-1.25c-0.123-0.153-0.207-0.463-0.255-0.922c-0.046-0.463-0.084-0.748-0.114-0.856
							c-0.029-0.104,0.018-0.269,0.139-0.486c0.277-0.492,0.834-0.523,1.666-0.092l0.604,0.324c0.271,0.274,0.611,0.445,1.014,0.51
							c0.219-0.031,0.479-0.031,0.788,0c0.31,0.027,0.604,0.027,0.882,0l0.831-0.373h-0.044c0.026-0.03,0.121-0.053,0.271-0.065
							c0.156-0.017,0.39-0.067,0.695-0.163c0.896-0.279,1.248-0.708,1.064-1.297l-0.324-0.553c-0.338-0.713-0.711-1.221-1.111-1.528
							l-0.369-0.229c-1.232-1.203-2.207-2.221-2.914-3.053c-0.094-0.064-0.293-0.234-0.603-0.513
							c-0.278-0.274-0.495-0.737-0.647-1.388c-0.278-0.586-0.435-0.985-0.463-1.205v-0.877c0-0.062-0.018-0.248-0.047-0.557
							c-0.033-0.307-0.021-0.576,0.021-0.811c0.045-0.229,0.045-0.407,0-0.53C223.533,153.858,223.59,153.501,223.746,152.916z"/>
					</g>
					<g>
						<path fill="#FFFFFF" d="M110.612,122.664c0.062-0.093,0.062-0.307,0-0.647c-0.124-1.111-0.14-1.882-0.047-2.315
							c-0.124-1.665-0.162-2.636-0.116-2.915c0.049-0.279,0.133-0.429,0.255-0.463c-0.122-0.184-0.239-0.863-0.345-2.033
							c-0.11-1.175-0.131-1.961-0.07-2.361c-0.061-0.248-0.076-0.545-0.047-0.904c0.031-0.354,0.078-0.59,0.139-0.715
							c-0.061-0.06-0.107-0.294-0.139-0.692v-2.083l0.094-1.205v-1.017l0.277-1.433c-0.092-0.155-0.016-0.433,0.231-0.833
							c-0.31-0.648,0.015-1.449,0.973-2.406c0.029-0.063,0.384-0.264,1.063-0.603c0.553-0.029,0.932-0.029,1.133,0
							c0.199,0.03,0.511,0.06,0.926,0.091c0.414,0.033,0.73,0.079,0.949,0.138c0.553,0.188,0.833,0.682,0.833,1.484v0.783
							c0.062,1.111,0.09,1.946,0.09,2.5v1.017c0,0.403-0.027,0.633-0.09,0.696c0.029,0.124,0.029,0.413,0,0.877v0.787
							c-0.095,0.958-0.125,1.514-0.095,1.666l-0.324,2.454c0.247,0.09,1.125,0.139,2.637,0.139h2.314
							c1.355,0,2.215-0.008,2.567-0.025c0.356-0.016,0.589-0.113,0.694-0.298c0.108-0.188,0.191-0.433,0.254-0.742
							c0.062-0.309,0.107-0.662,0.141-1.066c0.03-0.399,0.062-0.648,0.092-0.737c0.186-0.155,0.231-0.817,0.139-1.992
							c0-0.091,0.062-0.325,0.184-0.693c0-0.433,0.062-0.926,0.186-1.48c0-0.587,0.1-1.103,0.301-1.551
							c0.201-0.449,0.348-0.825,0.439-1.133c0.152-0.523,0.525-0.972,1.111-1.341c0.769-0.557,1.512-0.911,2.219-1.065h0.834
							c0.834,0.154,1.111,0.941,0.834,2.361c0,0.463-0.125,1.062-0.373,1.804c-0.275,1.449-0.414,2.391-0.414,2.823
							c0,0.429-0.125,1.216-0.371,2.357c0.061,0.586,0.068,0.972,0.023,1.156c-0.047,0.188-0.069,0.418-0.069,0.697
							c-0.062,0.678-0.092,1.14-0.092,1.386c-0.062,0.926-0.093,1.667-0.093,2.221c0,0.557-0.048,1.156-0.139,1.804
							c0,0.651-0.109,1.314-0.324,1.991l-0.14,2.96c0,0.218,0.106,1.808,0.323,4.766c0.185,0.185,0.247,0.546,0.185,1.088
							c-0.063,0.539-0.169,0.919-0.323,1.134c-0.155,0.214-0.314,0.338-0.486,0.369c-0.17,0.03-0.423,0.045-0.764,0.045
							c-0.708,0.402-1.279,0.557-1.709,0.463c-0.373,0-0.759-0.121-1.158-0.369c-0.648-0.339-1.065-0.758-1.247-1.25
							c0-0.215-0.04-0.479-0.118-0.787c-0.077-0.308-0.084-0.64-0.021-0.994c0.063-0.354,0.084-0.731,0.069-1.134
							c-0.019-0.399-0.025-0.861-0.025-1.39l0.049-0.554c-0.062-0.125-0.03-0.324,0.092-0.603c0.124-0.279,0.137-0.493,0.049-0.647
							v-1.25l0.231-2.357c-0.311-0.218-0.324-0.726-0.049-1.528l0.093-0.37c-0.368,0.091-0.71,0.14-1.017,0.14
							c-0.862,0.214-1.821,0.323-2.869,0.323l-4.162-0.139v0.508c-0.062,0.494-0.08,1.235-0.049,2.221v0.878
							c0.031,0.802,0.049,1.941,0.049,3.427c0.119,1.603,0.181,2.759,0.181,3.467l-0.044,0.324c0,0.249-0.031,0.463-0.095,0.648
							c0,0.586-0.146,0.99-0.438,1.204c-0.293,0.215-0.764,0.354-1.412,0.414c-0.648,0.064-1.233-0.104-1.758-0.509
							c-0.74-0.369-1.127-0.677-1.156-0.924c-0.031-0.247-0.123-0.569-0.277-0.971c-0.154-0.246-0.264-0.538-0.324-0.879
							c0-0.986-0.018-1.543-0.047-1.664c-0.094-0.125-0.139-0.339-0.139-0.647C110.89,124.161,110.797,123.528,110.612,122.664z"/>
						<path fill="#FFFFFF" d="M144.434,122.432l-1.713,0.139c-0.957,0-1.708-0.091-2.266-0.279l0.137,0.882
							c0.096,2.561,0.803,4.24,2.129,5.042c0.371,0.153,0.68,0.232,0.926,0.232s0.569-0.124,0.973-0.373
							c0.123-0.121,0.229-0.29,0.324-0.509c0.029-0.275,0.183-0.399,0.461-0.369c1.266-1.604,2.223-2.237,2.867-1.899
							c0.648,0.434,0.974,0.772,0.974,1.021c0,0.122-0.079,0.26-0.229,0.414v0.279c0,0.309-0.192,0.861-0.58,1.665
							c-0.386,0.802-0.797,1.479-1.228,2.037c-0.215,0.464-0.491,0.788-0.83,0.971c-0.992,0.618-2.038,0.862-3.146,0.742
							c-0.25-0.034-0.42-0.094-0.512-0.188c-0.246-0.059-0.432-0.075-0.557-0.045l-0.368-0.044c-0.278,0-0.511-0.064-0.695-0.186
							c-0.311-0.188-0.526-0.279-0.647-0.279c-0.803-0.309-1.289-0.542-1.458-0.693c-0.168-0.154-0.317-0.262-0.44-0.323
							c-0.123-0.063-0.414-0.387-0.88-0.971c-0.402-0.342-0.634-0.557-0.694-0.65c-0.183-0.275-0.348-0.475-0.484-0.6
							c-0.139-0.124-0.223-0.402-0.254-0.832c-0.125-0.153-0.188-0.356-0.188-0.603l-0.186-0.37c0-0.217-0.09-0.387-0.275-0.511
							c-0.188-0.184-0.277-0.414-0.277-0.693v-0.366c-0.125-0.063-0.155-0.25-0.092-0.558v-1.2l-0.049-0.417v-0.324
							c-0.031-0.121,0-0.385,0.092-0.787l-0.043-0.415c0.029-0.029,0.074-0.278,0.137-0.742c0.123-0.647,0.262-1.046,0.418-1.2
							v-0.418c0.028-0.094,0.044-0.214,0.044-0.369c0-0.154,0.038-0.323,0.118-0.507c0.075-0.188,0.314-0.884,0.715-2.083
							l0.741-1.623c0.215-0.46,0.556-0.972,1.019-1.525c0.029-0.154,0.152-0.433,0.369-0.833l0.602-0.557
							c0.184-0.275,0.464-0.478,0.834-0.599c0.43-0.218,0.754-0.324,0.971-0.324l1.292-0.188c0.154,0.034,0.263,0.049,0.324,0.049
							h0.604c0.681,0.06,1.233,0.2,1.667,0.414c0.924,0.279,1.602,0.632,2.035,1.065c0.957,1.081,1.436,2.113,1.436,3.099
							c0,0.991-0.154,1.837-0.465,2.545c-0.771,1.758-1.326,2.87-1.668,3.332C145.867,121.924,145.203,122.432,144.434,122.432z
							 M144.57,115.772c0.125-0.463,0.106-1.051-0.045-1.759c-0.217-0.184-0.508-0.279-0.879-0.279c-0.463,0-0.881,0.433-1.25,1.295
							c-0.494,0.742-0.864,1.559-1.111,2.452h-0.045c-0.341,1.299-0.51,1.993-0.51,2.083c0.494,0.125,0.893,0.18,1.201,0.161
							c0.311-0.015,0.667-0.177,1.066-0.486C143.708,118.562,144.23,117.405,144.57,115.772z"/>
						<path fill="#FFFFFF" d="M154.335,105.825l0.323-2.73l0.048-1.434c0-0.399,0.075-0.709,0.228-0.927l0.467-0.648
							c0.832-0.647,1.371-1.016,1.617-1.111c0.246-0.09,0.61-0.083,1.088,0.022c0.479,0.109,0.764,0.212,0.855,0.301l0.51,0.417
							c0.275,0.155,0.414,0.399,0.414,0.742c0.154,0.184,0.201,0.325,0.139,0.415c-0.186,0.217-0.489,2.036-0.926,5.459
							l-0.367,6.292l-0.23,1.25c0,0.404,0.02,0.632,0.044,0.693v0.837c-0.062,0.617-0.121,1-0.185,1.156
							c0,0.153-0.027,0.324-0.094,0.507c0.062,0.06,0.094,0.301,0.094,0.716c0,0.418-0.049,0.675-0.139,0.764
							c-0.062,0.494-0.094,0.963-0.094,1.412c0,0.448,0.039,0.912,0.116,1.39c0.077,0.479,0.101,0.945,0.067,1.409l0.188,1.757
							v0.697c0.059,0.554,0.093,1.001,0.093,1.34l0.231,2.406l0.186,1.25c0.09,0.524,0.055,1.033-0.117,1.526
							c-0.17,0.492-0.424,0.802-0.764,0.925c-0.957,0.399-2.005,0.139-3.146-0.787h-0.369c-0.217-0.249-0.387-0.587-0.51-1.017
							c-0.248-0.124-0.354-0.339-0.324-0.648c0.029-0.308-0.027-0.586-0.184-0.831c-0.154-0.25-0.23-0.463-0.23-0.65
							c0-0.4-0.03-0.753-0.094-1.063l0.045-0.369c-0.094-0.094-0.137-0.233-0.137-0.418l-0.098-0.832v-0.373
							c0-0.245-0.007-0.415-0.021-0.508c-0.016-0.091,0.021-0.245,0.119-0.464c-0.099-0.119-0.109-0.568-0.05-1.339
							c0.185-2.375,0.276-4.011,0.276-4.902l0.048-1.112V116c0.028-0.738,0.055-1.679,0.067-2.82
							c0.017-1.142,0.069-1.758,0.164-1.853l-0.05-0.414c0-0.741,0.117-1.75,0.351-3.031
							C154.219,106.603,154.335,105.914,154.335,105.825z"/>
						<path fill="#FFFFFF" d="M164.236,113.042c-0.188-0.986-0.281-1.668-0.281-2.037v-0.37c0-0.398,0.264-0.771,0.787-1.111
							l0.604-0.278c0.029-0.029,0.463-0.089,1.293-0.184c0.432,0,0.696,0.007,0.789,0.021c0.094,0.016,0.297,0.101,0.621,0.256
							c0.328,0.153,0.549,0.293,0.674,0.413c0.248,0.497,0.37,0.972,0.37,1.435v1.25l0.323-0.279l0.464-0.509
							c0.062-0.119,0.261-0.293,0.601-0.507c0.342-0.215,0.85-0.37,1.528-0.463c0.923-0.155,1.941-0.09,3.056,0.185
							c0.521,0.063,0.847,0.169,0.972,0.323c0-0.06,0.26-0.016,0.786,0.139c-0.032,0.063,0.035,0.125,0.205,0.185
							c0.17,0.063,0.408,0.155,0.719,0.279l0.322,0.369l0.185,0.557c0.188,0.06,0.356,0.293,0.513,0.693l0.463,1.713
							c0,0.183,0.076,0.478,0.229,0.876v1.111c0.03,0.338,0.046,0.704,0.046,1.088c0,0.384-0.027,0.854-0.091,1.411v0.555
							l-0.047,0.325v0.093c-0.062,0.126-0.062,0.26,0,0.415c-0.123,0.956-0.326,1.712-0.604,2.266l-0.88,2.177
							c-0.153,0.154-0.286,0.37-0.394,0.648c-0.108,0.278-0.532,0.756-1.272,1.434c-1.512,1.419-3.192,2.126-5.044,2.126
							c-0.061,0.031-0.169,0.126-0.32,0.279c0,0.125,0.045,0.215,0.137,0.278l0.186,3.145c0,0.772,0.031,1.175,0.096,1.206
							c0.028,0.153,0.075,0.662,0.137,1.524c0.062,0.866,0.154,1.405,0.279,1.62l0.092,1.295v0.418
							c-0.062,0.493-0.187,0.876-0.371,1.156c-0.184,0.28-0.471,0.463-0.854,0.558c-0.385,0.09-0.862,0.098-1.435,0.022
							c-0.572-0.078-0.92-0.208-1.045-0.395c-0.43-0.584-0.723-1.142-0.877-1.665c-0.275-1.141-0.416-2.222-0.416-3.239
							c-0.094-0.558-0.141-1.08-0.141-1.575c-0.059-0.552-0.152-0.985-0.277-1.294c-0.119-0.309-0.182-0.538-0.182-0.693
							c-0.218-1.329-0.326-2.052-0.326-2.176c0-0.338-0.076-0.692-0.229-1.065c-0.155-1.387-0.232-2.233-0.232-2.542l-0.412-4.997
							v-0.927c-0.093-0.125-0.187-0.987-0.276-2.591C164.48,117.591,164.328,115.941,164.236,113.042z M174.781,116.697
							l-0.092-1.065c0-0.494-0.141-0.911-0.416-1.25c-0.123-0.06-0.246-0.215-0.369-0.463h-0.047c0-0.029-0.078-0.067-0.231-0.112
							c-0.153-0.05-0.278-0.042-0.372,0.022c-0.152,0.06-0.615,0.478-1.386,1.25l-0.603,1.34c-0.341,0.463-0.771,1.371-1.299,2.729
							c-0.027,0.029-0.027,0.2,0,0.508c0.062,0.404,0.157,1.404,0.278,3.007c0.247,2.283,0.386,3.623,0.417,4.026l0.507-0.095
							c0.097-0.09,0.312-0.184,0.647-0.275c0.436-0.492,0.76-0.851,0.976-1.066l0.922-1.479c0-0.154,0.101-0.456,0.304-0.904
							c0.2-0.447,0.346-0.854,0.438-1.228c0-0.059,0.027-0.304,0.092-0.738c0.096-0.647,0.143-1.279,0.143-1.898
							c0.09,0,0.129-0.075,0.115-0.229c-0.019-0.154-0.025-0.339-0.025-0.557v-1.523H174.781z"/>
					</g>
					<g>
						<path fill="#FFFFFF" d="M111.404,155.182l0.276-2.037c0-0.397,0.062-0.802,0.186-1.203c0-0.522,0.261-1.312,0.785-2.356
							c0-0.062,0.139-0.465,0.417-1.207c0-0.059,0.293-0.971,0.877-2.729l0.557-1.34c0-0.125,0.076-0.361,0.23-0.721
							c0.156-0.354,0.27-0.707,0.348-1.062c0.076-0.353,0.178-0.699,0.301-1.043c0.433-0.832,0.816-1.539,1.158-2.127
							c0.648-1.231,1.852-1.788,3.609-1.665l1.478,0.139c0.925,0.245,1.634,0.509,2.13,0.784c0.71,0.278,1.188,0.579,1.434,0.903
							c0.246,0.324,0.354,0.854,0.324,1.596c0.029,0.37,0.123,1.973,0.279,4.811c0.152,2.841,0.229,4.273,0.229,4.305l0.231,1.988
							c0,0.184,0.34,2.404,1.018,6.664l1.018,3.238c0.617,1.729,0.949,2.627,0.994,2.707c0.049,0.073,0.178,0.405,0.395,0.992
							c0.338,1.018,0.047,1.694-0.881,2.038c-0.831,0.119-1.449,0.045-1.85-0.233c-0.154,0-0.51-0.141-1.064-0.416
							c-0.061-0.154-0.237-0.299-0.531-0.438c-0.293-0.14-0.486-0.256-0.578-0.347c-0.339-0.094-0.648-0.571-0.923-1.434
							c-0.095-0.064-0.265-0.311-0.512-0.742c-0.216-0.435-0.278-0.787-0.183-1.065c-0.218-0.274-0.324-0.849-0.324-1.709
							c-0.28-0.464-0.416-1.19-0.416-2.177c0-0.987-0.156-1.758-0.465-2.312c-1.574,0.708-3.253,1.096-5.044,1.157
							c-0.337,0-0.505,0.063-0.505,0.185c0,0.278-0.094,0.771-0.28,1.479l-0.787,5.092c0.31,2.28,0.031,3.485-0.833,3.608
							c-0.244,0-0.654,0.062-1.225,0.186c-0.57,0.12-1.041,0.018-1.41-0.322c-0.712-0.402-1.212-0.811-1.504-1.229
							c-0.295-0.416-0.426-0.884-0.395-1.412c0.031-0.429,0.106-1.354,0.232-2.772c0.06-0.061,0.084-0.412,0.068-1.043
							c-0.018-0.629,0.023-1.115,0.116-1.457l0.737-2.865c0.097-0.063,0.219-0.526,0.373-1.391c-0.031-0.06-0.049-0.215-0.049-0.464
							L111.404,155.182z M117.647,153.839c0.062-0.061,0.425-0.133,1.089-0.207c0.662-0.075,1.44-0.348,2.336-0.811
							c0.029,0,0.016-0.369-0.048-1.111c-0.092-1.295-0.169-2.219-0.229-2.774c-0.062-0.741-0.123-1.265-0.186-1.574
							c0-0.587-0.234-1.802-0.693-3.655l-2.037,6.896c-0.43,1.911-0.6,3.083-0.508,3.518L117.647,153.839z"/>
						<path fill="#FFFFFF" d="M137.545,160.873c0.277-0.646,0.57-1.402,0.879-2.267l1.019-2.592l0.415-0.786
							c-6.261,7.4-6.198,7.326,0.186-0.232l1.199-2.496c0.095-0.096,0.172-0.293,0.232-0.603l1.205-1.804l0.926-0.834
							c0.186-0.094,0.387-0.248,0.602-0.463c0.062,0.061,0.311,0,0.738-0.186c0.279,0,0.834,0.047,1.666,0.141l0.928,0.324
							l2.079,1.246c0.438,0.434,0.616,0.895,0.556,1.389c-0.027,0.369-0.197,1.391-0.508,3.055
							c-0.246,1.326-0.602,2.854-1.062,4.582c-0.248,1.386-0.324,2.387-0.231,3.003c0.092,0.619,0.142,0.974,0.142,1.065
							c0.059,0.186,0.143,0.451,0.254,0.787c0.104,0.34,0.129,0.523,0.066,0.555c0.216,0.031,0.325,0.184,0.325,0.463
							c0.245,0.648,0.332,1.089,0.255,1.318c-0.075,0.231-0.275,0.484-0.604,0.764c-0.322,0.279-0.899,0.419-1.73,0.419
							c-0.495-0.063-0.887-0.095-1.184-0.095c-0.291,0-0.651-0.109-1.084-0.324c-0.896-0.648-1.406-1.312-1.526-1.987
							c-0.156-0.435-0.248-0.758-0.279-0.972c-0.028-0.219-0.046-0.373-0.046-0.463c-0.154-0.928-0.137-1.883,0.046-2.87
							c0.031-0.368,0.17-1.124,0.416-2.267c0.248-1.172,0.494-2.1,0.74-2.777c0-0.678-0.015-1.032-0.045-1.062l-1.806,3.516
							c-0.187,0.494-0.354,0.861-0.511,1.111c-0.156,0.154-0.23,0.338-0.23,0.553c-0.247,0.25-0.479,0.742-0.691,1.48
							c0,0.219-0.02,0.372-0.051,0.462c-0.027,0.097-0.145,0.318-0.346,0.671c-0.199,0.358-0.34,0.688-0.415,0.998
							c-0.079,0.311-0.27,0.646-0.578,1.016c0,0.125-0.203,0.76-0.603,1.899c-0.033,0.12-0.356,0.229-0.97,0.323l-0.882-0.094
							c-0.215-0.062-0.725-0.215-1.526-0.463c-0.802-0.246-1.243-0.371-1.319-0.371c-0.075,0-0.145-0.028-0.207-0.094
							c-0.525-0.121-0.848-0.555-0.973-1.295v-0.738c0.154-0.186,0.17-0.537,0.047-1.064c0.062-0.309,0.107-0.663,0.139-1.066
							c-0.092-0.061-0.107-0.166-0.047-0.324c0.062-0.984,0.094-1.678,0.094-2.077v-1.11c0.061-1.021,0.138-2.109,0.229-3.285
							c0.095-1.17,0.14-1.93,0.14-2.268v-0.928c-0.062-0.152-0.077-0.508-0.046-1.061c-0.061-0.587-0.138-0.947-0.229-1.087
							c-0.094-0.14-0.125-0.348-0.094-0.625l0.323-0.786c0.493-0.4,1.327-0.479,2.499-0.229c0.523,0.09,1.248,0.397,2.176,0.922
							c0.059,0.095,0.213,0.294,0.463,0.604c0.184,0,0.293,0.264,0.324,0.785c-0.031,0.279-0.049,0.51-0.049,0.691
							c-0.033,0.033-0.201,0.74-0.508,2.133c-0.68,4.284-1.018,6.613-1.018,6.982C137.451,160.455,137.48,160.716,137.545,160.873z"
							/>
						<path fill="#FFFFFF" d="M156.695,136.398c0.031-0.029,0.324-0.078,0.881-0.138c0.893-0.155,1.518-0.101,1.873,0.162
							c0.357,0.263,0.609,0.546,0.764,0.854c0.062,0.987-0.076,2.268-0.417,3.841c-0.339,1.017-0.632,1.774-0.879,2.267
							l-0.462,0.691c-0.094,0.25-0.293,0.514-0.604,0.787c-0.309,0.277-0.531,0.41-0.67,0.395c-0.141-0.014-0.369-0.123-0.691-0.322
							c-0.326-0.199-0.52-0.346-0.582-0.439c-0.027-0.096-0.061-0.201-0.092-0.324l-0.23-0.926l-0.924-1.157
							c-0.186-0.37-0.277-0.742-0.277-1.111c-0.094-0.862,0.014-1.524,0.324-1.987c0-0.063,0.046-0.214,0.137-0.463
							C155,137.848,155.615,137.136,156.695,136.398z M155.311,157.171c0-0.278,0.057-0.654,0.162-1.135
							c0.105-0.479,0.137-0.81,0.092-0.994c-0.045-0.186-0.053-0.711-0.021-1.572c0.093-0.369,0.106-0.787,0.044-1.25
							c-0.214-0.68-0.275-1.172-0.184-1.48c0.091-0.309,0.294-0.654,0.603-1.041c0.308-0.385,0.647-0.65,1.017-0.809
							c0.373-0.15,0.928-0.139,1.668,0.048c0.185,0.091,0.492,0.399,0.922,0.922c0.096,0.095,0.21,0.448,0.35,1.065
							c0.141,0.617,0.23,1.287,0.275,2.016c0.05,0.723,0.087,1.771,0.119,3.145c0.029,1.375,0.093,3.207,0.185,5.506
							c0.092,2.3,0.112,3.728,0.067,4.279c-0.047,0.561-0.246,0.979-0.604,1.273c-0.354,0.293-0.662,0.354-0.924,0.184
							c-0.264-0.168-0.532-0.285-0.811-0.346c-0.494,0-0.926-0.199-1.295-0.604c-0.125-0.028-0.416-0.176-0.879-0.438
							c-0.464-0.266-0.759-0.751-0.88-1.461c-0.153-0.307-0.202-1.312-0.141-3.005v-1.668l0.231-1.57v-1.065H155.311z"/>
						<path fill="#FFFFFF" d="M166.924,147.224h0.092c0.398-0.125,1.049-0.076,1.94,0.138c0.31,0.091,0.494,0.972,0.558,2.636
							c0.123,1.267,0.185,2.14,0.185,2.619c0,0.479,0.017,0.758,0.047,0.854v3.099l0.229,0.051c0-0.033,0.031-0.221,0.096-0.559
							c0.152-0.863,0.322-1.523,0.507-1.988c0.125-0.125,0.192-0.277,0.212-0.463c0.016-0.186,0.1-0.389,0.252-0.604
							c0.188-0.859,0.646-1.987,1.391-3.377c0.244-0.582,0.484-1.023,0.719-1.316c0.229-0.294,0.584-0.396,1.062-0.301
							c0.479,0.095,0.87,0.264,1.183,0.509c0.244,0.028,0.541,0.078,0.879,0.138l1.342,0.279c0.123,0.029,0.291,0.133,0.509,0.301
							c0.217,0.168,0.31,0.377,0.278,0.622c-0.032,0.248-0.062,0.976-0.096,2.177v0.74l-0.185,1.807c0,0.492,0.03,0.785,0.092,0.877
							l0.188,0.139l0.369-2.127c0-0.217,0.094-0.418,0.275-0.604l0.559-1.342c0-0.095,0.094-0.293,0.276-0.604
							c0.062-0.215,0.208-0.521,0.438-0.924c0.229-0.398,0.533-0.787,0.902-1.156c0-0.245,0.277-0.414,0.834-0.508
							c0.43-0.463,1.143-0.479,2.131-0.047c0.183,0,0.353,0.028,0.506,0.09c0,0.063,0.115,0.109,0.349,0.142
							c0.229,0.028,0.515,0.233,0.854,0.603v0.508c0,0.31,0.016,0.537,0.045,0.693c-0.029,0.217-0.017,0.493,0.047,0.836v0.553
							c0.031,0.25,0.106,1.019,0.231,2.312v0.514c0.095,0.186,0.132,0.377,0.114,0.576c-0.018,0.201-0.021,0.41-0.021,0.623
							c0.094,0.096,0.168,0.348,0.23,0.766c0.062,0.412,0.027,0.824-0.093,1.225l0.093,0.418v1.296
							c0.154,0.125,0.229,0.31,0.229,0.558l0.143,0.783c0,0.559,0.072,1.11,0.229,1.666v0.51l0.23,1.199v0.278l-0.044,0.464
							c0,0.34-0.188,0.588-0.56,0.741c-0.06,0.028-0.145,0.073-0.254,0.14c-0.105,0.061-0.287,0.092-0.533,0.092l-0.971-0.324
							l-0.461-0.323c-0.246,0.063-0.57-0.044-0.971-0.324c0-0.278-0.109-0.522-0.326-0.741c-0.371-0.121-0.508-0.369-0.414-0.738
							c0.029-0.028-0.047-0.198-0.232-0.508c0.062-0.062,0.018-0.401-0.137-1.021c0-0.276-0.021-0.546-0.072-0.81
							c-0.043-0.26-0.074-0.529-0.092-0.811c-0.016-0.273-0.068-0.523-0.162-0.736c0.029,0,0.047-0.109,0.047-0.324
							c0-0.219-0.029-0.418-0.094-0.604v-1.063l-0.229-1.853l-0.692,2.128c-0.464,1.2-0.694,1.854-0.694,1.942l-1.479,4.628
							c-0.095,0.186-0.271,0.393-0.533,0.626c-0.261,0.229-0.485,0.347-0.671,0.347c-0.062-0.096-0.225-0.14-0.484-0.14
							c-0.265,0-0.578,0.078-0.949,0.231c-1.047,0.119-1.648-0.203-1.801-0.975l-0.095-1.062l0.043-1.065
							c-0.062-0.09-0.093-0.308-0.093-0.646l-0.047-0.646v-1.988l-0.094-2.359v-2.268c-0.895,2.436-1.447,4.023-1.664,4.768
							l-1.715,5.505c-0.338,0.896-0.955,1.375-1.85,1.435l-0.51,0.092c-0.68,0.152-1.126,0.049-1.342-0.324l-0.463-0.783
							c-0.123-0.684-0.248-1.064-0.371-1.158c-0.062-0.43-0.215-0.879-0.461-1.34l-0.23-1.112c0-0.095-0.031-0.229-0.093-0.418
							v-0.831c-0.095-0.244-0.171-0.744-0.231-1.503c-0.062-0.757-0.078-1.366-0.047-1.825c-0.125-0.373-0.156-0.836-0.094-1.391
							v-0.834c-0.154-0.711-0.229-1.786-0.229-3.234v-0.65c0.149-0.924,0.229-1.551,0.229-1.873c0-0.325,0.078-0.572,0.232-0.741
							C165.594,148.048,166.088,147.716,166.924,147.224z"/>
						<path fill="#FFFFFF" d="M191.166,163.97c-0.092-1.324-0.076-2.342,0.047-3.053c0.709-2.592,1.266-4.563,1.666-5.924
							c0-0.029,0.105-0.412,0.323-1.156c0.339-1.075,0.647-1.787,0.925-2.129c0-0.096,0.123-0.336,0.369-0.738
							c0-0.276,0.339-0.754,1.02-1.436l0.51-0.555c0.557-0.494,1.344-0.74,2.361-0.74c0.367-0.062,0.803-0.047,1.293,0.049
							c0.896,0.397,1.913,1,3.053,1.805l0.466,0.277c0.245,0.061,0.478,0.139,0.69,0.229c0.125,0,0.387,0.062,0.787,0.186
							l0.604,0.463c0.275,0.184,0.445,0.447,0.51,0.787c-0.186,0.184-0.279,0.785-0.279,1.803c-0.119,1.33-0.027,2.885,0.279,4.674
							c0.121,1.666,0.416,3.426,0.879,5.275c0,0.152,0.115,0.569,0.35,1.248c0.229,0.68,0.33,1.11,0.299,1.297
							c0,0.771-0.726,1.154-2.174,1.154c-1.418-0.091-2.406-0.708-2.961-1.848c-0.031-0.125-0.143-0.373-0.326-0.741
							c-0.371-0.37-0.568-0.681-0.604-0.927l-0.094-0.648c-0.121-0.09-0.197-0.216-0.229-0.369c-0.369,0.522-0.835,1.065-1.39,1.62
							l-0.972,1.527l-0.373,0.368c-0.027,0.125-0.354,0.27-0.971,0.441c-0.617,0.168-1.063,0.192-1.341,0.066
							c-0.155,0-0.372-0.029-0.647-0.096l-2.036-0.832c-0.464-0.121-0.804-0.338-1.019-0.647c-0.402-0.245-0.602-0.383-0.602-0.414
							C191.273,164.464,191.135,164.125,191.166,163.97z M200.928,152.778l-0.229-0.418c-0.37,0-1.065,0.759-2.079,2.267
							c-1.204,1.636-2.057,3.258-2.549,4.857c-0.34,0.956-0.538,1.743-0.602,2.359c0,0.896,0.186,1.48,0.555,1.759
							c0.154,0,0.332-0.108,0.531-0.324c0.2-0.214,0.316-0.368,0.348-0.462c0.217-0.125,0.492-0.479,0.832-1.066
							c0.4-0.582,0.617-0.893,0.649-0.922l0.415-0.882l0.787-1.34c-0.062,0,0.029-0.354,0.275-1.065
							c0.373-0.646,0.57-1.143,0.603-1.479L200.928,152.778z"/>
						<path fill="#FFFFFF" d="M212.17,142.182c0.094-0.279,0.122-0.542,0.094-0.788c-0.031-0.248-0.021-0.861,0.045-1.852
							c0.154-0.275,0.17-0.816,0.047-1.62c0-0.462,0.187-0.949,0.559-1.458c0.37-0.508,0.77-0.884,1.199-1.132v0.044
							c0.123-0.121,0.402-0.215,0.835-0.274c1.049-0.155,1.806,0.168,2.267,0.97c-0.123,0.215-0.188,0.908-0.188,2.083v4.719
							c0.031,0.771,0.051,1.817,0.051,3.146v1.758l0.186,3.006c0,0.801,0.047,1.604,0.139,2.405c0,1.478,0.027,2.375,0.093,2.685
							c0.062,0.311,0.092,0.523,0.092,0.647v0.742c0,0.677,0.031,1.169,0.093,1.479c0,0.309,0.076,0.631,0.232,0.971
							c-0.156,0.463-0.156,0.986,0,1.574c0.152,0.369,0.201,0.846,0.139,1.434c0.186,0.369,0.248,0.863,0.186,1.48l0.141,0.272
							l0.092,0.419c0.121,0.4,0.068,0.873-0.162,1.412c-0.23,0.537-0.691,0.904-1.389,1.109c-0.693,0.197-1.475-0.133-2.336-0.994
							c-0.031-0.096-0.203-0.232-0.512-0.42c-0.367-0.215-0.68-0.938-0.924-2.176c-0.152-0.306-0.229-0.629-0.229-0.971
							c-0.342-0.273-0.509-0.693-0.509-1.247v-1.021c-0.033-0.463-0.097-0.77-0.188-0.922c-0.094-0.125-0.17-0.451-0.231-0.978
							l0.097-3.099c0-1.016-0.033-1.805-0.097-2.36v-3.146c-0.091-1.018-0.138-1.795-0.138-2.338c0-0.539,0.105-1.627,0.324-3.262
							c0-0.123-0.049-0.294-0.141-0.509C212.123,143.523,212.17,142.919,212.17,142.182z"/>
						<path fill="#FFFFFF" d="M222.904,150.646l-0.049-0.369c0-0.154,0.096-0.384,0.276-0.691c0.156-0.25,0.386-0.539,0.692-0.883
							c0.309-0.338,0.49-0.539,0.557-0.598c0.402-0.279,0.76-0.451,1.066-0.514c0.214-0.154,0.678-0.305,1.389-0.463h0.51
							c0.182,0,0.319,0.02,0.412,0.049c0.096,0.029,0.415,0.092,0.973,0.185c0.865-0.06,1.729,0.046,2.594,0.323
							c0.214,0.154,0.383,0.279,0.509,0.37c0.122,0.096,0.299,0.226,0.53,0.396c0.232,0.17,0.51,0.368,0.834,0.6
							c0.324,0.232,0.762,0.597,1.316,1.089c1.109,1.021,1.465,2.053,1.064,3.099l-0.417,0.883
							c-0.462,0.463-0.957,0.616-1.479,0.463l-0.416-0.043c-0.341-0.189-0.617-0.562-0.836-1.113
							c-0.275-0.248-0.459-0.418-0.554-0.512c-0.862-0.863-1.79-1.418-2.774-1.666c-0.526,0.029-1.035,0.31-1.525,0.834
							c-0.493,0.525-0.479,1.203,0.046,2.037c0,0.275,0.03,0.446,0.092,0.508c0.062,0.062,0.201,0.293,0.418,0.69
							c0.4,0.497,0.709,0.911,0.925,1.25c0.151,0.435,0.401,0.741,0.739,0.927l0.274,0.604c0.095,0.029,0.527,0.293,1.296,0.787
							c0.188,0.154,0.372,0.384,0.559,0.691l1.806,1.988c0.185,0.186,0.371,0.479,0.556,0.88c0.368,0.371,0.562,0.708,0.577,1.019
							c0.017,0.311-0.055,0.646-0.209,1.017c0,0.343-0.146,0.617-0.438,0.837c-0.293,0.215-0.509,0.393-0.647,0.529
							c-0.137,0.14-0.653,0.486-1.549,1.039c-0.062,0.154-0.771,0.512-2.127,1.064l-1.391,0.369c-0.031,0-0.17,0.026-0.417,0.072
							c-0.246,0.044-0.647,0.064-1.2,0.064h-0.371c-0.152,0.063-0.51,0.097-1.062,0.097c-0.988-0.031-1.854-0.265-2.595-0.692
							c-0.153-0.062-0.246-0.139-0.276-0.232c-0.615-0.987-0.924-1.404-0.924-1.25c-0.123-0.154-0.209-0.463-0.257-0.922
							c-0.045-0.465-0.082-0.748-0.112-0.858c-0.031-0.104,0.014-0.267,0.137-0.485c0.278-0.492,0.834-0.523,1.666-0.091
							l0.604,0.323c0.277,0.275,0.615,0.445,1.017,0.511c0.218-0.03,0.479-0.03,0.787,0c0.31,0.028,0.603,0.028,0.881,0l0.832-0.373
							h-0.045c0.028-0.03,0.123-0.054,0.274-0.067c0.156-0.016,0.388-0.065,0.694-0.162c0.896-0.278,1.248-0.709,1.062-1.295
							l-0.324-0.556c-0.337-0.712-0.709-1.219-1.108-1.526l-0.369-0.229c-1.233-1.204-2.205-2.223-2.916-3.055
							c-0.095-0.063-0.293-0.233-0.603-0.512c-0.278-0.274-0.494-0.738-0.647-1.389c-0.276-0.587-0.435-0.984-0.463-1.203v-0.878
							c0-0.063-0.017-0.249-0.045-0.558c-0.031-0.305-0.022-0.575,0.021-0.809c0.046-0.229,0.046-0.408,0-0.533
							C222.695,151.587,222.75,151.233,222.904,150.646z"/>
					</g>
				</g>
			</g>
		</g>
		<g>
			<path fill="#BC9A91" d="M34.626,224.593l5.687-2.053l2.736,9.612l-4.443,3.175C38.605,235.33,31.779,228.626,34.626,224.593z"/>
			<path fill="#BC9A91" d="M95.71,236.085l-8.556-2.885l4.422-8.966l5.444-0.292C97.021,223.945,100.528,235.005,95.71,236.085z"/>
			<polygon fill="#604737" points="88.276,198.276 64.226,216.728 38.868,198.276 36.759,167.115 41.005,140.127 52.205,127.992 
				72.605,127.992 85.707,140.039 90.242,163.658 			"/>
			<g>
				<path fill="#A7CBDD" d="M34.36,224.005c0,0-10.462-0.506-14.719,1.377c-0.54,4.252,3.434,15.889,5.593,17.914
					c3.566-0.764,12.289-6.041,13.508-7.478C36.715,230.843,34.36,224.005,34.36,224.005z"/>
				<path fill="#DADADA" d="M26.35,243.041l-4.529,1.781c0,0-2.229-2.345-4.058-8.818c-1.892-6.692-1.686-9.821-1.686-9.821
					l4.301-1.089c0,0-0.029,4.087,1.894,9.72C24.194,240.438,26.35,243.041,26.35,243.041z"/>
				<path fill="#EDEDED" d="M34.514,237.771l-6.485-0.4c-0.652-4.088-2.138-7.707-2.726-8.699c0.878-0.967,4.226-3.793,4.226-3.793
					l-2.955,4.088c0,0,2.386,6.65,2.427,7.552L34.514,237.771z"/>
				<path fill="#B2B2B2" d="M24.706,243.708l-0.401,0.153c0,0-4.145-5.3-5.449-16.192C20.385,234.208,22.222,240.35,24.706,243.708z
					"/>
			</g>
			<path fill="#A7CBDD" d="M91.694,219.1c-1.079-0.3-2.499,1.146-3.75,3.55c-14.547-7.498-56.608-28.033-64.64-28.382
				c-13.507-0.582-15.521,20.075-5.392,24.046c4.837,1.896,54.352,11.711,67.297,14.178c-0.174,2.739,0.304,4.737,1.388,5.041
				c1.684,0.465,4.205-3.304,5.604-8.373C93.604,224.091,93.376,219.565,91.694,219.1z"/>
			<path fill="#B7DDF3" d="M98.664,197.583c-7.708,0.004-46.396,18.229-56.312,23.063c-0.796-0.838-1.557-1.244-2.156-1.038
				c-1.495,0.521-1.435,4.641,0.133,9.148c1.569,4.513,4.074,7.777,5.57,7.26c0.833-0.29,1.183-1.689,1.062-3.65
				c11.409-2.371,54.907-11.437,59.007-13.691C113.002,214.809,110.862,197.58,98.664,197.583z"/>
			<g>
				<path fill="#A7CBDD" d="M95.233,223.905c0,0,9.392-4.634,14.049-4.604c2.189,3.684,3.182,15.941,2.012,18.658
					c-3.574,0.721-14.416-0.465-15.584-1.873C95.972,233.66,95.233,223.905,95.233,223.905z"/>
				<path fill="#DADADA" d="M109.914,238.21l4.991-0.317c0,0,0.934-2.043,0.332-9.603c-0.686-8.625-2.438-9.567-2.438-9.567
					l-4.312,0.604c0,0,1.636,3.734,2.138,9.664C111.235,236.235,109.914,238.21,109.914,238.21z"/>
				<path fill="#EDEDED" d="M100.579,236.589c0,0,4.001-1.625,5.676-2.857c-1.031-4.011-1-8.016-0.859-9.163
					c-1.187-0.53-5.383-1.793-5.383-1.793l4.338,2.574c0,0,0.461,7.051,0.785,7.892L100.579,236.589z"/>
				<path fill="#B2B2B2" d="M111.63,238.067l0.463-0.048c0,0,1.684-6.426-1.469-16.936C111.831,227.693,112.572,234,111.63,238.067z
					"/>
			</g>
			<path fill="#BC9A91" d="M63.185,216.83c0.966-0.465,4.193-4.871,5.26-5.904c1.066-1.03,6.093-2.106,6.093-2.106l16.021-23.687
				l-0.631-7.748l11.662-1.551l-0.382,12.896c0,0-20.662,24.318-20.934,24.637c-0.474,0.562-2.319,5.108-3.499,6.612
				c-1.186,1.506-3.746,3.547-7.131,6.496c-0.558,0.312-1.848-1.229-1.848-1.229s3.9-4.15,5.005-5.74
				c-0.947,0.99-5.113,5.4-6.203,6.017c-0.238-0.026-1.074-1.209-1.421-1.856c1.286-1.186,4.693-4.908,5.656-6.488
				c-1.896,2.51-4.482,5.064-6.369,6.176c-0.44-0.244-1.097-0.855-1.124-1.566c2.983-2.6,5.686-6.455,6.115-7.47
				c-0.718,0.623-1.249,1.21-2.468,1.929C65.19,217.682,64.067,217.766,63.185,216.83z"/>
			<g>
				
					<ellipse transform="matrix(0.988 0.1543 -0.1543 0.988 17.6289 -12.7257)" fill="#52362B" cx="90.793" cy="107.202" rx="3.913" ry="3.852"/>
				<path fill="#52362B" d="M86.501,109.294c-1.734-0.271-3.358,0.893-3.624,2.603c-0.004,0.019,0,0.04-0.003,0.062
					c-1.483,0.055-2.765,1.136-2.999,2.637c-0.267,1.707,0.922,3.312,2.658,3.583c1.735,0.271,3.358-0.896,3.625-2.604
					c0.003-0.021,0-0.042,0.003-0.062c1.482-0.055,2.766-1.136,2.999-2.638C89.427,111.167,88.235,109.564,86.501,109.294z"/>
			</g>
			<g>
				
					<ellipse transform="matrix(0.9881 0.154 -0.154 0.9881 16.0433 -5.1057)" fill="#52362B" cx="40.982" cy="101.018" rx="3.913" ry="3.852"/>
				<path fill="#52362B" d="M44.433,104.318c1.734,0.271,2.926,1.876,2.658,3.582c-0.003,0.021-0.012,0.04-0.016,0.061
					c1.398,0.505,2.289,1.924,2.055,3.426c-0.266,1.708-1.889,2.872-3.623,2.603c-1.735-0.271-2.924-1.875-2.658-3.582
					c0.003-0.021,0.011-0.04,0.015-0.062c-1.396-0.504-2.288-1.923-2.054-3.424C41.077,105.213,42.699,104.048,44.433,104.318z"/>
			</g>
			<path fill="#52362B" d="M39.587,100.453c-3.491-6.318-5.377-15.617-5.482-29.565c-0.161-20.815,21.744-29.772,40.321-26.876
				c18.579,2.898,37.979,17.792,30.228,37.877c-13.132,34.015-22.603,35.036-41.146,32.146
				C52.651,112.341,44.517,109.376,39.587,100.453"/>
			<path fill="#BC9A91" d="M97.915,95.027c-0.389-0.989-1.218-0.921-2.018-0.541c1.312-3.248,2.316-6.029,2.529-7.397
				c2.537-16.259-8.588-31.497-24.852-34.032c-16.261-2.536-31.499,8.591-34.033,24.852c-0.217,1.386-0.101,4.394,0.166,7.942
				c-0.773-1.035-1.965-2.135-2.955-0.915c-1.62,1.993-3.527,5.432-2.65,8.715c0.994,3.736,4.539,9.767,7.172,7.42
				c-0.474,6.833,5.342,14.436,11.627,17.719c-0.05,0.177-0.097,0.355-0.126,0.538l-0.903,5.792
				c-0.568,3.653,3.311,7.292,8.66,8.126c5.354,0.836,10.158-1.449,10.729-5.104l0.897-5.769c6.881-2.46,16.602-7.937,18.143-15.428
				c1.844,1.453,6.418-0.252,7.697-2.667C100.772,99.052,98.785,97.244,97.915,95.027z"/>
			<path fill="#52362B" d="M89.731,90.631c0,0,1.07,0.258,0.688-1.324c-1.203-4.99-12.861-6.383-18.919-3.214
				C76.058,88.41,81.556,86.944,89.731,90.631z"/>
			<path fill="#52362B" d="M45.411,87.231c0,0-1.099,0.083-0.465-1.418c1.994-4.729,13.726-4.212,19.188-0.101
				C59.262,87.257,54.075,84.919,45.411,87.231z"/>
			<path fill="#AC8A86" d="M52.22,122.993c0.106,6.102,4.809,8.121,4.809,8.121s-1.347-4.732,2.585-8.034
				c-2.155-0.946-4.487-2.494-6.734-4.306L52.22,122.993z"/>
			<path fill="#52362B" d="M51.088,93.352c0.086,1.81,2.285,3.332,4.918,3.4c2.639,0.072,4.688-1.343,4.599-3.153
				c-0.085-1.811-2.279-3.328-4.913-3.4C53.055,90.132,51.002,91.544,51.088,93.352z"/>
			<path fill="#52362B" d="M75.112,95.406c-0.091,1.811,1.947,3.542,4.562,3.87c2.617,0.331,4.795-0.876,4.885-2.685
				c0.093-1.809-1.938-3.538-4.553-3.869C77.389,92.397,75.208,93.598,75.112,95.406z"/>
			<path fill="#FBFBFB" d="M51.251,93.109c0.086,1.787,2.258,3.291,4.86,3.357c2.605,0.071,4.631-1.328,4.545-3.115
				c-0.085-1.788-2.253-3.287-4.854-3.36C53.195,89.927,51.168,91.321,51.251,93.109z"/>
			<path fill="#52362B" d="M56.931,90.659c-0.251-0.13-0.629-0.243-0.564-0.237c2.632,0.215,3.62,1.518,4.132,2.199
				c-0.22-1.944-6.602-5.038-9.006-0.633c0,0,1.39-1.814,3.66-1.465c-0.656,0.234-1.23,0.785-1.561,1.629
				c-0.612,1.569-0.068,3.383,1.215,4.048c1.281,0.663,2.814-0.071,3.427-1.646C58.846,92.983,58.211,91.323,56.931,90.659z"/>
			<g>
				<path fill="#FBFBFB" d="M55.439,91.146c-0.542-0.279-1.188,0.033-1.448,0.696c-0.256,0.661-0.029,1.427,0.513,1.708
					c0.542,0.281,1.188-0.03,1.446-0.693C56.209,92.191,55.98,91.427,55.439,91.146z"/>
				<path fill="#FBFBFB" d="M57.685,93.193c-0.347-0.181-0.759,0.018-0.927,0.442c-0.163,0.423-0.018,0.914,0.327,1.092
					c0.348,0.179,0.762-0.022,0.925-0.445C58.177,93.857,58.031,93.37,57.685,93.193z"/>
			</g>
			<path fill="#FBFBFB" d="M84.359,97.057c-0.625,1.675-3.15,2.449-5.651,1.722c-2.504-0.729-4.008-2.677-3.38-4.354
				c0.626-1.676,3.146-2.445,5.647-1.723C83.475,93.434,84.983,95.378,84.359,97.057z"/>
			<path fill="#52362B" d="M79.695,92.994c0.278-0.047,0.674-0.04,0.609-0.053c-2.572-0.594-3.911,0.343-4.607,0.836
				c0.804-1.784,7.822-2.789,8.772,2.141c0,0-0.771-2.153-3.042-2.512c0.557,0.423,0.935,1.123,0.992,2.028
				c0.104,1.682-0.964,3.241-2.39,3.485c-1.423,0.243-2.658-0.925-2.764-2.61C77.164,94.628,78.273,93.239,79.695,92.994z"/>
			<g>
				<path fill="#FBFBFB" d="M80.969,93.914c0.602-0.101,1.123,0.391,1.169,1.104c0.04,0.707-0.407,1.365-1.01,1.469
					c-0.604,0.102-1.124-0.39-1.167-1.102C79.918,94.673,80.367,94.016,80.969,93.914z"/>
				<path fill="#FBFBFB" d="M78.207,95.178c0.383-0.068,0.717,0.247,0.745,0.701c0.029,0.454-0.259,0.876-0.644,0.942
					c-0.387,0.064-0.718-0.251-0.745-0.705C77.535,95.662,77.822,95.241,78.207,95.178z"/>
			</g>
			
				<ellipse transform="matrix(-0.155 0.9879 -0.9879 -0.155 145.6568 67.9268)" fill="#AC8A86" cx="43.779" cy="96.256" rx="1" ry="0.847"/>
			<path fill="#AC8A86" d="M40.134,92.293c0.294,2.488-0.251,4.595-1.224,4.715c-0.971,0.116-1.999-1.808-2.295-4.293
				c-0.295-2.488,0.253-4.598,1.226-4.71C38.812,87.885,39.841,89.809,40.134,92.293z"/>
			
				<ellipse transform="matrix(-0.4285 0.9035 -0.9035 -0.4285 227.7401 57.9923)" fill="#AC8A86" cx="95.53" cy="101.021" rx="4.536" ry="1.772"/>
			
				<ellipse transform="matrix(-0.1531 0.9882 -0.9882 -0.1531 188.1072 5.8965)" fill="#AC8A86" cx="91.527" cy="83.554" rx="0.287" ry="0.537"/>
			<path fill="#815F45" d="M72.721,113.854c-0.261,0.081-0.231,1.137-0.201,1.257c-3.241,0.694-8.9,2.325-15.088-2.572
				c-0.214-0.167-0.625,0.355-0.41,0.524c2.734,2.164,5.325,3.149,7.618,3.506c3.224,0.503,5.857-0.239,7.473-0.693
				c0.187-0.052,0.362-0.101,0.524-0.145c0.003,0.066,0.148,0.433,0.413,0.705C72.797,115.446,72.753,114.833,72.721,113.854z"/>
			<path fill="#815F45" d="M64.079,105.48c0,0,4.08,1.95,6.567-1.527C68.202,107.313,68.202,107.313,64.079,105.48z"/>
			
				<ellipse transform="matrix(-0.1541 0.988 -0.988 -0.1541 188.2861 7.7147)" fill="#AC8A86" cx="90.841" cy="84.452" rx="1.001" ry="0.846"/>
			<path fill="#52362B" d="M106.199,80.357c0.631-0.83,0.846-1.786,0.628-2.462c0.245-0.191,0.48-0.426,0.693-0.702
				c0.861-1.131,0.959-2.507,0.215-3.074c-0.271-0.205-0.614-0.273-0.984-0.226c0.16-0.145,0.309-0.307,0.436-0.49
				c0.981-1.419,0.516-3.46-0.998-4.783c0.377-0.146,0.693-0.374,0.914-0.695c0.826-1.196,0.049-3.164-1.729-4.454
				c0.656-1.235-0.156-3.133-1.931-4.36c-0.229-0.157-0.464-0.296-0.698-0.416c-0.059-1.209-0.668-2.407-1.771-3.187
				c-0.855-0.605-1.851-0.838-2.797-0.759c-0.24-0.91-0.789-1.762-1.641-2.363c-0.318-0.227-0.661-0.384-1.01-0.512
				c0.007-1.28-0.617-2.569-1.785-3.395c-1.24-0.878-2.768-0.988-4.016-0.449c0.002-0.265-0.027-0.524-0.137-0.766
				c-0.598-1.363-2.764-1.726-4.832-0.813c-0.096,0.041-0.176,0.093-0.266,0.137c0.127-0.466,0.128-0.928-0.053-1.343
				c-0.521-1.176-2.209-1.604-3.991-1.11c-1.13-2.122-4.646-2.656-8.021-1.168c-0.076,0.034-0.151,0.074-0.228,0.11
				c-0.011-0.379-0.081-0.746-0.235-1.095c-0.938-2.129-4.323-2.698-7.565-1.269c-1.341,0.59-2.439,1.433-3.208,2.366
				c-0.079-0.088-0.149-0.179-0.241-0.249c-1.173-0.895-3.22-0.182-4.592,1.586c-0.061-0.053-0.117-0.105-0.182-0.154
				c-2.464-1.882-5.957-1.45-7.796,0.962c-0.427,0.562-0.72,1.18-0.899,1.822c-1.369-0.669-3.463,0.174-4.889,2.047
				c-1.339,1.755-1.645,3.835-0.846,5.028c-0.087-0.101-0.169-0.206-0.277-0.287c-1.183-0.9-3.253-0.174-4.627,1.626
				c-1.129,1.485-1.417,3.225-0.823,4.298c-0.037-0.007-0.07-0.023-0.106-0.026c-1.203-0.12-2.324,1.268-2.505,3.099
				c-0.074,0.756,0.029,1.462,0.254,2.046c-1.221,2.108-1.31,3.493,0.189,2.932c-0.547,1.087-0.575,1.959-0.457,2.812
				c-0.397-0.088-0.794-0.069-1.165,0.065c-1.49,0.558-2.014,2.845-1.172,5.111c0.309,0.829,0.758,1.537,1.273,2.079
				c-0.084,0.289-0.154,0.592-0.186,0.914c-0.181,1.832,0.648,3.412,1.851,3.531c1.205,0.119,2.327-1.268,2.508-3.098
				c0.042-0.422,0.023-0.827-0.033-1.208c0.391,0.489,0.964,0.904,2.025,1.147c0.038,2.942,0.041,4.729,0.177,6.199
				c-0.146,0.383-0.248,0.809-0.294,1.261c-0.142,1.441,0.347,2.719,1.146,3.259c-0.092,0.247-0.157,0.516-0.186,0.807
				c-0.121,1.237,0.437,2.302,1.25,2.382c0.811,0.08,1.568-0.856,1.689-2.092c0.068-0.676-0.075-1.297-0.349-1.74
				c0.418-0.555,0.721-1.316,0.808-2.186c0.065-0.67-0.007-1.305-0.181-1.848c0.42-0.557,0.723-1.32,0.81-2.192
				c0.109-1.107-0.154-2.116-0.643-2.773c0.009-0.061,0.019-0.116,0.027-0.179c0.422,1.142,1.899,2.07,3.745,2.211
				c1.149,0.089,2.207-0.145,2.989-0.59c0.649,0.839,1.902,1.471,3.394,1.585c1.876,0.146,3.505-0.572,4.072-1.667
				c0.627,0.337,1.395,0.565,2.236,0.629c1.146,0.088,2.203-0.145,2.985-0.588c0.121-0.004,0.243-0.004,0.362-0.007
				c0.669,0.42,1.524,0.717,2.491,0.79c0.94,0.074,1.813-0.078,2.533-0.376c0.703,0.644,1.784,1.111,3.042,1.208
				c1.32,0.103,2.514-0.229,3.31-0.809c0.353,0.621,1.029,1.149,1.896,1.493c-0.069,0.021-0.146,0.05-0.212,0.068
				c0.104-0.006,0.203-0.019,0.308-0.026c0.49,0.184,1.035,0.307,1.618,0.353c1.277,0.098,2.436-0.209,3.231-0.756
				c0.274,0.062,0.559,0.106,0.855,0.129c2.121,0.164,3.929-0.771,4.232-2.115c0.127-0.055,0.258-0.108,0.379-0.164
				c0.053,0.004,0.1,0.018,0.153,0.023c1.118,0.085,2.155-0.134,2.931-0.557c0.688,0.737,1.855,1.276,3.227,1.383
				c0.869,0.067,1.684-0.054,2.369-0.304c0.162,0.189,0.361,0.363,0.586,0.524c-1.016,0.416-1.717,1.132-1.784,2.003
				c-0.076,0.986,0.678,1.903,1.849,2.464c-1.332,0.348-2.299,1.164-2.381,2.198c-0.042,0.561,0.184,1.101,0.598,1.566
				c-0.76,0.428-1.256,1.054-1.313,1.784c-0.037,0.518,0.155,1.012,0.508,1.451c-0.28,0.445-0.479,1.017-0.526,1.661
				c-0.115,1.483,0.569,2.747,1.528,2.818c0.445,0.035,0.869-0.201,1.209-0.601c0.22,0.193,0.468,0.321,0.744,0.344
				c0.897,0.068,1.709-0.933,1.903-2.274c0.941-0.226,1.949-0.887,2.731-1.915c0.833-1.09,1.207-2.321,1.118-3.324
				c0.298-0.258,0.586-0.546,0.846-0.887c0.911-1.198,1.271-2.561,1.068-3.609c0.619-0.118,1.295-0.546,1.812-1.225
				c0.863-1.132,0.959-2.509,0.215-3.077 M60.591,47.741c0.01,0.016,0.024,0.035,0.037,0.051c-0.031,0.005-0.063,0.008-0.095,0.012
				C60.552,47.782,60.572,47.765,60.591,47.741z"/>
			<path fill="#BC9A91" d="M36.309,239.115c-0.577-1.033-0.708-7.062-1.017-8.666c-0.311-1.609-3.372-5.084-3.372-5.084L34.71,175
				l-12.095,1.654c0,0,0.358,47.707,0.433,48.516c0.072,0.811-1.135,6.084-1.019,8.191c0.12,2.109,1.143,5.576,2.338,10.385
				c0.307,0.633,2.447,0.061,2.447,0.061s-0.903-6.227-0.896-8.355c0.234,1.494,1.205,8.115,1.803,9.361
				c0.234,0.126,1.738-0.414,2.463-0.775c-0.414-1.89-1.139-7.414-1.008-9.449c0.125,3.469,0.846,7.416,1.852,9.611
				c0.552,0.061,1.531-0.074,2.004-0.701c-1.052-4.24-1.055-9.438-0.798-10.623c0.253,1.016,0.361,1.881,1.007,3.303
				C33.959,238.615,34.922,239.403,36.309,239.115z"/>
			<path fill="#EDEDED" d="M97.597,137.456c-1.347-5.026-25.586-13.988-25.586-13.988c-0.121,5.571-4.582,8.065-9.764,8.065
				c-8.363,0-10.148-7.031-10.167-8.065c0,0-24.114,8.994-25.127,14.021c-0.932,3.037-6.222,39.438-6.222,39.438l16.829,1.771
				l4.059-38.613l10.501-11.618v-0.006c0.944,2.883,5.117,5.056,10.127,5.056c4.959,0,9.098-2.129,10.096-4.971l12.488,12.115
				l4.396,37.772l17.17-2.304C106.396,176.13,98.417,140.525,97.597,137.456z"/>
			<path fill="#604737" d="M106.396,176.13l-0.213-1.071l-0.039,0.007c-0.314-1.158-1.324-1.975-2.5-2.05
				c0.115-0.832,0.736-1.522,1.588-1.694v-0.001l0.207-0.032c-0.219-1.334-1.342-2.289-2.639-2.343l2.1-0.333l-0.211-1.068
				l-16.424,2.752l0.138,0.937l8.062-1.278c-1.137,0.315-1.938,1.301-2.037,2.453c-0.021,0.004-0.045,0-0.068,0.004
				c-0.043,0.008-0.084,0.024-0.124,0.033c-0.497-1.148-1.718-1.863-3.015-1.648c-1.293,0.213-2.226,1.279-2.33,2.533
				c-0.025,0.002-0.047,0-0.072,0.004c-1.526,0.25-2.562,1.688-2.313,3.217c0,0.002,0,0.005,0,0.007l0.778-0.13
				c0-0.002-0.002-0.002-0.004-0.002c-0.178-1.104,0.566-2.135,1.665-2.313c0.892-0.146,1.729,0.315,2.112,1.083
				c-0.355,0.191-0.666,0.448-0.906,0.766c-0.199-0.114-0.432-0.178-0.678-0.164c-0.688,0.035-1.219,0.621-1.186,1.312
				c0.035,0.653,0.566,1.157,1.209,1.178l0.098,0.555L106.396,176.13z M92.822,174.897c0.116-0.854,0.769-1.563,1.661-1.713
				c0.892-0.146,1.729,0.317,2.113,1.085c-0.354,0.188-0.664,0.447-0.906,0.764c-0.2-0.113-0.432-0.178-0.68-0.164
				c-0.404,0.021-0.75,0.233-0.963,0.547C93.69,175.144,93.271,174.971,92.822,174.897z M100.029,172.262
				c0.891-0.147,1.729,0.317,2.114,1.084c-0.324,0.174-0.606,0.405-0.836,0.683c-0.215-0.146-0.477-0.229-0.756-0.214
				c-0.441,0.022-0.814,0.271-1.021,0.627c-0.34-0.243-0.74-0.396-1.166-0.467C98.483,173.123,99.136,172.41,100.029,172.262z
				 M102.853,173.012c-0.006-0.009-0.01-0.017-0.012-0.022c0.006,0,0.008-0.003,0.014-0.003
				C102.853,172.998,102.853,173.003,102.853,173.012z M96.226,175.639c0.299-0.461,0.775-0.804,1.361-0.897
				c0.705-0.117,1.379,0.147,1.822,0.643c0.062,0.242,0.197,0.455,0.378,0.615c0.017,0.041,0.024,0.09,0.038,0.133l-3.676,0.619
				c0.119-0.203,0.186-0.444,0.171-0.698C96.313,175.906,96.278,175.769,96.226,175.639z M97.578,173.958c-0.005,0-0.013,0-0.017,0
				c0.004,0,0.012-0.004,0.019-0.006C97.58,173.955,97.58,173.957,97.578,173.958z M105.367,175.199l-3.776,0.637
				c0.182-0.229,0.287-0.521,0.271-0.834c-0.007-0.114-0.031-0.224-0.063-0.324c0.299-0.438,0.77-0.766,1.336-0.854
				C104.132,173.655,105.072,174.257,105.367,175.199z M104.433,170.776c-0.215,0.104-0.412,0.228-0.592,0.376
				c-0.223-0.408-0.66-0.679-1.156-0.652c-0.649,0.033-1.151,0.562-1.178,1.199c-0.257-0.115-0.531-0.183-0.818-0.217
				c0.113-0.857,0.766-1.576,1.662-1.727C103.218,169.613,104.036,170.048,104.433,170.776z M101.716,169.119
				c-1.018,0.371-1.721,1.299-1.818,2.371c-0.043,0.008-0.082,0.022-0.123,0.032c-0.451-1.051-1.504-1.722-2.666-1.674
				L101.716,169.119z M96.888,170.647c0.916-0.147,1.775,0.343,2.145,1.146c-0.249,0.137-0.477,0.303-0.672,0.5
				c-0.193-0.477-0.67-0.803-1.217-0.771c-0.616,0.029-1.103,0.506-1.17,1.104c-0.237-0.104-0.492-0.17-0.756-0.207
				C95.315,171.539,95.976,170.794,96.888,170.647z M91.349,171.57c0.914-0.148,1.774,0.342,2.144,1.145
				c-0.265,0.144-0.498,0.32-0.703,0.533c-0.214-0.432-0.668-0.715-1.178-0.688c-0.581,0.03-1.046,0.455-1.157,0.998
				c-0.238-0.113-0.504-0.181-0.775-0.22C89.776,172.458,90.435,171.716,91.349,171.57z M92.044,175.664
				c0.693-0.113,1.355,0.14,1.799,0.614c0.045,0.315,0.199,0.593,0.428,0.787l-3.668,0.617c0.125-0.205,0.19-0.45,0.18-0.709
				c-0.008-0.147-0.044-0.284-0.098-0.411C90.981,176.1,91.46,175.759,92.044,175.664z"/>
			<path fill="#604737" d="M38.143,173.232c-0.023-0.003-0.047,0-0.072-0.002c-0.168-1.247-1.154-2.266-2.458-2.411
				c-1.304-0.146-2.486,0.627-2.923,1.804c-0.044-0.008-0.085-0.022-0.127-0.024c-0.023-0.005-0.048,0-0.072-0.002
				c-0.154-1.147-1.007-2.089-2.158-2.349l8.117,0.865l0.091-0.939l-16.544-1.907l-0.155,1.077l2.111,0.226
				c-1.291,0.12-2.364,1.13-2.516,2.476l0.21,0.021l0,0c0.858,0.131,1.515,0.789,1.673,1.612c-1.169,0.136-2.136,1-2.392,2.176
				l-0.041-0.004l-0.157,1.08l16.922,1.84l0.065-0.56c0.642-0.055,1.146-0.584,1.146-1.237c0-0.688-0.557-1.25-1.247-1.25
				c-0.247,0-0.477,0.077-0.67,0.198c-0.258-0.301-0.579-0.543-0.944-0.715c0.343-0.785,1.158-1.293,2.054-1.188
				c1.108,0.121,1.904,1.116,1.781,2.228c0,0-0.002,0-0.002,0.002l0.783,0.09c0-0.002,0-0.004,0-0.006
				C40.792,174.787,39.683,173.402,38.143,173.232z M35.527,171.602c0.917,0.104,1.613,0.808,1.757,1.679
				c-0.27,0.055-0.527,0.135-0.765,0.262c-0.141-0.539-0.624-0.938-1.204-0.938c-0.512,0-0.948,0.307-1.144,0.747
				c-0.213-0.203-0.458-0.368-0.729-0.494C33.769,172.033,34.605,171.5,35.527,171.602z M33.027,175.58
				c-0.23-0.301-0.585-0.496-0.992-0.496c-0.246,0-0.476,0.074-0.67,0.197c-0.257-0.3-0.578-0.541-0.944-0.714
				c0.346-0.786,1.158-1.292,2.057-1.192c0.898,0.101,1.585,0.783,1.747,1.629C33.778,175.096,33.367,175.292,33.027,175.58z
				 M24.112,173.63c-0.001-0.01-0.003-0.02-0.007-0.024c0.007,0,0.012,0,0.016,0.002C24.119,173.613,24.115,173.621,24.112,173.63z
				 M26.89,172.738c0.901,0.102,1.587,0.778,1.751,1.627c-0.422,0.092-0.812,0.264-1.142,0.522
				c-0.224-0.345-0.611-0.574-1.051-0.574c-0.279,0-0.537,0.099-0.744,0.252c-0.244-0.267-0.537-0.479-0.869-0.637
				C25.18,173.145,25.994,172.634,26.89,172.738z M29.426,174.305c-0.001-0.003-0.001-0.005-0.001-0.007
				c0.006,0,0.011,0.004,0.016,0.007C29.435,174.305,29.431,174.305,29.426,174.305z M27.323,176.455
				c0.173-0.166,0.295-0.387,0.348-0.631c0.417-0.517,1.077-0.816,1.784-0.732c0.591,0.062,1.087,0.382,1.407,0.828
				c-0.046,0.131-0.075,0.271-0.075,0.414c0,0.252,0.076,0.49,0.208,0.688l-3.703-0.435C27.303,176.544,27.309,176.5,27.323,176.455
				z M31.702,172.645c-0.259,0.049-0.513,0.125-0.741,0.244c-0.099-0.593-0.609-1.043-1.228-1.043c-0.546,0-1.003,0.351-1.176,0.836
				c-0.202-0.188-0.438-0.343-0.694-0.466c0.327-0.819,1.162-1.355,2.082-1.254C30.863,171.066,31.56,171.772,31.702,172.645z
				 M29.687,170.177c-1.163,0.011-2.18,0.734-2.577,1.806c-0.043-0.008-0.084-0.021-0.127-0.026
				c-0.152-1.062-0.899-1.953-1.933-2.271L29.687,170.177z M22.416,171.479c0.362-0.748,1.155-1.226,2.028-1.125
				c0.903,0.101,1.591,0.787,1.749,1.638c-0.283,0.047-0.559,0.129-0.808,0.256c-0.059-0.635-0.588-1.136-1.237-1.136
				c-0.494,0-0.92,0.291-1.122,0.71C22.841,171.684,22.637,171.568,22.416,171.479z M23.871,174.451
				c0.573,0.065,1.059,0.362,1.38,0.786c-0.029,0.104-0.05,0.212-0.05,0.327c0,0.314,0.121,0.602,0.315,0.818l-3.808-0.441
				C21.955,174.988,22.863,174.335,23.871,174.451z M36.444,176.55c-0.045,0.132-0.076,0.271-0.076,0.418
				c0,0.261,0.081,0.5,0.214,0.699l-3.693-0.43c0.219-0.205,0.361-0.488,0.386-0.81c0.42-0.496,1.067-0.782,1.765-0.705
				C35.629,175.792,36.124,176.108,36.444,176.55z"/>
			<g>
				<path fill="#EDEDED" d="M67.798,150.927c0.242-0.336,0.408-0.911,0.529-1.514c-1.566,0.066-3.001,0.545-4.158,1.305
					c0.22,0.973,0.195,2.082-0.141,2.783c0.091-0.592-0.131-1.524-0.434-2.383c-1.309,1.006-2.249,2.366-2.735,3.801
					c0.836,0.84,1.407,2.158,1.611,3.164c-0.363-0.709-1.054-1.521-1.854-2.184c-0.745,3.768,1.534,5.989,2.397,5.616l0.087-0.021
					c-0.61-2.062-0.481-4.287,0.638-5.908c1.661-2.879,4.416-4.811,7.47-5.461c-3.024,0.754-5.692,2.772-7.227,5.646
					c-1.013,1.637-1.116,3.704-0.478,5.605c0.951-0.571,1.476-1.729,2.357-2.934c-0.891-0.314-1.897-0.414-2.347-0.035
					c0.424-0.724,1.628-0.808,2.552-0.349c0.385-0.626,0.83-1.425,1.406-2.427c-0.681-0.473-1.421-0.74-1.934-0.646
					c0.538-0.368,1.444-0.271,2.193,0.234c0.524-0.862,1.169-1.832,1.974-2.872c-0.488-0.366-1.02-0.564-1.394-0.496
					c0.411-0.279,1.112-0.172,1.67,0.125c0.537-0.659,1.151-1.32,1.928-1.992c-0.989-0.398-2.047-0.607-3.046-0.611
					C68.645,150.083,68.229,150.621,67.798,150.927z"/>
				<path fill="#EDEDED" d="M52.513,151.512c-0.629,0.17-1.26,0.478-1.818,0.896c0.602,0.293,1.099,0.608,1.549,0.936
					c0.303-0.28,0.724-0.467,1.031-0.358c-0.248,0.021-0.551,0.231-0.796,0.545c0.683,0.521,1.249,1.025,1.723,1.479
					c0.389-0.442,0.943-0.655,1.344-0.514c-0.338,0.023-0.76,0.317-1.112,0.729c0.531,0.537,0.945,0.964,1.295,1.293
					c0.504-0.44,1.276-0.591,1.664-0.204c-0.346-0.163-0.964,0.064-1.474,0.411c0.758,0.614,1.282,1.256,1.978,1.455
					c0.084-1.306-0.327-2.591-1.238-3.451c-1.446-1.556-3.464-2.383-5.496-2.353c2.032-0.101,4.091,0.656,5.618,2.192
					c0.978,0.835,1.43,2.22,1.39,3.618l0.056-0.003c0.606,0.093,1.672-1.69,0.574-3.94c-0.394,0.555-0.691,1.18-0.803,1.688
					c-0.039-0.668,0.101-1.593,0.486-2.265c-0.545-0.822-1.365-1.521-2.357-1.938c-0.048,0.59-0.032,1.216,0.127,1.572
					c-0.33-0.387-0.531-1.079-0.556-1.729c-0.856-0.287-1.84-0.348-2.838-0.129c0.175,0.357,0.377,0.691,0.585,0.865
					C53.118,152.187,52.769,151.917,52.513,151.512z"/>
				<path fill="#EDEDED" d="M62.207,148.057c0.109-0.153,0.185-0.412,0.241-0.688c-0.712,0.031-1.362,0.248-1.889,0.594
					c0.099,0.44,0.088,0.945-0.065,1.267c0.043-0.271-0.059-0.694-0.196-1.083c-0.593,0.455-1.021,1.074-1.241,1.729
					c0.378,0.383,0.639,0.979,0.732,1.436c-0.167-0.32-0.481-0.688-0.844-0.99c-0.337,1.711,0.697,2.723,1.09,2.551l0.038-0.008
					c-0.276-0.938-0.218-1.947,0.289-2.684c0.757-1.311,2.008-2.186,3.394-2.48c-1.372,0.342-2.584,1.26-3.281,2.562
					c-0.461,0.744-0.507,1.684-0.218,2.547c0.433-0.26,0.671-0.786,1.07-1.332c-0.403-0.143-0.86-0.188-1.064-0.016
					c0.192-0.328,0.738-0.367,1.157-0.16c0.177-0.283,0.377-0.646,0.641-1.1c-0.308-0.218-0.646-0.339-0.878-0.295
					c0.244-0.167,0.655-0.121,0.995,0.107c0.239-0.393,0.53-0.834,0.898-1.307c-0.223-0.166-0.465-0.259-0.637-0.227
					c0.19-0.127,0.507-0.078,0.761,0.059c0.244-0.302,0.522-0.602,0.876-0.906c-0.451-0.182-0.93-0.274-1.384-0.276
					C62.591,147.671,62.402,147.917,62.207,148.057z"/>
				<path fill="#EDEDED" d="M74.413,162.234c0.472-0.22,1.006-0.747,1.508-1.331c-1.759-0.889-3.622-1.243-5.353-1.122
					c-0.358,1.201-1.063,2.399-1.865,2.965c0.468-0.594,0.797-1.754,0.99-2.875c-2.052,0.301-3.914,1.213-5.326,2.482
					c0.397,1.436,0.216,3.227-0.175,4.457c0.036-1.003-0.224-2.312-0.692-3.53c-3.125,3.671-1.99,7.501-0.817,7.623l0.107,0.027
					c0.595-2.628,2.102-4.987,4.319-6.078c3.587-2.134,7.785-2.558,11.527-1.397c-3.773-1.027-7.933-0.453-11.373,1.75
					c-2.112,1.17-3.493,3.375-3.962,5.851c1.395-0.046,2.677-0.988,4.381-1.769c-0.779-0.892-1.823-1.615-2.55-1.479
					c0.911-0.532,2.277,0.113,3.008,1.186c0.808-0.449,1.783-1.05,3.029-1.793c-0.457-0.938-1.104-1.686-1.723-1.893
					c0.812-0.075,1.747,0.586,2.257,1.602c1.104-0.623,2.403-1.291,3.924-1.938c-0.311-0.7-0.771-1.244-1.224-1.396
					c0.624-0.057,1.324,0.492,1.753,1.161c0.993-0.394,2.07-0.743,3.333-1.001c-0.841-1.046-1.868-1.923-2.96-2.54
					C75.858,161.826,75.076,162.164,74.413,162.234z"/>
				<path fill="#EDEDED" d="M47.143,156.427c-1.282,0.298-2.577,0.875-3.729,1.679c1.192,0.636,2.175,1.304,3.058,1.992
					c0.63-0.546,1.494-0.89,2.108-0.649c-0.503,0.02-1.126,0.432-1.646,1.045c1.341,1.1,2.45,2.154,3.376,3.109
					c0.815-0.87,1.947-1.262,2.747-0.945c-0.686,0.024-1.558,0.59-2.294,1.396c1.034,1.117,1.839,2.01,2.52,2.701
					c1.049-0.86,2.614-1.107,3.375-0.303c-0.688-0.354-1.953,0.067-3.003,0.732c1.484,1.287,2.498,2.617,3.886,3.07
					c0.263-2.627-0.476-5.252-2.257-7.055c-2.814-3.236-6.826-5.045-10.928-5.127c4.108-0.057,8.209,1.61,11.188,4.818
					c1.91,1.753,2.728,4.572,2.549,7.395l0.115,0.002c1.22,0.227,3.491-3.295,1.434-7.912c-0.834,1.086-1.481,2.328-1.741,3.348
					c-0.03-1.354,0.317-3.211,1.14-4.533c-1.043-1.693-2.65-3.168-4.624-4.074c-0.137,1.188-0.146,2.448,0.146,3.186
					c-0.638-0.803-0.995-2.221-0.999-3.533c-1.708-0.635-3.688-0.826-5.722-0.455c0.334,0.738,0.718,1.426,1.126,1.785
					C48.319,157.832,47.634,157.255,47.143,156.427z"/>
			</g>
		</g>
	</g>
</g>
<g>
	<defs>
		<circle id="SVGID_1_" cx="142.732" cy="141.732" r="108.5"/>
	</defs>
	<clipPath id="SVGID_2_">
		<use xlink:href="#SVGID_1_"  overflow="visible"/>
	</clipPath>
	<g id="Layer_3_copy" clip-path="url(#SVGID_2_)">
		<circle fill="#6A4897" cx="142.369" cy="141.716" r="110.967"/>
	</g>
	<g id="Layer_5_1_" clip-path="url(#SVGID_2_)">
		<g id="Layer_1_3_">
			<g>
				<path fill="#F7CFC5" d="M146.738,253.43c4.773-0.171,9.472-0.632,14.074-1.382c-2.742-11.073-5.188-32.041,8.041-55.955
					c13.576-24.541-48.831-35.334-54.25-6.32c0,0,27.255,34.616,29.36,52.531C144.443,246.421,145.51,250.055,146.738,253.43z"/>
				<path fill="#F7CFC5" d="M33,163.143c8.217,42.407,40.407,76.263,81.904,86.884c8.951-8.096,17.958-16.049,29.519-26.158
					c17.834-15.597,17.158-23.139,30.28-34.397c15.704-13.486,24.904-33.53,18.49-55.447c-6.42-21.916-23.229-18.039-41.565-15.901
					c-18.335,2.139-7.164-14.428-28.887-4.44c-8.863,4.074-22.305,13.275-84.43,46.783C36.863,161.248,35.064,162.14,33,163.143z"/>
				<path fill="#EDB4A9" d="M118.351,129.983c0.231,8.352-20.034,18.64,0.903,49.246c-16.056,0.763-0.525,30.821-2.326,37.015
					c-1.515,5.223-0.724,24.209,6.569,26.069c0,0,3.671-3.649,13.321-11.414c11.396-9.175,22.214-22.092,33.961-34.19
					c9.082-9.357,12.884-15.258,17.546-22.572C188.325,174.132,128.844,149.759,118.351,129.983z"/>
				<path fill="#EDB4A9" d="M172.512,109.783c3.793-6.4,8.92-19.474,19.377-24.452c10.461-4.973,16.116-8.009,19.514-6.955
					c3.396,1.053,1.377,2.053-0.654,8.105c-2.034,6.051-0.227,12.802,0.191,21.771c0.422,8.97,3.137,7.919-5.138,15.507
					C197.538,131.349,171.322,111.785,172.512,109.783z"/>
				<path fill="#FBDCD7" d="M172.665,107.518c11.599-24.222,31.333-27.804,31.333-27.804c-12.029,19.885-13.15,27.427-13.271,39.476
					c-0.088,8.581-18.371-7.139-18.215-9.406"/>
				<path fill="#F7CFC5" d="M208.553,146.694c5.014-5.019-5.764-26.212-9.127-25.684c-2.189,0.34-3.229,0.954-5.771,1.457
					c-7.672-9.404-20.893-17.861-38.26-21.068c-30.104-5.559-43.417,10.837-48.496,16.25c0,0,14.343,10.751,11.281,15.166
					c-3.064,4.41-10.677,28.61,4.485,40.249c11.407,8.752,22.724,10.719,32.178,10.039c4.587-0.212,9.115-0.656,13.724-1.146
					c27.771-2.94,33.233-28.883,36.525-32.062C206.482,148.942,207.727,147.987,208.553,146.694z"/>
				<path fill="#EDB4A9" d="M131.655,108.039c-4.354-6.267-3.533-18.547-14.208-25.243c-10.676-6.696-21.248-9.891-25.984-8.72
					c-4.734,1.167-4.625,4.593-4.285,14.76c0.338,10.168-5.007,35.872,4.427,43.631c9.429,7.761,18.967,11.537,25.065,3.098
					C122.762,127.128,135.952,114.226,131.655,108.039z"/>
				<g>
					<path fill="#EDB4A9" d="M147.812,117.718c1.849,0.312,3.496,0.965,4.806,1.821c-0.798-1.901-2.679-3.411-5.075-3.821
						c-2.833-0.479-5.526,0.726-6.794,2.818C142.596,117.615,145.133,117.262,147.812,117.718z"/>
					<path fill="#7E3E35" d="M153.907,124.829c0.118-2.069-6.718-5.454-8.884-2.645c-2.172,2.811-1.834,7.008,0.468,6.499
						c3.604-0.802,1.679-1.781,4.309-1.993C152.434,126.476,153.784,126.897,153.907,124.829z"/>
					<path fill="#4B3331" d="M151.827,125.808c-0.347,1.547-2.05,2.511-3.808,2.154c-1.756-0.357-2.902-1.903-2.562-3.45
						c0.351-1.551,2.058-2.512,3.813-2.156C151.027,122.713,152.172,124.258,151.827,125.808z"/>
					<path fill="#FFFFFF" d="M150.539,123.307c-0.779-0.159-1.539,0.27-1.689,0.958c-0.158,0.69,0.354,1.376,1.135,1.537
						c0.781,0.159,1.541-0.271,1.693-0.959C151.831,124.153,151.322,123.465,150.539,123.307z"/>
				</g>
				<path fill="#F7CFC5" d="M91.463,74.077c-7.834,0.662,19.703,10.517,21.267,23.075c1.565,12.563-0.847,20.214,1.322,26.799
					c5.336,16.2,16.576-3.365,18.322-11.206c1.193-5.374-3.158-7.279-4.904-15.548C123.523,78.56,97.692,73.544,91.463,74.077z"/>
				<path fill="#7E3E35" d="M201.57,149.287c-0.35-0.451-0.902-0.646-1.655-0.57c-1.17,0.117-2.478,0.354-4.283,0.68
					c-2.671,0.482-6.325,1.146-12.18,1.904c-10.822,1.408-15.985-0.737-18.413-2.787c-2.083-1.762-2.547-3.721-2.65-4.534
					c0.398-0.233-2.562,0.485-3.207,2.296l0.723,0.264c0.335-0.924,0.919-1.533,1.775-2.113c0.202,1.057,0.84,2.975,2.863,4.684
					c3.703,3.127,10.098,4.123,19.01,2.967c5.871-0.765,9.537-1.431,12.215-1.914c1.791-0.324,3.084-0.56,4.226-0.67
					c0.702-0.07,0.899,0.199,0.978,0.276c1.32,1.455,0.398,6.787-0.055,8.071l1.061-2.151
					C202.755,153.479,202.438,150.399,201.57,149.287z"/>
				<path fill="#F8E0DB" d="M201.846,118.02c-6.216-0.096-5.664,4.147-9.837,7.022c-4.175,2.876-9.562,8.212-8.478,13.996
					c1.089,5.783,11.354,9.229,17.854,8.237c6.503-0.99,10.302,1.237,11.261-3.523c0.959-4.76-0.209-5.391,0.17-10.821
					C213.197,127.498,211.57,118.175,201.846,118.02z"/>
				<path fill="#7E3E35" d="M191.281,134.332c-3.285-0.997,3.857-4.713,4.599-1.934
					C196.625,135.177,194.676,135.364,191.281,134.332z"/>
				<path fill="#7E3E35" d="M209.809,134.834c2.846-1.921-2.699-4.324-2.6-1.451C207.312,136.263,206.861,136.822,209.809,134.834z"
					/>
				<path fill="#F7CFC5" d="M198.089,121.266c0,0,6.372-4.728,10.437,1.717C208.523,122.983,205.45,118.389,198.089,121.266z"/>
				<path fill="#EDB4A9" d="M111.961,249.232c19.91-36.533,12.189-89.531-41.685-38.195c-3.298,3.144-6.692,5.006-10.13,6.049
					C73.922,232.169,91.775,243.468,111.961,249.232z"/>
				<path fill="#F7CFC5" d="M125.348,252.169c-3.516-18.584-7.672-45.924-4.374-58.183c8.451-31.428-51.787-33.598-55.114,0.474
					c0,0,29.062,30.912,37.416,51.892C110.321,249.007,117.704,250.977,125.348,252.169z"/>
			</g>
		</g>
	</g>
</g>
</svg>
